<?xml version="1.0" encoding="utf-8"?>
<!-- Generator: Adobe Illustrator 25.3.1, SVG Export Plug-In . SVG Version: 6.00 Build 0)  -->
<svg version="1.1" xmlns="http://www.w3.org/2000/svg" xmlns:xlink="http://www.w3.org/1999/xlink" x="0px" y="0px"
	 viewBox="0 0 900 600" enable-background="new 0 0 900 600" xml:space="preserve">
<g id="Layer_2" display="none">
	<g display="inline">
		<rect fill="#FFFFFF" width="900" height="600"/>
	</g>
	<g display="inline" opacity="0">
		<rect fill="#FFFFFF" width="900" height="600"/>
	</g>
</g>
<g id="Layer_1">
	<g>
		<g>
			<path fill="#EDF6FB" d="M367,482.5c-15.7,0-29.4-1.1-41.4-3.3c-27.9-5.2-44-15.9-60.7-28.3c-25.5-19-51.8-40.3-71.2-66.8
				c-21.3-29.1-31.3-61.4-28-90.9c3.8-33.9,20.1-68.7,48.6-103.4c13.6-16.6,31.3-27.1,48.3-37.3c14-8.3,28.5-16.9,41-29
				c40.1-38.4,107.8-86.7,232.5-63.2c37.5,7.1,71,26.5,92.5,53.3c17.1,8,28.9,26,38.8,42.8c8.7,14.7,13.6,29.4,18.4,43.6
				c7,20.6,14.2,41.8,32.7,64.1c1.4,1.7,2.9,3.5,4.4,5.3c15.1,17.9,33.8,40.2,37.5,62.8c4.6,27.6-4.6,54.2-23.2,67.9
				c-12.7,9.3-30.6,13.5-51.8,12.2c-10.7-0.6-21.4-2.5-31.7-4.2c-7.1-1.2-14.5-2.5-21.8-3.3c-40.4-4.8-82.6,2.7-118.7,20.9
				c-22.9,11.6-23.7,21.2-24.3,28.9c-0.7,8.4-1.2,15.1-29.1,19.5C422.7,479.6,392.2,482.5,367,482.5z M473.4,55
				c-85.4,0-136.4,37.9-169.1,69.1c-12.7,12.1-27.2,20.8-41.2,29.1c-17.8,10.6-34.5,20.5-48,37c-28.3,34.5-44.6,69.2-48.3,102.9
				c-3.3,29.2,6.6,61.2,27.8,90.2c19.3,26.4,45.5,47.6,71,66.6c35.6,26.6,68.4,42.5,194.2,22.8c27.2-4.3,27.6-10.3,28.3-18.6
				c0.6-8,1.4-17.9,24.8-29.7c36.3-18.3,78.7-25.8,119.3-21c7.3,0.9,14.7,2.1,21.8,3.3c10.3,1.8,21,3.6,31.6,4.2
				c21,1.2,38.7-2.9,51.1-12c18.4-13.4,27.3-39.7,22.8-66.9c-3.7-22.2-22.3-44.4-37.3-62.3c-1.5-1.8-3-3.6-4.4-5.3
				c-18.7-22.4-25.9-43.8-32.9-64.4c-4.8-14.2-9.7-28.8-18.4-43.4c-9.9-16.8-20.8-33.4-36.6-41.5c3.1,4,6,8.1,8.5,12.4l-0.9,0.5
				c-2.9-4.8-6.1-9.5-9.7-13.9c-2.9-1.3-6-2.3-9.2-3l0.2-1c2.7,0.6,5.2,1.4,7.7,2.4c-21.4-25.8-54.1-44.5-90.7-51.4
				C513.3,56.9,492.5,55,473.4,55z"/>
			<path fill="#EDF6FB" d="M195.6,359.9c-20-43-18.5-94.1,0.1-137.7c19.8-46.4,60.9-82.6,106.9-108c80.9-44.7,181.1-59.3,271.8-36.1
				c23.4,6,46.4,14.5,65.7,28.3c19.3,13.8,34.6,33.3,39.2,55.6c3.2,15.4,1.3,31.4,3.5,47c8.8,61.8,70.9,90.6,70.1,153
				c-0.5,39-29,66.3-68.8,90.5C649.2,473.7,290.4,563.8,195.6,359.9z"/>
		</g>
		<g>
			<g>
				<g>
					<path fill="#D7E8F3" d="M713.6,442c-1.2,1.1-2.4,2.3-3.6,3.4c-4.6,4.3-8.8,8.2-12.2,11.8c-30.5,32.2-41.7,90.3-41.7,90.3h-18
						c0,0,0.8-7.9,3.2-20.2c4.2-21.4,13.1-56.5,30.6-89.7c0.7-1.2,1.3-2.5,2-3.7c9-16.3,20.2-31.9,34-45c1.3-1.3,3.2-2.7,5.5-4.1
						c0.7-0.4,1.4-0.8,2.1-1.3c10.4-5.9,26.3-10.5,33.1-0.5c0.1,0.2,0.2,0.3,0.3,0.5C759,399.5,734.1,423,713.6,442z"/>
				</g>
			</g>
			<g>
				<g>
					<path fill="#D7E8F3" d="M726.9,313.7c-0.3,0.7-0.6,1.4-0.9,2.2c-5.2,12.4-14.2,27.7-28,46.5c-14.6,19.9-30.2,58.1-40.5,103.2
						c0,0,0,0,0,0.1c-0.4,1.8-0.8,3.7-1.2,5.6c0,0.1,0,0.2-0.1,0.3c-3.9,17.9-6.9,36.7-8.6,55.7c-0.6,6.2-1,14.1-1.3,20.3
						c0,0.5-0.1-0.5-0.1,0H619c-1.9-32.1,1.1-147.4,26.8-209.6c0.3-0.7,0.6-1.5,0.9-2.2c1.3-3,2.6-5.8,4.1-8.4
						c35.8-67.3,65.1-58.2,74.1-51c0.3,0.2,0.6,0.5,0.8,0.7c0,0,0.1,0,0.1,0.1C732.6,283.5,734.2,295.1,726.9,313.7z"/>
				</g>
			</g>
			<g>
				<g>
					<path fill="#D7E8F3" d="M700,524c-6.2,9.1-13.1,17.8-18.2,23.6h-28.7c0.1-0.3,22.1-76.4,53.3-70.6
						C721.6,479.7,712.1,506.3,700,524z"/>
				</g>
			</g>
		</g>
		<g>
			<g>
				<g>
					<g>
						<path fill="#AECEEA" d="M725.7,277.1c-15.4,12.6-28.2,27.6-38.9,44.1c-0.2,0.4-0.5,0.8-0.7,1.1
							c-31.3,49.4-43.4,111.7-47.7,160.1c0,0.4-0.1,0.8-0.1,1.2c-2.4,27.3-2.3,50.4-1.9,63.8h-0.5h-0.7
							c-0.6-19.8-0.7-71.8,11.3-126.6c3.8-17.2,8.4-33.4,13.9-48.4c0.1-0.4,0.3-0.8,0.4-1.2c3.9-10.4,8.2-20.3,12.8-29.5
							c13.6-27,30.8-49,51-65.5C725.1,276.6,725.4,276.8,725.7,277.1C725.6,277.1,725.7,277.1,725.7,277.1z"/>
					</g>
				</g>
			</g>
			<g>
				<g>
					<g>
						<path fill="#AECEEA" d="M726.9,313.7c-0.3,0.7-0.6,1.4-0.9,2.2c-8.5,5.8-23.2,6.8-32.3,6.8c-3.8,0-6.7-0.2-7.6-0.2
							c-0.2,0-0.3,0-0.3,0l0.1-1.2c0,0,0.4,0,1,0.1C692,321.5,716.7,322.4,726.9,313.7z"/>
					</g>
				</g>
			</g>
			<g>
				<g>
					<g>
						<path fill="#AECEEA" d="M661.7,372.1l-0.8,0.9c-0.1-0.1-0.3-0.3-0.4-0.4c-10.4-9.9-13.8-27.8-14.8-34.6
							c0.3-0.7,0.6-1.5,0.9-2.2c0.4,3.9,3.1,24.6,14.3,35.6C661.2,371.6,661.5,371.9,661.7,372.1z"/>
					</g>
				</g>
			</g>
			<g>
				<g>
					<g>
						<path fill="#AECEEA" d="M656.3,471.5c-6,10.4-16.5,12-18,12.2c-0.1,0-0.2,0-0.2,0l-0.1-1.2c0,0,0.1,0,0.4,0
							c2.3-0.3,14.6-2.7,19.2-17L656.3,471.5z"/>
					</g>
				</g>
			</g>
		</g>
		<g>
			<g>
				<g>
					<g>
						<path fill="#AECEEA" d="M708.6,477.5c-5.6,4.3-11.2,10.9-16.4,18.5c-0.2,0.4-0.5,0.7-0.7,1.1c-7.2,10.8-13.8,23.5-19.1,34.8
							c-0.2,0.4-0.3,0.7-0.5,1.1c-2.4,5.2-4.6,10.3-6.3,14.6c0,0.1-0.1-0.1-0.1,0h-0.5h-0.6c4.6-10.9,11.6-26.8,19.8-40.8
							c0.3-0.5,0.6-1,0.9-1.5c6.8-11.5,14.5-21.9,22.3-28.1C707.7,477.2,708.2,477.4,708.6,477.5z"/>
					</g>
				</g>
			</g>
			<g>
				<g>
					<g>
						<path fill="#AECEEA" d="M698.1,526.8c-0.7,1.1-1.5,2.1-2.3,3.1c-5.1,3.1-11,3.9-15.7,3.9c-4,0-7.2-0.6-8.3-0.8
							c-0.2-0.1-0.4-0.1-0.4-0.1l0.3-1.2c0,0,0.2,0.1,0.6,0.1C675.4,532.5,689.2,534.6,698.1,526.8z"/>
					</g>
				</g>
			</g>
			<g>
				<g>
					<g>
						<path fill="#AECEEA" d="M714.2,488.8c0,0.8-0.1,1.6-0.2,2.4c-4.2,5.3-11.3,6.4-16.5,6.4c-3.3,0-5.8-0.5-6.1-0.5
							c0,0,0.2-1.2,0.2-1.2c0,0,0.2,0,0.5,0.1C695.1,496.5,708.8,498.2,714.2,488.8z"/>
					</g>
				</g>
			</g>
			<g>
				<g>
					<g>
						<path fill="#AECEEA" d="M685,505.2c0.1,0.8,0.3,1.3,0.3,1.3l-1.2,0.3c0,0,0,0,0-0.1c-0.3-1.1-2.9-12.7,2.1-22.5
							c1-0.9,1.9-1.7,2.9-2.4C683,490.1,684.3,501.4,685,505.2C685,505.2,685,505.2,685,505.2z"/>
					</g>
				</g>
			</g>
		</g>
		<g>
			<g>
				<g>
					<path fill="#D7E8F3" d="M417.5,547.8h-19.3c-3-20.1-9.7-49.6-24.5-71.1c-2.7-4-6.2-8.4-10-13.2c-1-1.2-2-2.5-3-3.8
						c-17-21.5-37.5-47.9-25.5-61.9v0c0.1-0.1,0.3-0.3,0.4-0.4c8.1-8.6,22.8-1.8,32,5.4c0.7,0.5,1.3,1,1.9,1.5
						c2,1.7,3.6,3.4,4.7,4.8c11.4,14.7,19.8,31.5,26.1,48.6c0.5,1.3,0.9,2.6,1.4,3.9C412.6,493.7,416.3,526.3,417.5,547.8z"/>
				</g>
			</g>
			<g>
				<g>
					<path fill="#D7E8F3" d="M360.3,523.7c6.1,8.9,12.9,17.4,17.8,23.1h28.1c-0.1-0.3-21.6-74.7-52.1-69.1
						C339.2,480.4,348.5,506.4,360.3,523.7z"/>
				</g>
			</g>
			<g>
				<g>
					<g>
						<g>
							<path fill="#AECEEA" d="M351.9,478.3c5.5,4.2,10.9,10.6,16.1,18.1c0.2,0.3,0.5,0.7,0.7,1.1c7.1,10.5,13.6,23,18.7,34
								c0.2,0.4,0.3,0.7,0.5,1.1c2.4,5.1,4.5,10.1,6.2,14.2c0,0.1,0.1-0.1,0.1,0h0.5h0.5c-4.5-10.7-11.3-26.2-19.4-40
								c-0.3-0.5-0.6-1-0.9-1.5c-6.7-11.2-14.2-21.5-21.8-27.5C352.8,477.9,352.3,478.1,351.9,478.3z"/>
						</g>
					</g>
				</g>
				<g>
					<g>
						<g>
							<path fill="#AECEEA" d="M362.2,526.4c0.7,1,1.5,2.1,2.2,3.1c5,3,10.8,3.8,15.4,3.8c4,0,7.1-0.6,8.1-0.8
								c0.2-0.1,0.4-0.1,0.4-0.1l-0.3-1.1c0,0-0.2,0.1-0.6,0.1C384.4,532,370.9,534.1,362.2,526.4z"/>
						</g>
					</g>
				</g>
				<g>
					<g>
						<g>
							<path fill="#AECEEA" d="M346.4,489.3c0,0.8,0.1,1.5,0.2,2.3c4.1,5.2,11.1,6.3,16.1,6.3c3.2,0,5.6-0.4,6-0.5
								c0,0-0.2-1.1-0.2-1.1c0,0-0.2,0-0.5,0.1C365.2,496.8,351.7,498.5,346.4,489.3z"/>
						</g>
					</g>
				</g>
				<g>
					<g>
						<g>
							<path fill="#AECEEA" d="M375.1,505.3c-0.1,0.8-0.3,1.2-0.3,1.3l1.1,0.3c0,0,0,0,0-0.1c0.3-1.1,2.8-12.5-2.1-22
								c-0.9-0.8-1.9-1.6-2.8-2.4C377,490.5,375.7,501.6,375.1,505.3C375.1,505.3,375.1,505.3,375.1,505.3z"/>
						</g>
					</g>
				</g>
			</g>
			<g>
				<g>
					<g>
						<g>
							<path fill="#AECEEA" d="M406.5,547.8h-1.1c-3.8-30.4-9.9-56.6-18.2-78.7c-0.1-0.4-0.3-0.8-0.4-1.2
								c-12.4-32.5-29.8-55.8-52-69.7l0.3-0.5v0l0.3-0.5c0,0,0.1,0,0.1,0.1c12,7.5,22.7,17.8,31.9,30.8c0.3,0.4,0.6,0.8,0.8,1.2
								c6.1,8.8,11.6,18.8,16.4,29.9c3,7.1,5.8,14.7,8.3,22.8c0.1,0.4,0.3,0.8,0.4,1.3C399.1,502.2,403.5,523.8,406.5,547.8z"/>
						</g>
					</g>
				</g>
				<g>
					<g>
						<g>
							<path fill="#AECEEA" d="M360.6,459.7c1,1.3,2,2.6,3,3.8c4.6,2.9,9.9,4.3,14.4,5c4.5,0.7,8.1,0.6,9.2,0.6c0.2,0,0.3,0,0.4,0
								l-0.1-1.2c0,0-0.3,0-0.8,0C383.3,468,369,467.7,360.6,459.7z"/>
						</g>
					</g>
				</g>
				<g>
					<g>
						<g>
							<path fill="#AECEEA" d="M367.4,428.1c-0.2,0.5-0.3,0.8-0.3,0.8l1.1,0.4c0,0,0,0,0-0.1c0.5-1.3,5.1-13.6,1.1-25
								c-0.6-0.5-1.2-1-1.9-1.5C372,413,368.5,424.9,367.4,428.1z"/>
						</g>
					</g>
				</g>
				<g>
					<g>
						<g>
							<path fill="#AECEEA" d="M392.3,482.7l0.8,0.9c0,0,0.1-0.1,0.3-0.3c1.5-1.4,8.2-8.9,8.1-21.7c-0.4-1.3-0.9-2.6-1.4-3.9
								c1.5,13.7-5,22-7.1,24.3C392.6,482.5,392.3,482.7,392.3,482.7z"/>
						</g>
					</g>
				</g>
			</g>
		</g>
		<g>
			<g>
				<g>
					<g>
						<path fill="#AECEEA" d="M648.4,547.5h-1.2c10.9-45.2,25.1-82.4,42.2-109.7c16.7-26.7,36.7-45.1,59.4-54.8l0.5,1.1
							C703.8,403.7,669.8,458.7,648.4,547.5z"/>
					</g>
				</g>
			</g>
			<g>
				<g>
					<g>
						<path fill="#AECEEA" d="M713.6,442c-1.2,1.1-2.4,2.3-3.6,3.4c-5.1,2.2-10.7,2.8-15.3,2.8c-4.6,0-8.2-0.6-9.4-0.8
							c-0.2,0-0.3-0.1-0.4-0.1l0.2-1.2c0,0,0.3,0.1,0.8,0.1C689.4,446.9,704,448.8,713.6,442z"/>
					</g>
				</g>
			</g>
			<g>
				<g>
					<g>
						<path fill="#AECEEA" d="M711.7,409.1c0.1,0.5,0.2,0.9,0.2,0.9l-1.2,0.3c0,0,0-0.1,0-0.1c-0.3-1.4-3-14.5,2.8-25.4
							c0.7-0.4,1.4-0.8,2.1-1.3C709.4,393.1,711.1,405.7,711.7,409.1z"/>
					</g>
				</g>
			</g>
			<g>
				<g>
					<g>
						<path fill="#AECEEA" d="M678,460.3l-0.9,0.8c0,0-0.1-0.1-0.2-0.3c-1.2-1.7-6.9-10.2-4.8-23.2c0.7-1.2,1.3-2.5,2-3.7
							c-3.6,13.6,1.6,23,3.4,25.6C677.8,460.1,678,460.3,678,460.3z"/>
					</g>
				</g>
			</g>
		</g>
		<g>
			<g>
				<g>
					<g>
						<g>
							<g>
								<path fill="#363347" d="M631.5,125.6v411.1c0,5.7-4.6,10.4-10.4,10.4H419c-5.7,0-10.4-4.7-10.4-10.4V125.6
									c0-5.8,4.7-10.4,10.4-10.4h202.1C626.8,115.2,631.5,119.9,631.5,125.6z"/>
							</g>
						</g>
					</g>
				</g>
			</g>
			<g>
				<g>
					<g>
						<g>
							<g>
								<path fill="#516A96" d="M624.1,125.6v411.1c0,5.7-4.6,10.4-10.4,10.4H411.6c-5.7,0-10.4-4.7-10.4-10.4V125.6
									c0-5.8,4.7-10.4,10.4-10.4h202.1C619.5,115.2,624.1,119.9,624.1,125.6z"/>
							</g>
						</g>
					</g>
				</g>
			</g>
			<g>
				<g>
					<g>
						<g>
							<g>
								<path fill="#EEF6FB" d="M599.7,508.5H425.6c-7.7,0-13.9-6.6-13.9-14.7V161.2c0-8.1,6.3-14.7,13.9-14.7h174.1
									c7.7,0,13.9,6.6,13.9,14.7v332.6C613.7,501.9,607.4,508.5,599.7,508.5z"/>
							</g>
						</g>
					</g>
				</g>
			</g>
			<g opacity="0.77">
				<path fill="#FFFFFF" d="M523.5,146.4l-81.4,362.1c0,0-17.6,0-18.1-0.1l81.4-362H523.5z"/>
			</g>
			<g opacity="0.77">
				<polygon fill="#FFFFFF" points="596,146.4 509.5,508.5 473.1,508.5 559.7,146.4 				"/>
			</g>
			<g>
				<g>
					<g>
						<g>
							<g>
								<path fill="#2D313D" d="M599.7,509H488.1v-1h111.6c7.4,0,13.4-6.4,13.4-14.2v-91h1v91C614.2,502.2,607.7,509,599.7,509z
									 M467.7,509h-30.1v-1h30.1V509z"/>
							</g>
						</g>
					</g>
				</g>
			</g>
		</g>
		<g>
			<g>
				<g>
					<g>
						<g>
							<g>
								<polygon fill="#F0AB8F" points="183.7,537.7 182,518.3 196.2,518.3 195.3,537.7 								"/>
							</g>
						</g>
					</g>
				</g>
				<g>
					<g>
						<g>
							<path fill="#E09B82" d="M182.1,518.6l0.9,10.9c5,0.3,9.8-0.3,12.7-0.8l0.5-11.2L182.1,518.6z"/>
						</g>
					</g>
				</g>
			</g>
			<g>
				<g>
					<g>
						<g>
							<path fill="#2D313D" d="M179.9,548h36.9c0-0.4,0.1-1.8-0.1-3.2c0,0-36.2,0.2-36.2,0.2L179.9,548z"/>
						</g>
					</g>
				</g>
				<g>
					<g>
						<g>
							<path fill="#2D313D" d="M180.4,545l36.2-0.2c-0.3-3.7-5.1-5.5-9.4-6.6c-0.3-0.1-0.6-0.1-0.9-0.2c-0.6-0.1-1.2-0.3-1.8-0.4
								c-0.3-0.1-0.6-0.1-0.9-0.2c-1.5-0.3-2.8-0.6-3.5-1c-0.7-0.3-1.4-0.8-2.1-1.2c-0.2-0.1-0.5-0.3-0.7-0.4
								c-0.7-0.4-1.1-0.7-1.1-0.7c-2.4,0.8-5.9,3-13.8-0.5l-0.2,1.4l-0.1,0.8L180.4,545z"/>
						</g>
					</g>
				</g>
				<g>
					<g>
						<g>
							<g>
								<g>
									<path fill="#2D313D" d="M206.3,537.9c0.5,1.3,0.6,2.6,0.6,2.6l0.7,0c0-0.1-0.1-1.2-0.5-2.4
										C206.9,538.1,206.6,538,206.3,537.9z"/>
								</g>
							</g>
						</g>
					</g>
					<g>
						<g>
							<g>
								<g>
									<path fill="#2D313D" d="M203.6,537.3c0.6,1.3,0.7,2.8,0.7,2.8l0.7,0c0-0.1-0.1-1.3-0.5-2.6
										C204.2,537.5,203.9,537.4,203.6,537.3z"/>
								</g>
							</g>
						</g>
					</g>
				</g>
				<g>
					<g>
						<g>
							<g>
								<path fill="#2D313D" d="M182.1,535.7c3.2,1.6,6,2.2,8.3,2.2c4.2,0,6.8-1.9,7.6-2.6c-0.2-0.1-0.5-0.3-0.7-0.4
									c-1.4,1.2-6.4,4.5-15.1,0.1L182.1,535.7z"/>
							</g>
						</g>
					</g>
				</g>
			</g>
			<g>
				<g>
					<path fill="#DF6659" d="M207.4,524.7c-13.4,2.1-25.9,3-35.4,0c0,0-8-89.9,6.2-172.5l28.4,0.1
						C206.7,352.2,217.6,451.5,207.4,524.7z"/>
				</g>
			</g>
			<g>
				<g>
					<g>
						<path fill="#2D313D" d="M210.2,270.1c5.3-0.4,8.8-2.1,10.4-5c2.4-4.3-0.4-9.7-0.5-9.9l-0.7,0.4c0,0.1,2.7,5.2,0.5,9.2
							c-1.5,2.7-4.8,4.2-9.8,4.7L210.2,270.1z"/>
					</g>
				</g>
			</g>
			<g>
				<g>
					<g>
						<g>
							<g>
								<polygon fill="#F0AB8F" points="266.8,537.7 260.7,518.3 274.8,518.3 279.2,537.7 								"/>
							</g>
						</g>
					</g>
				</g>
				<g>
					<g>
						<g>
							<path fill="#E09B82" d="M260.6,518.2l3.4,10.6c6.4,1.1,11.3,0.1,13.1-0.4l-2.4-10.8h-5.1L260.6,518.2z"/>
						</g>
					</g>
				</g>
			</g>
			<g>
				<g>
					<g>
						<path fill="#AECEEA" d="M191.7,294.9c0,0-38.3,7-34.8,44.9c1.4,15.7,13.3,26.6,13.3,26.6l4.4-13.3l15.3,5.2L191.7,294.9z"/>
					</g>
				</g>
			</g>
			<g>
				<g>
					<g>
						<polygon fill="#F0AB8F" points="210.2,299.9 210.8,279.1 198.7,277.2 192.7,297.1 						"/>
					</g>
				</g>
			</g>
			<g>
				<g>
					<g>
						<path fill="#F0AB8F" d="M206,286.4c-7.3-3.3-14.6-15.2-9.4-26.8c4.2-9.2,20.2-4,23.3,5C224.7,278.4,222.7,294,206,286.4z"/>
					</g>
				</g>
			</g>
			<g>
				<g>
					<g>
						<g>
							<path fill="#F0AB8F" d="M271.3,316.1c0.6-0.7,2.5-2.9,2.7-3.8c0.1-0.8,0.4-5.4,1.4-5.3c1,0.1,0.2,3.3,1,3.2
								c0.5,0,2.2-6.1,3.3-5.5c0.7,0.4-0.8,4-0.4,4c0.4,0.1,1.4-4.7,2.5-4.1c1.1,0.6-1.8,5.2-1.2,5.4c0.3,0.1,2.3-5.5,3.2-5
								c1.1,0.6-1.7,4.9-1.2,5.2c0.2,0.2,1-1.5,1.6-2.5c0.3-0.5,0.8-0.4,0.8,0.1c-0.2,4.3-5.5,9.7-5.8,10.4c-0.4,1-0.8,2-1.2,3
								L271.3,316.1z"/>
						</g>
					</g>
				</g>
			</g>
			<g>
				<g>
					<g>
						<path fill="#DF6659" d="M285.6,523.8c-13,1.8-25.1,2.3-35.6,0c-43.6-81-61.9-172.4-61.9-172.4h33.7
							C265.4,426.4,285.6,523.8,285.6,523.8z"/>
					</g>
				</g>
			</g>
			<g>
				<g>
					<g>
						<path fill="#AECEEA" d="M257.2,327.3l14.4-13.8l8.1,6.6c0,0-3.4,37.2-28.5,34.4c-17.7-2-29.2-36.2-29.2-36.2L257.2,327.3z"/>
					</g>
				</g>
			</g>
			<g>
				<g>
					<g>
						<path fill="#AECEEA" d="M169.8,376c30.4,13.9,74.7,1.7,74.7,1.7l-1.3-4.5l-0.2-0.7l-11.5-38.3l30.3-0.4
							c0,0-20.3-28.5-32.1-35.4c-3.1-1.8-7.2-3.2-11.9-4c-0.4-0.1-0.7-0.1-1.1-0.2c-7.6-1.2-16.5-1.2-24.6,0.6
							c-0.3,0.1-0.6,0.1-0.8,0.2c-4.5,1-8.8,2.6-12.4,4.7c0,0,2.2,12.2-0.9,20.5c-6.9,18.9-8,41.4-8.1,51c0,0.3,0,0.5,0,0.8
							C169.8,374.6,169.8,376,169.8,376z"/>
					</g>
				</g>
			</g>
			<g>
				<g>
					<path fill="#9CC0DB" d="M196.4,382.3c0.5,0,0.9,0.1,1.4,0.1c0.3,0,0.7,0,1,0.1c23.7,1.3,45.8-4.7,45.8-4.7l-1.4-4.5l-0.2-0.7
						l-8.9-29.9c-1.5-1.5-9.1-13.9-10.3-18.9c0,0-0.5,12.8,3.5,23.3c2.5,6.6,5.4,16.5,2,22.7C224.9,377.9,196.8,382.2,196.4,382.3z"
						/>
				</g>
			</g>
			<g>
				<g>
					<g>
						
							<rect x="253.3" y="313.3" transform="matrix(0.7752 -0.6317 0.6317 0.7752 -147.209 232.9161)" fill="#2D313D" width="0.8" height="20"/>
					</g>
				</g>
			</g>
			<g>
				<g>
					<g>
						<path fill="#2D313D" d="M212.9,287.9c3.8,0.3,6.1-1.5,6.2-1.6l-0.5-0.6c-0.2,0.1-4,3.2-10.3,0.1l-0.3,0.7
							C209.8,287.4,211.4,287.8,212.9,287.9z"/>
					</g>
				</g>
			</g>
			<g>
				<g>
					<g>
						<g>
							<path fill="#2D313D" d="M169.8,372.1c11.7,4.8,24.3,6.4,35.7,6.4c17.6,0,32.5-3.7,37.7-5.2l-0.2-0.7
								c-8.5,2.4-43.6,11-73.2-1.3C169.8,371.6,169.8,371.8,169.8,372.1z"/>
						</g>
					</g>
				</g>
			</g>
			<g>
				<g>
					<g>
						<path fill="#2D313D" d="M170.2,376c0-0.3,0.1-32.9,8-55.6l-0.7-0.3c-8,22.8-8.1,55.6-8.1,55.9H170.2z"/>
					</g>
				</g>
			</g>
			<g>
				<g>
					<g>
						<g>
							<path fill="#2D313D" d="M191.2,295c3.3,3.2,7.2,4.3,11,4.3c7.3,0,14.2-4,15.5-4.8c-0.4-0.1-0.7-0.1-1.1-0.2
								c-3.5,2-16.1,8.3-24.6,0.6C191.7,294.9,191.5,295,191.2,295z"/>
						</g>
					</g>
				</g>
			</g>
			<g>
				<g>
					<g>
						<g>
							<path fill="#2D313D" d="M262.8,548h36.9c0-0.4,0.1-1.8-0.1-3.2c0,0-36.2,0.2-36.2,0.2L262.8,548z"/>
						</g>
					</g>
				</g>
				<g>
					<g>
						<g>
							<path fill="#2D313D" d="M263.3,545l36.2-0.2c-0.3-3.7-5.1-5.5-9.4-6.6c-0.3-0.1-0.6-0.1-0.9-0.2c-0.6-0.1-1.2-0.3-1.8-0.4
								c-0.3-0.1-0.6-0.1-0.9-0.2c-1.5-0.3-2.8-0.6-3.5-1c-0.7-0.3-1.4-0.8-2.1-1.2c-0.2-0.1-0.5-0.3-0.7-0.4
								c-0.7-0.4-1.1-0.7-1.1-0.7c-2.4,0.8-5.9,3-13.8-0.5l-0.2,1.4l-0.1,0.8L263.3,545z"/>
						</g>
					</g>
				</g>
				<g>
					<g>
						<g>
							<g>
								<g>
									<path fill="#2D313D" d="M289.2,537.9c0.5,1.3,0.6,2.6,0.6,2.6l0.7,0c0-0.1-0.1-1.2-0.5-2.4
										C289.8,538.1,289.5,538,289.2,537.9z"/>
								</g>
							</g>
						</g>
					</g>
					<g>
						<g>
							<g>
								<g>
									<path fill="#2D313D" d="M286.5,537.3c0.6,1.3,0.7,2.8,0.7,2.8l0.7,0c0-0.1-0.1-1.3-0.5-2.6
										C287.1,537.5,286.8,537.4,286.5,537.3z"/>
								</g>
							</g>
						</g>
					</g>
				</g>
				<g>
					<g>
						<g>
							<g>
								<path fill="#2D313D" d="M264.9,535.7c3.2,1.6,6,2.2,8.3,2.2c4.2,0,6.8-1.9,7.6-2.6c-0.2-0.1-0.5-0.3-0.7-0.4
									c-1.4,1.2-6.4,4.5-15.1,0.1L264.9,535.7z"/>
							</g>
						</g>
					</g>
				</g>
			</g>
			<g>
				<g>
					<g>
						
							<rect x="224.7" y="326.6" transform="matrix(0.7561 -0.6545 0.6545 0.7561 -160.9539 227.7828)" fill="#2D313D" width="0.8" height="6.4"/>
					</g>
				</g>
			</g>
			<g>
				<g>
					<g>
						<path fill="#2D313D" d="M173.3,372h0.8c0-7.5,0.9-16.8,0.9-16.9l-0.8-0.1C174.2,355.1,173.3,364.5,173.3,372z"/>
					</g>
				</g>
			</g>
			<g>
				<g>
					<path fill="#2D313D" d="M165.5,311.5c7.2,5.9,26.1,7.7,35.3-6.9c6.8-10.8,6.4-24.2,5.8-28.1l3.1-6.1c0,0,11-2.9,10.3-15.1
						c0,0-1.3,0.7-4.7-0.1c-1.9-0.5-6.7-3.2-11.9-2.9c0,0,0,0,0,0c-4.7-0.1-14.7,1.6-18,16.5c-2.7,12.3-13.3,12-19,16.3
						C154.7,293.5,157.4,304.8,165.5,311.5z"/>
				</g>
			</g>
			<g>
				<g>
					<g>
						<path fill="#F0AB8F" d="M204.4,272.8c-0.3,1.9,1,3.6,2.9,3.9c1.9,0.3,3.6-1,3.9-2.9c0.3-1.9-1-3.6-2.9-3.9
							C206.5,269.7,204.7,271,204.4,272.8z"/>
					</g>
				</g>
			</g>
			<g>
				<g>
					<g>
						<path fill="#2D313D" d="M156.9,290.3c1.3-3.1,3.7-5.7,7.3-8c1.7-1.1,3.7-1.7,5.9-2.4c5.4-1.7,11.5-3.7,14.1-12.3
							c4.4-14.3,14.3-14.9,18.4-14.4l0.2,0c3.7,0.1,7.1,1.8,9.3,2.8c0.8,0.4,1.5,0.7,2,0.9l0.3-0.8c-0.4-0.1-1.1-0.5-1.9-0.8
							c-2.3-1.1-5.8-2.8-9.7-2.9l0,0c-4.3-0.4-14.7,0.2-19.3,15c-2.5,8.2-8.1,10-13.5,11.7c-2.2,0.7-4.3,1.4-6.1,2.5
							c-3.7,2.3-6.3,5.2-7.7,8.4L156.9,290.3z"/>
					</g>
				</g>
			</g>
			<g>
				<g>
					<path fill="#C9544B" d="M178.4,526c8.4,1.2,18.4,0.3,29-1.4c4-28.5,4.5-60.6,4-89.7c0,0.3-8.7-27.7-8.7-27.7s3.8,21.9,2.5,35.1
						c-1.3,13.6-6.3,17.6-8.2,33c-1.1,9,3.4,15.7,1.7,25.1c-1.7,9.9-9.3,16-16.7,22.6C180.9,524,179.6,525,178.4,526z"/>
				</g>
			</g>
			<g>
				<g>
					<g>
						<path fill="#2D313D" d="M211.8,436.6l0.8-0.3c-3.5-10.2-6.9-20.7-10.1-31.2l-0.8,0.2C204.9,415.9,208.3,426.4,211.8,436.6z"/>
					</g>
				</g>
			</g>
			<g>
				<g>
					<path fill="#C9544B" d="M248,520c0.7,1.3,1.3,2.5,2,3.8c10.5,2.3,22.6,1.8,35.6,0c0,0-9.2-44.4-28.6-96.3
						c-0.9,9.5,1.4,19.4,4.2,28.7c3.7,12.2,8.2,24.7,7,37.4c-0.8,9.2-5.6,19-13.6,24C252.7,518.7,250.4,519.4,248,520z"/>
				</g>
			</g>
			<g>
				<g>
					<g>
						<path fill="#2D313D" d="M270.1,467.4l0.8-0.2c-9.9-32.2-21.2-61.5-33.6-87.2l-0.8,0.4C248.9,405.9,260.2,435.2,270.1,467.4z"
							/>
					</g>
				</g>
			</g>
			<g>
				<g>
					<g>
						<path fill="#2D313D" d="M253.7,355.1c-0.9,0-1.8,0-2.7-0.2c-13.8-1.5-23.9-22.6-27.6-31.6l0.7-0.3c3.6,8.9,13.6,29.6,27,31.1
							c5.7,0.6,10.7-0.8,14.9-4.2c11.2-9.1,13.2-29.7,13.2-29.9l0.7,0.1c0,0.2-2.1,21-13.5,30.4
							C262.8,353.6,258.5,355.1,253.7,355.1z"/>
					</g>
				</g>
			</g>
		</g>
		<g>
			<g>
				<path fill="#FFFFFF" d="M308.5,166.3v46c0,6.2-5.1,11.3-11.3,11.3h-63L220.3,236v-12.4H220c-6.2,0-11.3-5.1-11.3-11.3v-46
					c0-6.2,5.1-11.3,11.3-11.3h77.2C303.5,155.1,308.5,160.1,308.5,166.3z"/>
			</g>
		</g>
		<g>
			<g>
				<g>
					<path fill="#363347" d="M250.6,195.8c3.6-0.8,6.5-2.8,7.6-5.2c0.7-1.7,0.6-3.5-0.4-5.2c-1.3-2.2-3.7-3.8-6.6-4.1
						c-3-0.4-6.5,0.5-9.1,2.3c-2.4,1.6-3.2,2.5-4.3,4.8l1.6,0.7c0.9-1.9,1.4-2.6,3.7-4.1c2.3-1.6,5.3-2.3,8-2
						c2.3,0.3,4.3,1.5,5.3,3.3c0.7,1.2,0.8,2.5,0.3,3.7c-0.9,1.9-3.3,3.6-6.4,4.2L250.6,195.8z"/>
				</g>
			</g>
			<g>
				<g>
					<path fill="#363347" d="M231.6,202.6c-2-2.2-3.2-5-3.4-7.9c-0.3-0.6-0.6-1.3-0.8-1.9c-1.4-3.9-0.9-8,1.2-11.5
						c4.7-7.7,17-12.3,28.1-10.6c10.9,1.7,19.1,9.2,19.6,17.8c0.5,8.2-6.4,16.4-16.2,19.7c-3.1,1-6.3,1.5-9.6,1.5
						C243,209.6,235.7,207.1,231.6,202.6z M230.1,182.1c-1.6,2.6-2.1,5.6-1.5,8.6c0.9-3.5,3-6.7,6.2-9.2c2.8-2.2,7.9-4.5,10.7-4.7
						c3.9-0.3,9.5-0.3,14.3,1.9c4,1.8,6.7,5.1,7.5,9.1c0.7,3.7-0.5,7.5-3.2,10.4c-5.6,5.9-17.3,8-25.9,4.9c-2.9-1.1-5.4-2.7-7.3-4.7
						c0.5,1.1,1.2,2.2,2.1,3.2c5.4,6,17.1,8.2,26.7,5.1c9.1-3,15.5-10.5,15.1-17.9c-0.4-7.7-8.2-14.6-18.1-16.2
						c-1.4-0.2-2.9-0.3-4.4-0.3C243,172,233.8,176.1,230.1,182.1z M245.7,178.5c-2.5,0.2-7.2,2.3-9.8,4.3l0,0
						c-3.5,2.7-5.6,6.4-5.9,10.2c0,0.4,0,0.8,0,1.2c1.8,3.2,4.9,5.8,8.8,7.2c7.9,2.9,19,0.9,24.1-4.4c2.4-2.5,3.4-5.7,2.8-8.9
						c-0.6-3.4-3-6.2-6.5-7.8c-2.8-1.3-6.3-1.9-10.2-1.9C247.8,178.3,246.8,178.4,245.7,178.5z"/>
				</g>
			</g>
			<g>
				<g>
					<g>
						<path fill="#363347" d="M286.1,196.8c2.4-2,4.2-4.5,5.1-7.3c1.6-4.7,0.8-9.5-2.3-13.2c-2.1-2.5-6.2-4.9-11.1-6.5l-0.5,1.6
							c4.6,1.5,8.4,3.7,10.3,6c2.7,3.3,3.4,7.5,2,11.6c-0.9,2.5-2.4,4.7-4.6,6.6L286.1,196.8z"/>
					</g>
				</g>
				<g>
					<g>
						<path fill="#363347" d="M272.4,204.3c8,0,13.6-2.8,16.5-6.3c1.9-2.2,2.7-5.1,2.3-8.8c-0.5-4.7-3.5-9.1-8.2-11.6l-0.8,1.5
							c4.2,2.3,6.9,6.1,7.3,10.3c0.3,3.2-0.3,5.6-1.9,7.5c-4.1,4.8-13.8,8.2-28.6,3.4l-0.5,1.6C263.7,203.5,268.4,204.3,272.4,204.3
							z"/>
					</g>
				</g>
			</g>
			<g>
				<g>
					<path fill="#363347" d="M241.5,203.9l1.3-1.1c5.1,5.7,16.7,9.8,26.5,6.6c9.6-3.1,16.6-10.8,16.2-17.9
						c-0.4-7.7-8.2-14.6-18.1-16.2c-10.2-1.6-22.1,2.7-26.4,9.8c-1.9,3.1-2.2,6.6-1.1,10c1.4,4.1,5,7.5,9.7,9.2
						c7.9,2.9,19,0.9,24.1-4.4c2.4-2.5,3.4-5.7,2.8-8.9c-0.6-3.4-3-6.2-6.5-7.8c-3.9-1.8-9.1-2.1-13.2-0.7c-4.1,1.4-7,4.4-7.3,7.5
						c1-1.4,2.2-2.5,3.5-3.5c2.7-1.8,6.1-2.7,9.1-2.3c2.9,0.3,5.3,1.9,6.6,4.1c1,1.7,1.1,3.5,0.4,5.2c-1.7,3.8-7.4,6.2-12.6,5.4
						c-3.2-0.5-5.9-2.2-7.4-4.4c-0.8,2.2-0.8,4.1-0.1,5.7c0.4,0.9,1.2,1.8,2.3,2.4l-0.9,1.4c-1.3-0.8-2.3-1.9-2.9-3.1
						c-1.1-2.3-1-5.1,0.4-8.2c0.1-0.1,0.1-0.2,0.2-0.4c-0.2-0.7-0.3-1.4-0.3-2.2c0.1-3.8,3.6-7.7,8.5-9.4c4.6-1.6,10.1-1.3,14.5,0.7
						c4,1.8,6.7,5.1,7.5,9.1c0.7,3.7-0.5,7.5-3.2,10.4c-5.6,5.9-17.3,8-25.9,4.9c-5.2-1.9-9.1-5.7-10.7-10.3
						c-1.4-3.9-0.9-8,1.2-11.5c4.7-7.7,17-12.3,28.1-10.6c10.9,1.7,19.1,9.2,19.6,17.8c0.4,7.8-7,16.2-17.4,19.6
						c-2.5,0.8-5.1,1.2-7.7,1.2C253.8,212.1,245.6,208.5,241.5,203.9z M253.9,187.9c-1.7,1.1-3,2.7-4,4.6c1,2.3,3.6,4.2,6.8,4.7
						c4.4,0.7,9.4-1.3,10.8-4.4c0.5-1.2,0.4-2.5-0.3-3.7c-1-1.7-3-3-5.3-3.3c-0.4,0-0.8-0.1-1.2-0.1
						C258.3,185.8,255.8,186.5,253.9,187.9z"/>
				</g>
			</g>
			<g>
				<g>
					<path fill="#363347" d="M235.7,196c-2.3-2.6-3.2-6.1-2.6-10.1c0.2-1.3,0.6-2.6,1.1-3.9c-0.5-3.1,0.1-6.3,1.8-9
						c4.5-7.3,15.8-11.1,27.5-9.3c11.6,1.9,19.7,8.5,20.2,16.5c0.5,8.2-6.4,16.4-16.2,19.7c-3.9,1.3-8.5,1.9-13,1.9
						C246.9,201.8,239.3,199.9,235.7,196z M237.6,173.9c-1,1.6-1.5,3.3-1.7,5.1c1.9-3.1,4.8-5.7,8.1-7.5l0.8,1.5
						c-3.8,2.1-7,5.5-8.7,9.3c0.1,0.6,0.3,1.1,0.5,1.7c1.4,4.1,5,7.5,9.7,9.2c7.9,2.9,19,0.9,24.1-4.4c2.4-2.5,3.4-5.7,2.8-8.9
						c-0.6-3.4-3-6.2-6.5-7.8c-3.9-1.8-9.1-2.1-13.2-0.7c-4.2,1.4-7.2,4.6-7.3,7.8l-1.7,0c0.1-3.8,3.6-7.7,8.5-9.4
						c4.6-1.6,10.1-1.3,14.5,0.7c4,1.8,6.7,5.1,7.5,9.1c0.7,3.7-0.5,7.5-3.2,10.4c-5.6,5.9-17.3,8-25.9,4.9c-5-1.8-8.8-5.4-10.5-9.8
						c-0.1,0.4-0.2,0.8-0.3,1.2c-0.6,3.4,0.2,6.5,2.1,8.7c5.3,5.8,20.2,6.6,30.1,3.4c9.1-3,15.5-10.5,15.1-17.9
						c-0.4-7.2-7.9-13.2-18.7-14.9c-1.8-0.3-3.7-0.4-5.5-0.4C249,164.9,241,168.3,237.6,173.9z"/>
				</g>
			</g>
			<g>
				<path fill="#363347" d="M250.9,215.9c0.7-0.6,1.4-1.3,2.2-1.9c3-2.4,6.3-4,9.7-5c16.2-4.5,14-15.6,13.9-16.1l1.7-0.4
					c0,0.1,2.7,13.2-15.1,18.1c-3.2,0.9-6.3,2.5-9.1,4.7c-0.7,0.6-1.5,1.2-2.1,1.8L250.9,215.9z"/>
			</g>
		</g>
		<g>
			<g>
				<path fill="#2D313D" d="M220.8,236h-1v-11.9h-0.4c-5,0-9.5-3.2-11.1-7.9l0.9-0.3c1.5,4.3,5.6,7.3,10.2,7.3h1.4V236z"/>
			</g>
			<g>
				<path fill="#2D313D" d="M208.6,206.8h-1v-40.5c0-6.5,5.3-11.8,11.8-11.8H238v1h-18.6c-5.9,0-10.8,4.8-10.8,10.8V206.8z"/>
			</g>
			<g>
				<rect x="248.6" y="154.6" fill="#2D313D" width="17.8" height="1"/>
			</g>
		</g>
		<g>
			<g>
				<path fill="#5D76AD" d="M593.8,174.8v7.8H333.3v-7.8c0-6.8,5.7-12.3,12.7-12.3h235.1C588.1,162.5,593.8,168,593.8,174.8z"/>
			</g>
			<g>
				<path fill="#AECEEA" d="M593.8,182.6v187.8c0,6.7-5.7,12.3-12.7,12.3H346c-7,0-12.7-5.5-12.7-12.3V182.6H593.8z"/>
			</g>
			<g>
				<g>
					<g>
						<path fill="#2D313D" d="M462.1,181.5c0,0-4.6-5.4-2-9.1c0,0-7.4-16.9,8.1-17.5c0,0,2.7-15.1,27.4-1.6c0,0,20.8-3.5,12.2,29.5
							c1.2,7.3,1.9,16-6.3,16.2L462.1,181.5z"/>
					</g>
				</g>
			</g>
			<g>
				<g>
					<g>
						<g>
							<g>
								<path fill="#F0AB8F" d="M505.5,219.8l-4.2-30.5l-21.7,12.6l-2,18.5l-10.4,3.7c7.2,9.3,33.1,11.7,45.1-2.3L505.5,219.8z"/>
							</g>
						</g>
					</g>
				</g>
				<g>
					<g>
						<g>
							<g>
								<path fill="#2D313D" d="M477.9,216c12.8-4.2,15.4-14.5,15.4-14.5l-14.4,4.4L477.9,216z"/>
							</g>
						</g>
					</g>
				</g>
			</g>
			<g>
				<g>
					<g>
						<path fill="#F0AB8F" d="M498.3,183.4c0,0,2.3-14.8-6.3-19.8c-8.6-4.9-25.6-5.2-29,6.5c-2,6.6-0.4,24.3,1.1,31.4
							c1.4,6.4,6.2,11.1,12.5,11.1c15,0,21.1-19,21.1-19L498.3,183.4z"/>
					</g>
				</g>
			</g>
			<g>
				<g>
					<g>
						<g>
							<path fill="#253B3E" d="M542.9,383h-98.7c1.5-14,2.7-25.1,3.5-31.7h93.4L542.9,383z"/>
						</g>
					</g>
				</g>
			</g>
			<g>
				<g>
					<g>
						<path fill="#5D76AD" d="M509.3,220.6c0,0-33.4,15.7-35.8,1.2l-5.4,1.8l-9.2,137.3c16.6,5.6,40.5,3.7,66,0l0.9-126.3l-7.1-11.9
							L509.3,220.6z"/>
					</g>
				</g>
			</g>
			<g>
				<g>
					<g>
						<path fill="#FFFFFF" d="M473.9,383.5h-36.1l3.6-52.7l9-85.4c0.1,0.9,23.1-23.6,23.1-23.6s0.6,27.8,1.4,47
							C476.2,298.1,473.9,383.5,473.9,383.5z"/>
					</g>
				</g>
			</g>
			<g>
				<g>
					<g>
						<path fill="#FFFFFF" d="M500.9,383.5c0,0-1.8-86.9-1-113.1c0.7-21.3,4.2-36,6.7-43.9c0.7-2.1,1.2-3.6,1.6-4.8
							c0.1-0.3,0.2-0.6,0.3-0.8c0-0.1,0.1-0.1,0.1-0.2c0.1-0.3,0.2-0.5,0.3-0.7c0.1-0.2,0.2-0.4,0.2-0.4l1.2,1.1l0.5,0.5l0.9,0.9
							l14.2,13.9l2.3,2.3l0.8,0.8l12.7,12.4l7.6,43.5l6.2,35.5l4.5,26.1v0l0.1,0.8l4.4,26H500.9z"/>
					</g>
				</g>
			</g>
			<g>
				<g>
					<g>
						<g>
							<path fill="#F0AB8F" d="M404.1,268.6c-1.1-1.3-4.8-5.2-5.1-6.8c-0.3-1.5-1-9.9-2.8-9.6c-1.9,0.3-0.2,6-1.7,6
								c-0.9,0-4.4-11.1-6.3-9.9c-1.3,0.8,1.8,7.2,1,7.4c-0.7,0.2-2.8-8.5-4.8-7.5c-2,1.1,3.5,9.4,2.6,9.8c-0.5,0.2-4.6-9.9-6.1-8.9
								c-2.1,1.2,3.5,8.9,2.6,9.5c-0.4,0.3-1.9-2.7-3-4.4c-0.6-0.9-1.5-0.6-1.4,0.2c0.7,7.9,10.7,17.4,11.2,18.7
								c0.8,1.9,1.5,3.7,2.3,5.4L404.1,268.6z"/>
						</g>
					</g>
				</g>
			</g>
			<g>
				<g>
					<g>
						<g>
							<path fill="#5D567C" d="M483.1,228.6c10.6,0,25.7-7,26.5-7.4l-0.5-1.1c-0.2,0.1-23.1,10.7-31.8,6.1c-1.8-0.9-2.8-2.4-3.1-4.5
								l-1.2,0.2c0.4,2.5,1.7,4.3,3.8,5.4C478.4,228.2,480.6,228.6,483.1,228.6z"/>
						</g>
					</g>
				</g>
			</g>
			<g>
				<g>
					<g>
						<path fill="#F0AB8F" d="M498.4,194.8c0,0,7.8,0.7,7.7-6.2c-0.1-6.2-7.6-7-9.3-3.9L498.4,194.8z"/>
					</g>
				</g>
			</g>
			<g>
				<g>
					<g>
						<path fill="#FFFFFF" d="M456.9,323.7c0,0-40.1,25.6-57.4-17.7c-4.5-11.4-10.5-30.4-10.5-30.4l14.5-11.2l21,20.6
							c0,0,5.8-16.9,10.2-30.5c6-18.3,19.7-28.3,39-33.5L456.9,323.7z"/>
					</g>
				</g>
			</g>
			<g>
				<g>
					<g>
						<path fill="#2D313D" d="M499.9,182.9c0,0-3.1,1.3-2.6,4.5c0,0-3.9,0.3-4-3.6s-0.5-10.3-0.5-10.3s-1.1-5.1-8.3-5.4
							c0,0-2.7,7.9-9.9,5.2c0,0-4,7.3-12.5,3.3c0,0-2.7-15.8,11.4-18.5c14.1-2.7,23.4,1.1,24.5,6
							C499.3,170.3,499.9,182.9,499.9,182.9z"/>
					</g>
				</g>
			</g>
			<g>
				<g>
					<g>
						<g>
							<g>
								<path fill="#2D313D" d="M474,268.6c0-11.2-6.2-24.8-7.1-26.7l1.7-3.7l-5-0.5c1.7-5,6.9-10.3,7-10.4l-0.8-0.8
									c-0.2,0.2-5.9,6-7.4,11.5l-0.2,0.6l4.8,0.5l-1.3,2.8l0.1,0.2c0.1,0.1,7.1,14.7,7.1,26.5H474z"/>
							</g>
						</g>
					</g>
				</g>
			</g>
			<g>
				<g>
					<g>
						<g>
							<g>
								
									<rect x="434.9" y="301.5" transform="matrix(0.1151 -0.9933 0.9933 0.1151 98.7385 714.9058)" fill="#433A60" width="31.5" height="1.1"/>
							</g>
						</g>
					</g>
				</g>
			</g>
			<g>
				<g>
					<g>
						<g>
							<path fill="#323847" d="M471.3,293.5c-1.3,0-2.3,1.1-2.3,2.3c0,1.3,1.1,2.3,2.3,2.3c1.3,0,2.3-1,2.3-2.3
								C473.7,294.5,472.6,293.5,471.3,293.5z M471.3,296.9c-0.6,0-1.1-0.5-1.1-1.1c0-0.6,0.5-1.1,1.1-1.1c0.6,0,1.1,0.5,1.1,1.1
								C472.4,296.4,471.9,296.9,471.3,296.9z"/>
						</g>
					</g>
				</g>
			</g>
			<g>
				<g>
					<g>
						<path fill="#2D313D" d="M508.3,183.1c0.3-0.7,7.8-16.4,2.1-25c-2.6-3.9-7.5-5.7-14.6-5.3c-0.9-1-4.9-5.3-11.3-5.8
							c-5.5-0.4-11.1,2.1-16.7,7.5l0.7,0.8c5.4-5.2,10.7-7.6,15.9-7.2c6.6,0.5,10.7,5.5,10.7,5.6l0.2,0.2l0.3,0
							c6.8-0.4,11.5,1.2,13.9,4.9c5.4,8.1-2.1,23.8-2.1,23.9L508.3,183.1z"/>
					</g>
				</g>
			</g>
			<g>
				<g>
					<g>
						<path fill="#2D313D" d="M453.3,262.1c0,0,0.5-3.7,0.5-8.3c0-6-0.9-14.1-5.1-18.4l-0.8,0.8c4,4,4.8,11.8,4.8,17.6
							c0,4.5-0.5,8.1-0.5,8.1L453.3,262.1z"/>
					</g>
				</g>
			</g>
			<g>
				<path fill="#DF6659" d="M484.5,336.1l-47.1-0.4c-1.6,0-2.9-1.2-3.1-2.7l-9.1-68.2c-0.3-1.9,1.2-3.6,3.1-3.5l47.1,0.4
					c1.6,0,2.9,1.2,3.1,2.7l9.1,68.2C487.9,334.5,486.4,336.1,484.5,336.1z"/>
			</g>
			<g>
				<g>
					<g>
						<g>
							<path fill="#F0AB8F" d="M490.2,297.8c-1.6-0.5-6.8-1.9-7.9-3.1c-1.1-1.1-6.1-7.9-7.4-6.7c-1.4,1.3,3,5.2,1.7,6
								c-0.8,0.5-9.6-7.1-10.6-5.1c-0.7,1.3,5.3,5.2,4.7,5.8c-0.6,0.5-6.9-5.8-8-3.9c-1.1,2,7.9,6.1,7.4,7c-0.3,0.4-9.1-6-9.9-4.4
								c-1.1,2.1,7.6,5.7,7.2,6.8c-0.2,0.5-3.1-1.3-4.9-2.2c-1-0.5-1.6,0.3-1.1,0.9c4.7,6.4,18.3,9.2,19.4,10
								c1.6,1.2,3.2,2.3,4.8,3.4L490.2,297.8z"/>
						</g>
					</g>
				</g>
			</g>
			<g>
				<g>
					<g>
						<path fill="#FFFFFF" d="M530.1,299.6l-42.4-5.5l-6.9,19.2c0,0,21.5,19.5,46.7,26.7c10.8,3,25.1,4.6,35.8-3.7
							c23.5-18.3,12.9-57.6-7.2-92c-11.4-19.5-47-24.5-47-24.5L530.1,299.6z"/>
					</g>
				</g>
			</g>
			<g>
				<g>
					<g>
						<g>
							<g>
								<path fill="#2D313D" d="M502.1,270c3.7-18.7,12.9-27.2,13-27.3l0.3-0.3l-2.3-4.5l5,0.1l-0.1-0.6c-0.8-8-7.1-13.7-7.4-13.9
									l-0.7,0.8c0.1,0.1,6,5.3,7,12.6l-5.6-0.1l2.7,5.4c-1.7,1.6-9.6,10.2-13,27.6L502.1,270z"/>
							</g>
						</g>
					</g>
				</g>
			</g>
			<g>
				<g>
					<g>
						<path fill="#2D313D" d="M525.5,261.9l1.1-0.2c-0.5-3.2-0.7-6.1-0.7-8.8c0-20.2,13.5-20.7,14.1-20.7l0-1.1
							c-0.2,0-15.2,0.5-15.2,21.9C524.7,255.7,525,258.7,525.5,261.9z"/>
					</g>
				</g>
			</g>
			<g>
				
					<rect x="508.4" y="275.5" transform="matrix(0.1295 -0.9916 0.9916 0.1295 148.6148 763.0135)" fill="#2D313D" width="1" height="42.8"/>
			</g>
			<g>
				<path fill="#2D313D" d="M543.6,342.9c-5,0-10.4-0.8-16.3-2.5l0.3-1c11.3,3.2,21,3.3,28.7,0.2c2.4-1,4.7-2.2,6.7-3.8l0.6,0.8
					c-2.1,1.6-4.4,3-6.9,4C552.8,342.1,548.5,342.9,543.6,342.9z"/>
			</g>
			<g>
				<path fill="#2D313D" d="M527.4,340.4c-25-7.1-46.7-26.6-46.9-26.8l0.7-0.7c0.2,0.2,21.7,19.6,46.5,26.5L527.4,340.4z"/>
			</g>
			<g>
				
					<rect x="532.5" y="275.3" transform="matrix(0.978 -0.2084 0.2084 0.978 -48.1592 117.3967)" fill="#2D313D" width="1" height="23.8"/>
			</g>
			<g>
				<g>
					<path fill="#FFFFFF" d="M354.5,172.6c0,2.4-2,4.4-4.4,4.4s-4.4-2-4.4-4.4c0-2.4,2-4.4,4.4-4.4S354.5,170.1,354.5,172.6z"/>
				</g>
				<g>
					<path fill="#FFFFFF" d="M367.4,172.6c0,2.4-2,4.4-4.4,4.4c-2.4,0-4.4-2-4.4-4.4c0-2.4,2-4.4,4.4-4.4
						C365.4,168.2,367.4,170.1,367.4,172.6z"/>
				</g>
				<g>
					<path fill="#FFFFFF" d="M380.2,172.6c0,2.4-2,4.4-4.4,4.4c-2.4,0-4.4-2-4.4-4.4c0-2.4,2-4.4,4.4-4.4
						C378.3,168.2,380.2,170.1,380.2,172.6z"/>
				</g>
			</g>
			<g>
				<path fill="#2D313D" d="M441.8,264.7c-1,0-1.9-0.7-2-1.7l-0.6-4.4c-0.1-0.9,0.6-1.6,1.4-1.6l21.3,0.2c0.7,0,1.3,0.5,1.4,1.2
					l0.5,4c0.2,1.2-0.8,2.3-2,2.3H441.8z"/>
			</g>
			<g>
				
					<rect x="433.9" y="293.3" transform="matrix(0.9912 -0.1325 0.1325 0.9912 -35.5902 60.2074)" fill="#2D313D" width="1" height="8.3"/>
			</g>
			<g>
				<path fill="#2D313D" d="M450.4,331.2l-8.9-0.1c-1.8,0-3.3-1.4-3.6-3.2l-2.8-20.9l1-0.1l2.8,20.9c0.2,1.3,1.3,2.3,2.6,2.3
					l8.9,0.1L450.4,331.2z"/>
			</g>
			<g>
				
					<rect x="461.7" y="325.2" transform="matrix(1.370355e-02 -0.9999 0.9999 1.370355e-02 125.0281 788.4564)" fill="#2D313D" width="1" height="11.3"/>
			</g>
			<g>
				<rect x="343.5" y="182.1" fill="#2D313D" width="108.1" height="1"/>
			</g>
			<g>
				<path fill="#2D313D" d="M594.3,174.8h-1c0-6.5-5.5-11.8-12.2-11.8h-56.2v-1h56.2C588.4,162,594.3,167.8,594.3,174.8z"/>
			</g>
			<g>
				<path fill="#2D313D" d="M333.8,174.8h-1c0-7,5.9-12.8,13.2-12.8h98.5v1H346C339.2,163,333.8,168.3,333.8,174.8z"/>
			</g>
			<g>
				<rect x="332.8" y="213.8" fill="#2D313D" width="1" height="28.1"/>
			</g>
			<g>
				<polygon fill="#2D313D" points="594.3,370.4 593.3,370.4 593.3,183.1 519.6,183.1 519.6,182.1 594.3,182.1 				"/>
			</g>
			<g>
				<path fill="#2D313D" d="M581.1,383.1H346c-7.3,0-13.2-5.7-13.2-12.8V259.3h1v111.1c0,6.5,5.5,11.8,12.2,11.8h235.1V383.1z"/>
			</g>
		</g>
		<g>
			<rect x="148.7" y="546.8" fill="#2D313D" width="601.1" height="2"/>
		</g>
		<g>
			
				<rect x="276.8" y="415.5" transform="matrix(0.9637 -0.267 0.267 0.9637 -100.8489 91.2728)" fill="#FFFFFF" width="16.9" height="2"/>
		</g>
		<g>
			
				<rect x="676.9" y="180.5" transform="matrix(0.5152 -0.857 0.857 0.5152 166.6708 672.5365)" fill="#8DBEE2" width="2" height="16.9"/>
		</g>
		<g>
			
				<rect x="279" y="113.3" transform="matrix(0.7071 -0.7071 0.7071 0.7071 -4.068 233.64)" fill="#8DBEE2" width="2" height="16.9"/>
		</g>
		<g opacity="0.6">
			
				<rect x="273.2" y="248.6" transform="matrix(0.9444 -0.3287 0.3287 0.9444 -69.2403 104.4132)" fill="#DF6659" width="2" height="16.9"/>
		</g>
		<g opacity="0.6">
			
				<rect x="323.4" y="414.3" transform="matrix(0.9396 -0.3423 0.3423 0.9396 -125.1149 136.5609)" fill="#DF6659" width="2" height="16.9"/>
		</g>
		<g>
			
				<rect x="498.6" y="93.1" transform="matrix(0.5733 -0.8194 0.8194 0.5733 139.2497 455.59)" fill="#FFFFFF" width="16.9" height="2"/>
		</g>
		<g opacity="0.6">
			
				<rect x="644.5" y="218.5" transform="matrix(0.3278 -0.9447 0.9447 0.3278 231.5137 764.382)" fill="#DF6659" width="16.9" height="2"/>
		</g>
		<g>
			<g>
				<g>
					<g>
						<path fill="#AECEEA" d="M365.8,63.8v48.3c0,6.6,5.3,11.9,11.9,11.9h66.2l14.6,13v-13h0.3c6.6,0,11.9-5.3,11.9-11.9V63.8
							c0-6.6-5.3-11.9-11.9-11.9h-81.2C371.1,52,365.8,57.3,365.8,63.8z"/>
					</g>
				</g>
				<g>
					<g>
						<rect x="384" y="68.4" fill="#FFFFFF" width="68.5" height="2"/>
					</g>
					<g>
						<rect x="384" y="80.9" fill="#FFFFFF" width="68.5" height="2"/>
					</g>
					<g>
						<rect x="384" y="93.4" fill="#FFFFFF" width="68.5" height="2"/>
					</g>
					<g>
						<rect x="384" y="105.9" fill="#FFFFFF" width="48.7" height="2"/>
					</g>
				</g>
			</g>
			<g>
				<g>
					<path fill="#2D313D" d="M366.3,112.2h-1V63.8c0-6.8,5.5-12.4,12.4-12.4h81.2v1h-81.2c-6.3,0-11.4,5.1-11.4,11.4V112.2z"/>
				</g>
				<g>
					<path fill="#2D313D" d="M459,138.1l-15.4-13.7l0.7-0.7l13.8,12.2v-12.4h0.8c6.3,0,11.4-5.1,11.4-11.4V63.8h1v48.3
						c0,6.8-5.4,12.3-12.2,12.4V138.1z"/>
				</g>
				<g>
					<rect x="377.6" y="123.5" fill="#2D313D" width="52.7" height="1"/>
				</g>
			</g>
		</g>
	</g>
</g>
</svg>
