<?xml version="1.0" encoding="utf-8"?>
<!-- Generator: Adobe Illustrator 25.3.1, SVG Export Plug-In . SVG Version: 6.00 Build 0)  -->
<svg version="1.1" xmlns="http://www.w3.org/2000/svg" xmlns:xlink="http://www.w3.org/1999/xlink" x="0px" y="0px"
	 viewBox="0 0 1200 1200" enable-background="new 0 0 1200 1200" xml:space="preserve">
<g id="BG" display="none">
	
		<rect y="0" transform="matrix(-1.836970e-16 1 -1 -1.836970e-16 1200 -1.705303e-12)" display="inline" fill="#FFF1F0" width="1200" height="1200"/>
</g>
<g id="Design">
	<g>
		<path fill="#FAF0F0" d="M274.76,670.29c0.7-10.46,5.87-19.37,8.13-29.4c1.5-6.67,2.51-13.86,6.27-19.64
			c-12.5-2.99-26.54,0.36-35.98,9.17c-5.51-19.43-26.67-33.04-46.64-29.99c-19.97,3.05-36.1,22.36-35.56,42.55
			c-15.36-12.19-39.06-12.37-54.6-0.42c-13.15,10.11-19.58,28.3-16.25,44.49c3.44,16.72,22.08,12.26,35.62,12.68l60.75,1.89
			c31.21,0.97,62.41,1.94,93.62,2.91C280.01,696.37,273.85,683.71,274.76,670.29z"/>
		<path fill="#ED9E8E" d="M728.47,224.95c87.25,35.14,150.91,122.67,157.45,216.5c1.98,28.36-1.19,58.03-15.62,82.52
			c-14.43,24.49-41.87,42.64-70.18,40.05c-22.15-2.03-41.25-15.73-59.13-28.95c-70.05-51.78-140.1-103.56-210.15-155.35
			c-18.37-13.58-37.08-27.5-50.17-46.22c-10.77-15.41-22.45-44.28-12.53-62.82c8.48-15.85,35.66-28.01,51.04-35.7
			c41-20.48,87.51-29.85,133.24-27C678.46,209.6,704.26,215.21,728.47,224.95z"/>
		<g>
			<g>
				<path fill="#D07C85" d="M480.33,898.01h-7.8l-0.19-24.09c-3.54-71.4-34.46-101.24-52.58-112.67
					c-21.85-13.78-27.55-15.01-44.47-18.67c-4.72-1.02-10.59-2.29-17.84-4.06c-3.24-0.79-6.49-1.54-9.74-2.3
					c-13.73-3.18-27.92-6.46-40.99-12.72c-19-9.11-32.18-23.67-36.18-39.97c-4.15-16.92,2.89-34.43,9.11-49.89
					c0.9-2.25,1.8-4.47,2.65-6.67c2.05-5.28,1.39-11.51-1.71-16.26c-0.82-1.25-1.83-2.46-2.9-3.74c-1.54-1.84-3.14-3.75-4.41-6.07
					c-3.24-5.95-3.36-13.4-0.3-19.45c1.54-3.04,4.22-5.88,7.39-8.04c-2.12-1.65-3.9-3.73-5.18-6.12c-3.83-7.2-3.23-14.43,1.54-18.42
					c7.79-6.52,14.4-12.55,16.4-20.44c0.69-2.7,0.72-4.82,0.05-7.6c-7.52-5.04-15.8-10.79-21.74-18.69
					c-7.29-9.7-9.57-21.6-5.95-31.05c3.59-9.38,12.05-15.3,18.84-20.05c5.6-3.91,11.4-7.61,17.02-11.19
					c15.65-9.97,30.43-19.38,41.56-33.37c8.83-11.09,13.64-24.44,18.74-38.58c2.07-5.74,4.21-11.67,6.63-17.39
					c12.07-28.52,31.49-52.81,50.28-76.31c21.07-26.36,60.57-51.21,72.17-58.19c59.52-35.85,107.81-37.03,160.3-34.93
					c60.33,2.41,118.41,21.72,163.56,54.37c31.68,22.91,58.55,53.8,77.71,89.32c19.16,35.52,30.21,74.94,31.96,113.99
					c1.75,39.06-5.74,79.3-21.65,116.39c-15.91,37.09-39.92,70.25-69.42,95.9c-25.27,21.97-40.52,37.16-62.74,62.49
					c-39.03,44.5-47.87,112.59-21.52,165.59l-7.16,3.56c-27.76-55.82-18.44-127.55,22.66-174.42c22.49-25.64,37.92-41.01,63.5-63.25
					c28.6-24.86,51.88-57.03,67.32-93.02c15.44-35.99,22.7-75.02,21.01-112.88c-1.69-37.86-12.41-76.09-31-110.55
					c-18.59-34.46-44.65-64.42-75.36-86.63c-43.88-31.74-100.42-50.51-159.19-52.86c-62.04-2.48-103.18,2.07-155.85,33.79
					c-11.32,6.81-49.81,31.02-70.05,56.34c-18.45,23.07-37.52,46.93-49.16,74.43c-2.33,5.52-4.44,11.35-6.47,16.98
					c-5.09,14.12-10.36,28.73-20.01,40.85c-11.96,15.03-28.01,25.25-43.52,35.13c-5.54,3.53-11.28,7.18-16.73,11
					c-7.24,5.07-13.44,9.79-15.95,16.35c-3.16,8.25,0.45,17.48,4.88,23.38c5.46,7.26,13.38,12.56,21.04,17.69
					c0.78,0.52,1.35,1.3,1.61,2.19c1.43,4.85,1.55,8.67,0.4,13.19c-2.8,11.04-12.18,18.89-19.02,24.62
					c-1.97,1.65-1.18,5.57,0.39,8.52c1.71,3.21,5.15,5.54,8.77,5.91c2.01,0.21,3.55,1.89,3.58,3.92c0.03,2.02-1.45,3.75-3.46,4.03
					c-4.16,0.57-9.21,4.08-11.03,7.67c-1.86,3.68-1.79,8.39,0.18,12.01c0.88,1.62,2.16,3.14,3.51,4.76c1.17,1.4,2.39,2.85,3.47,4.5
					c4.49,6.86,5.44,15.88,2.47,23.52c-0.86,2.23-1.77,4.48-2.68,6.76c-6.04,15.04-12.29,30.59-8.76,45
					c3.42,13.96,15.04,26.6,31.87,34.66c12.27,5.88,26.03,9.07,39.34,12.14c3.29,0.76,6.57,1.52,9.84,2.32
					c7.14,1.75,12.72,2.95,17.63,4.01c17.46,3.78,24,5.19,47.05,19.72c20.94,13.21,36.43,34.23,46.03,62.49
					c5.73,16.88,9.29,36.47,10.28,56.65c0,0.07,0,0.13,0,0.2L480.33,898.01z"/>
			</g>
		</g>
		<g>
			<path fill="#D07C85" d="M458.18,475.29c-9.16,0-18.32-1.9-26.83-5.68c-16.54-7.37-30.56-21.88-38.46-39.82
				c-0.89-2.02,0.03-4.38,2.05-5.27c2.02-0.89,4.38,0.03,5.27,2.05c7.11,16.14,19.64,29.17,34.39,35.74
				c14.63,6.52,31.47,6.66,46.19,0.4c2.03-0.86,4.38,0.08,5.25,2.12c0.87,2.03-0.08,4.38-2.12,5.25
				C475.73,473.54,466.95,475.29,458.18,475.29z"/>
		</g>
		<g>
			<path fill="#D07C85" d="M748.24,970.61c-31.44,0-57.01-25.58-57.01-57.01c0-31.44,25.58-57.01,57.01-57.01
				s57.01,25.58,57.01,57.01C805.26,945.03,779.68,970.61,748.24,970.61z M748.24,864.58c-27.03,0-49.01,21.99-49.01,49.01
				c0,27.03,21.99,49.01,49.01,49.01c27.03,0,49.01-21.99,49.01-49.01C797.26,886.57,775.27,864.58,748.24,864.58z"/>
		</g>
		<g>
			<path fill="#D07C85" d="M748.24,950.3c-20.24,0-36.7-16.46-36.7-36.7c0-20.24,16.46-36.7,36.7-36.7c20.24,0,36.7,16.46,36.7,36.7
				C784.95,933.83,768.48,950.3,748.24,950.3z M748.24,884.89c-15.83,0-28.7,12.88-28.7,28.7c0,15.83,12.88,28.7,28.7,28.7
				c15.83,0,28.7-12.88,28.7-28.7C776.95,897.77,764.07,884.89,748.24,884.89z"/>
		</g>
		<g>
			
				<ellipse transform="matrix(0.7071 -0.7071 0.7071 0.7071 -426.8529 796.6731)" fill="#D07C85" cx="748.24" cy="913.59" rx="26" ry="26"/>
		</g>
		<path opacity="0.4" fill="#F96052" d="M573.8,542.07c-4.03,39.17-14.29,78.6-36.82,110.89c-22.53,32.29-58.74,56.59-98.09,57.93
			c35.02,37.61,82.59,61.68,131.89,76.2c49.29,14.52,100.7,20.14,151.78,25.69c44.55,4.84,91.99,9.2,132.02-10.92
			c33.81-17,57.63-49.72,71.39-84.97c13.76-35.25,18.56-73.26,22.83-110.86c8.53-75.18,15.19-152.69-5.79-225.39
			c-23.65-81.95-83.3-152.82-160.01-190.11s-169.29-40.41-248.34-8.37c-18.8,7.62-65.5,26.42-70.92,48.98
			c-4.16,17.32,24.05,27.63,34.41,37.17c41.92,38.62,62.8,113.3,72,167.52C576.1,470.87,577.44,506.71,573.8,542.07z"/>
		<path fill="#FAF0F0" d="M135.91,231.82c-8.12,0.13-16.65,0.16-23.78-3.72c-9.22-5.02-14.24-16.38-12.54-26.74s9.59-19.26,19.4-23
			c9.81-3.74,21.19-2.54,30.46,2.38c-1.85-12.25,3.55-25.32,13.5-32.69c9.95-7.37,24.03-8.72,35.21-3.38
			c11.18,5.34,18.97,17.14,19.48,29.52c10.34-4.27,22.22-5.22,32.78-1.52c10.55,3.7,19.52,12.33,22.56,23.09
			c3.04,10.76-0.45,23.37-9.29,30.22c-7.83,6.07-18.05,6.92-27.6,6.49c-9.97-0.45-19.13-1.93-29.28-1.77
			C183.17,231.08,159.54,231.45,135.91,231.82z"/>
		<g>
			<path fill="#D07C85" d="M338.51,366.06l-4.77-1.51c0.61-1.92,1.25-3.86,1.9-5.75l4.73,1.62
				C339.73,362.28,339.11,364.18,338.51,366.06z M342.37,354.83l-4.69-1.74c0.69-1.87,1.42-3.78,2.17-5.66l4.65,1.85
				C343.76,351.12,343.05,352.99,342.37,354.83z M346.75,343.78l-4.6-1.96c0.78-1.84,1.6-3.7,2.43-5.55l4.55,2.06
				C348.32,340.15,347.52,341.98,346.75,343.78z M351.65,332.96l-4.51-2.17c0.88-1.82,1.78-3.65,2.69-5.43l4.46,2.27
				C353.4,329.38,352.51,331.17,351.65,332.96z M357.05,322.37l-4.4-2.37c0.95-1.76,1.94-3.54,2.94-5.3l4.35,2.47
				C358.95,318.89,357.98,320.64,357.05,322.37z M362.93,312.04l-4.29-2.57c1.03-1.71,2.1-3.45,3.17-5.16l4.23,2.67
				C364.99,308.66,363.94,310.36,362.93,312.04z M369.27,301.99l-4.17-2.77c1.11-1.68,2.26-3.36,3.41-5.01l4.1,2.86
				C371.49,298.69,370.37,300.35,369.27,301.99z M376.07,292.24l-4.04-2.95c1.18-1.62,2.41-3.25,3.63-4.85l3.97,3.04
				C378.43,289.05,377.23,290.65,376.07,292.24z M383.3,282.81l-3.9-3.13c1.26-1.57,2.56-3.15,3.85-4.68l3.82,3.22
				C385.81,279.72,384.54,281.27,383.3,282.81z M390.96,273.72l-3.75-3.31c1.33-1.51,2.69-3.02,4.06-4.5l3.67,3.39
				C393.6,270.76,392.26,272.24,390.96,273.72z M399.02,264.99l-3.6-3.47c1.4-1.45,2.83-2.9,4.26-4.31l3.51,3.56
				C401.8,262.14,400.39,263.56,399.02,264.99z M407.47,256.63l-3.43-3.64c1.46-1.37,2.95-2.76,4.46-4.11l3.35,3.71
				C410.37,253.93,408.9,255.28,407.47,256.63z M416.3,248.68l-3.26-3.79c1.54-1.33,3.1-2.64,4.64-3.9l3.17,3.87
				C419.34,246.09,417.81,247.38,416.3,248.68z M425.49,241.14l-3.08-3.94c1.6-1.25,3.22-2.49,4.82-3.67l2.98,4.01
				C428.65,238.7,427.06,239.92,425.49,241.14z M435.02,234.05l-2.89-4.08c1.64-1.16,3.32-2.32,4.99-3.44l2.79,4.15
				C438.27,231.78,436.63,232.91,435.02,234.05z"/>
		</g>
		<g>
			<path fill="#D07C85" d="M705.82,822.72c-0.37-2.01-0.68-4.05-0.94-6.07l4.96-0.62c0.24,1.93,0.54,3.88,0.89,5.79L705.82,822.72z
				 M704.28,810.55c-0.14-2.02-0.24-4.08-0.28-6.13l5-0.09c0.04,1.96,0.12,3.93,0.26,5.86L704.28,810.55z M709.05,798.46l-5-0.16
				c0.06-2.02,0.18-4.07,0.34-6.11l4.98,0.4C709.22,794.55,709.11,796.52,709.05,798.46z M709.99,786.74l-4.96-0.64
				c0.26-2,0.56-4.04,0.92-6.04l4.93,0.86C710.53,782.86,710.24,784.81,709.99,786.74z M712.01,775.14l-4.88-1.07
				c0.43-1.98,0.92-3.98,1.43-5.93l4.83,1.28C712.9,771.3,712.43,773.23,712.01,775.14z M715.01,763.74l-4.78-1.47
				c0.59-1.93,1.23-3.88,1.9-5.79l4.72,1.65C716.21,759.99,715.59,761.87,715.01,763.74z M718.92,752.6l-4.65-1.83
				c0.73-1.86,1.52-3.76,2.33-5.63l4.58,2C720.39,748.96,719.63,750.79,718.92,752.6z M723.64,741.77l-4.51-2.17
				c0.87-1.81,1.79-3.64,2.73-5.44l4.43,2.32C725.38,738.23,724.49,740.01,723.64,741.77z M729.13,731.29l-4.35-2.46
				c0.99-1.75,2.02-3.51,3.08-5.24l4.27,2.6C731.11,727.87,730.1,729.59,729.13,731.29z M735.28,721.16l-4.2-2.72
				c1.09-1.68,2.22-3.38,3.37-5.05l4.12,2.84C737.46,717.86,736.35,719.52,735.28,721.16z M742.01,711.39l-4.04-2.94
				c1.16-1.6,2.38-3.23,3.62-4.86l3.97,3.04C744.34,708.22,743.15,709.82,742.01,711.39z M749.23,701.96l-3.9-3.13
				c1.26-1.57,2.54-3.13,3.84-4.68l3.83,3.21C751.72,698.88,750.47,700.41,749.23,701.96z M756.87,692.84l-3.77-3.29
				c1.33-1.52,2.66-3.02,4.02-4.52l3.71,3.36C759.49,689.86,758.17,691.34,756.87,692.84z M764.86,684.01l-3.65-3.42
				c1.38-1.47,2.76-2.93,4.16-4.38l3.6,3.47C767.59,681.12,766.22,682.56,764.86,684.01z M773.14,675.43l-3.55-3.52
				c1.42-1.43,2.84-2.84,4.28-4.25l3.5,3.57C775.96,672.61,774.55,674.01,773.14,675.43z M781.66,667.06l-3.46-3.61l1.05-1.01
				c1.1-1.05,2.2-2.1,3.31-3.14l3.43,3.64c-1.1,1.03-2.19,2.07-3.28,3.11L781.66,667.06z M790.36,658.85l-3.4-3.66
				c1.47-1.36,2.94-2.72,4.42-4.08l3.38,3.69C793.29,656.14,791.82,657.49,790.36,658.85z M799.18,650.76l-3.36-3.7
				c1.48-1.35,2.97-2.69,4.46-4.03l3.35,3.71C802.14,648.08,800.66,649.42,799.18,650.76z M808.08,642.73l-3.34-3.72l4.46-4.01
				l3.34,3.72L808.08,642.73z M817.01,634.7l-3.35-3.72c1.48-1.34,2.97-2.67,4.45-4.02l3.36,3.71
				C819.98,632.02,818.5,633.36,817.01,634.7z M825.91,626.63l-3.37-3.69c1.47-1.35,2.94-2.7,4.41-4.05l3.39,3.67
				C828.87,623.93,827.39,625.28,825.91,626.63z M834.75,618.46l-3.42-3.65c1.45-1.36,2.9-2.73,4.34-4.11l3.45,3.62
				C837.67,615.71,836.21,617.09,834.75,618.46z M843.46,610.14l-3.49-3.58c1.42-1.39,2.84-2.79,4.25-4.19l3.53,3.54
				C846.33,607.32,844.9,608.74,843.46,610.14z"/>
		</g>
		<g>
			<g>
				<path fill="#D07C85" d="M451.06,849.56c-0.47-1.94-0.94-3.87-1.43-5.8l4.85-1.22c0.49,1.95,0.97,3.9,1.44,5.85L451.06,849.56z
					 M448.13,837.99c-0.55-2.03-1.08-3.9-1.62-5.72l4.79-1.42c0.55,1.85,1.09,3.76,1.65,5.83L448.13,837.99z M444.75,826.62
					c-0.63-1.92-1.29-3.79-1.95-5.58l4.69-1.74c0.68,1.84,1.36,3.78,2.01,5.75L444.75,826.62z M440.63,815.57
					c-0.77-1.82-1.58-3.62-2.42-5.35l4.5-2.18c0.87,1.8,1.72,3.68,2.52,5.58L440.63,815.57z M435.51,805.02
					c-0.96-1.73-1.97-3.42-2.99-5.02l4.21-2.7c1.08,1.69,2.14,3.47,3.16,5.29L435.51,805.02z M429.21,795.22
					c-1.17-1.57-2.4-3.09-3.64-4.52l3.77-3.29c1.33,1.52,2.64,3.15,3.89,4.82L429.21,795.22z M421.58,786.5
					c-1.37-1.32-2.82-2.62-4.33-3.85l3.17-3.87c1.61,1.32,3.17,2.71,4.63,4.12L421.58,786.5z M412.62,779.15
					c-1.55-1.08-3.19-2.15-4.89-3.18l2.58-4.28c1.79,1.08,3.53,2.21,5.17,3.36L412.62,779.15z M402.64,773.1
					c-1.68-0.88-3.45-1.76-5.27-2.6l2.1-4.54c1.89,0.88,3.74,1.79,5.5,2.71L402.64,773.1z M391.96,768.14
					c-1.74-0.72-3.6-1.45-5.51-2.16l1.75-4.68c1.97,0.73,3.87,1.48,5.67,2.22L391.96,768.14z M380.87,763.98
					c-1.88-0.64-3.76-1.27-5.65-1.88l1.53-4.76c1.92,0.62,3.83,1.25,5.74,1.91L380.87,763.98z M369.52,760.32
					c-1.91-0.59-3.82-1.17-5.73-1.74l1.45-4.79c1.91,0.58,3.83,1.16,5.75,1.75L369.52,760.32z"/>
			</g>
		</g>
		<path fill="#FAF0F0" d="M914.07,836.52c11.97-2.11,24.93,3.1,32.1,12.9c0.07-16.73,13.58-32.39,30.12-34.92
			c7.34-1.12,15.25,0.23,21.18,4.69c5.94,4.46,9.52,12.27,7.99,19.53c5.96-4.19,12.69-7.57,19.92-8.45
			c7.24-0.88,15.03,1.01,20.23,6.12c5.2,5.11,7.14,13.66,3.6,20.03c7.48-4.06,15.63-6.88,24.01-8.31c7.8-1.33,16.32-1.32,23,2.92
			s10.34,13.85,5.97,20.43c5.66-0.62,11.66-1.19,16.82,1.24c5.15,2.43,8.77,9.05,5.95,14c-2.71,4.73-9.19,5.29-14.64,5.29
			c-18.91-0.02-37.82-0.04-56.73-0.06c-46.85-0.05-93.71-0.1-140.56-0.15c-5.45-0.01-11.08-0.05-16.06-2.26
			c-5.58-2.48-9.86-7.7-11.19-13.66C882,858.87,897.87,839.38,914.07,836.52z"/>
		<path fill="#FAF0F0" d="M1125.9,195.75c-1.11-10.86-11.56-19.08-22.39-20.51c-10.83-1.43-21.68,2.63-31.11,8.15
			c-0.32-14.42-9.42-28.3-22.52-34.34c-13.1-6.04-29.56-3.96-40.74,5.16c-1.92-13.82-13.82-25.25-27.5-27.99
			c-13.68-2.74-28.35,2.63-38.14,12.57c-9.79,9.94-14.88,23.96-15.32,37.91c-10.35-15.9-32.25-23.13-50.02-16.51
			c-14.62,5.44-24.44,19.19-27,34.27c-3.02,17.82,6.61,25.75,24.45,26.15c66.68,1.48,133.36,2.97,200.04,4.45
			c11.04,0.25,22.47,0.42,32.63-3.89C1118.45,216.85,1127.03,206.73,1125.9,195.75z"/>
		<g>
			<path fill="#D07C85" d="M141.18,897.33h10.65l1.69,64.81h-7.64l-1.33-54.6l-18.56,49.1h-7.1l-17.22-48.57l-1.33,54.07H92.7
				l1.78-64.81h10.57l17.49,49.63L141.18,897.33z"/>
			<path fill="#D07C85" d="M189.21,897.33h34.45v6.22h-26.64v22.55h24.77v6.22h-24.77v23.62h28.41v6.21h-36.23V897.33z"/>
			<path fill="#D07C85" d="M296.11,897.33h7.81v64.81h-8.52l-30.9-51.67v51.67h-7.81v-64.81h8.52l30.9,51.76V897.33z"/>
			<path fill="#D07C85" d="M331.71,903.55v-6.22h42.62v6.22h-17.4v58.6h-7.81v-58.6H331.71z"/>
			<path fill="#D07C85" d="M412.25,897.33h10.39l21.22,64.81h-7.72l-6.3-19.53h-24.68l-6.3,19.53h-7.72L412.25,897.33z
				 M417.48,904.26L407.1,936.4h20.69L417.48,904.26z"/>
			<path fill="#D07C85" d="M472.53,962.15v-64.81h7.81v58.6h24.15v6.21H472.53z"/>
			<path fill="#D07C85" d="M139.8,994.07h7.81v64.81h-7.81v-29.3h-30.01v29.3h-7.81v-64.81h7.81v29.3h30.01V994.07z"/>
			<path fill="#D07C85" d="M184.19,994.07h34.45v6.21h-26.64v22.55h24.77v6.22h-24.77v23.62h28.41v6.22h-36.23V994.07z"/>
			<path fill="#D07C85" d="M264.9,994.07h10.39l21.22,64.81h-7.72l-6.3-19.53H257.8l-6.3,19.53h-7.72L264.9,994.07z M270.14,1001
				l-10.39,32.14h20.69L270.14,1001z"/>
			<path fill="#D07C85" d="M325.19,1058.89v-64.81H333v58.6h24.15v6.22H325.19z"/>
			<path fill="#D07C85" d="M372.07,1000.29v-6.21h42.62v6.21h-17.4v58.6h-7.81v-58.6H372.07z"/>
			<path fill="#D07C85" d="M480.3,994.07h7.81v64.81h-7.81v-29.3h-30.01v29.3h-7.81v-64.81h7.81v29.3h30.01V994.07z"/>
		</g>
		<g>
			<path fill="#FFFFFF" d="M762.28,909.24h-9.69v-9.69c0-0.85-0.69-1.55-1.55-1.55h-5.61c-0.85,0-1.55,0.69-1.55,1.55v9.69h-9.69
				c-0.85,0-1.55,0.69-1.55,1.55v5.61c0,0.85,0.69,1.55,1.55,1.55h9.69v9.69c0,0.85,0.69,1.55,1.55,1.55h5.61
				c0.85,0,1.55-0.69,1.55-1.55v-9.69h9.69c0.85,0,1.55-0.69,1.55-1.55v-5.61C763.83,909.93,763.14,909.24,762.28,909.24z"/>
		</g>
		<g>
			<g>
				<path fill="#FFFFFF" d="M854.01,428.5c-3.39-4.65-7.55-8.65-12.22-11.9c11.05-9.65,16.45-25.47,13.75-40.46
					c-2.58-14.33-12.56-27.6-26.05-34.63c-10.89-5.68-23.85-7.45-36.43-5.15c5.54-9.49,7.52-21.4,5.27-32.89
					c-2.39-12.24-9.38-23.99-19.69-33.08c-9.12-8.04-20.6-14.01-34.11-17.75c-14.7-4.06-29.27-4.63-42.12-1.63
					c-14.48,3.38-27.29,11.59-35.2,22.54c-1.87-0.54-3.79-0.89-5.73-1.05c0.25-7.27-2.39-14.92-7.46-21.29
					c-4.63-5.83-11.22-10.7-19.57-14.49c-12.36-5.6-25.85-7.52-37.99-5.41c-13.43,2.34-25.36,9.61-32.71,19.96
					c-7.5,10.55-9.87,24.09-6.38,35.83c-11.2-6.61-25.31-8.07-37.59-3.73c-13.32,4.71-23.88,15.98-27.56,29.42
					c-3.71,13.56-0.06,28.92,9.31,39.15c0.96,1.05,1.99,2.02,3.06,2.96c-11.57,9.42-17.78,25.32-15.49,40.07
					c2.36,15.21,13.7,28.88,28.21,34.01c0.5,0.18,1.02,0.35,1.54,0.5c6.84,2.05,15.5,2.28,21.95-2.3
					c-2.77,11.05,0.11,23.62,7.8,32.92c5.4,6.54,13.06,11.42,21.63,13.99c3.84,1.15,7.87,1.84,11.95,2.01
					c8.6,0.36,16.57-1.51,23.03-5.39c3.75-2.25,6.95-5.25,9.4-8.65c0.14,10.22,3.31,20.06,9.19,27.92
					c5.46,7.3,13.15,12.58,21.52,15.09c3.51,1.05,7.15,1.58,10.79,1.6c0.13,0.32,0.32,0.61,0.61,0.83
					c19.13,14.27,32.28,36.93,35.18,60.62l0.12,1.01c0.43,3.6,0.91,7.69,3.26,10.98c1.62,2.26,4.02,3.87,6.7,4.67
					c2.86,0.86,6.05,0.8,8.91-0.35c3.93-1.57,7.27-4.95,10.21-10.31c0.67-1.22,1.29-2.47,1.91-3.71c1.19-2.39,2.35-4.65,3.79-6.69
					c6.25,5.83,13.63,9.06,19.54,10.84c0.65,0.2,1.29,0.37,1.91,0.54c9.07,2.39,17.94,2.46,25.63,0.19
					c9.47-2.79,17.71-9.3,22.6-17.87c4.9-8.57,6.32-18.97,3.92-28.54c-0.04-0.15-0.13-0.27-0.19-0.41c0.55-0.12,1.09-0.27,1.63-0.43
					c9.26-2.85,16.34-11.47,17.63-21.44c0.06-0.43,0.09-0.86,0.12-1.29c0.18,0.13,0.38,0.24,0.6,0.3c0.1,0.03,0.2,0.05,0.3,0.07
					c7.83,1.1,16.38-0.99,23.46-5.72c6.44-4.31,11.74-10.7,15.33-18.5C867.12,464.42,865.05,443.64,854.01,428.5z M719.44,568.61
					c-0.6,1.2-1.2,2.4-1.84,3.57c-2.48,4.52-5.16,7.3-8.19,8.52c-3.83,1.53-8.6,0.24-10.87-2.93c-1.75-2.45-2.13-5.69-2.54-9.12
					l-0.12-1.02c-2.9-23.69-15.63-46.38-34.24-61.36c8.6-1.31,16.49-5.73,21.97-12.12c-0.08,4.14,0.57,8.34,2.01,12.31
					c3.24,8.99,10.32,16.93,19.42,21.79c2.46,1.31,4.98,2.35,7.53,3.11c1.14,0.34,2.27,0.61,3.41,0.84
					c-0.02,0.06-0.06,0.11-0.08,0.18c-2.05,9.37,0.8,19.78,7.61,27.87c0.16,0.19,0.32,0.36,0.48,0.54
					C722.13,563.25,720.75,565.97,719.44,568.61z M855.64,479.77c-3.28,7.12-8.1,12.95-13.92,16.85c-6.27,4.2-13.81,6.05-20.68,5.09
					c-0.51-0.07-1,0.07-1.39,0.34c-0.32-7.99-4.12-15.87-10.49-21.33c-0.03-0.03-0.07-0.03-0.1-0.06
					c5.48-6.28,7.86-15.35,5.72-23.43c-0.28-1.07-1.38-1.7-2.45-1.42c-1.07,0.28-1.7,1.38-1.42,2.45
					c2.23,8.42-1.36,18.12-8.53,23.07c-7.17,4.94-17.52,4.85-24.59-0.23c-0.9-0.64-2.15-0.44-2.79,0.46
					c-0.64,0.9-0.44,2.15,0.46,2.79c2.17,1.56,4.6,2.72,7.16,3.49c7.34,2.2,15.72,1.14,22.03-3.21c0.56-0.38,1.1-0.8,1.62-1.23
					c0.09,0.13,0.17,0.26,0.29,0.37c6.47,5.54,9.98,14.3,8.94,22.32c-1.07,8.31-7.18,15.76-14.84,18.13
					c-7.93,2.44-17.18-0.77-21.51-7.47c-0.6-0.93-1.84-1.19-2.77-0.59c-0.93,0.6-1.19,1.84-0.59,2.77
					c2.84,4.38,7.39,7.54,12.48,9.07c2.66,0.8,5.46,1.14,8.25,0.99c-0.06,0.28-0.07,0.58,0.01,0.88c2.16,8.58,0.88,17.9-3.51,25.58
					c-4.39,7.68-11.77,13.52-20.26,16.01c-7,2.06-15.12,1.98-23.48-0.22c-6.63-1.75-15.95-5.52-22.72-13.54
					c-5.93-7.03-8.52-16.4-6.76-24.43c0.04-0.16,0.01-0.32,0.01-0.48c5.47,0.51,10.81-0.25,15.46-2.37
					c10.28-4.7,16.34-16.59,13.52-26.51c-0.3-1.06-1.41-1.68-2.47-1.38c-1.06,0.3-1.68,1.41-1.38,2.47
					c2.3,8.09-2.78,17.86-11.33,21.77c-7.72,3.53-17.7,2.78-26.69-2.02c-8.24-4.4-14.63-11.55-17.54-19.62
					c-3.09-8.57-2.14-18.34,2.47-25.51c0.6-0.93,0.33-2.17-0.6-2.77c-0.93-0.6-2.17-0.33-2.76,0.6c-1.26,1.95-2.27,4.07-3.04,6.29
					c-0.06,0.09-0.14,0.17-0.19,0.28c-4.36,10.49-15.71,18.17-27.61,18.67c-11.56,0.49-23.3-5.3-30.62-15.09
					c-6.87-9.18-9.78-21.9-7.77-34.01c0.06-0.39-0.02-0.75-0.16-1.09c0.08-0.31,0.18-0.62,0.25-0.93c0.22-1.08-0.48-2.14-1.56-2.36
					c-1.08-0.22-2.14,0.48-2.36,1.56c-1.33,6.54-5.91,12.72-12.25,16.53c-5.8,3.48-12.99,5.15-20.81,4.83
					c-12.1-0.5-23.56-5.94-30.67-14.54c-7.21-8.74-9.72-20.64-6.63-30.8c1.85,1.04,3.84,1.91,5.94,2.54
					c0.04,0.01,0.07,0.02,0.11,0.03c6.62,1.96,14.33,1.82,22.29-0.39c1.06-0.3,1.69-1.4,1.39-2.46c-0.3-1.06-1.4-1.69-2.46-1.39
					c-7.24,2.01-14.18,2.16-20.08,0.41c-6.7-2-12.19-6.57-14.61-12.26c-2.58-6.06-1.32-13.49,2.99-17.68
					c0.79-0.77,0.81-2.04,0.04-2.83c-0.77-0.79-2.04-0.81-2.83-0.04c-5.54,5.39-7.14,14.48-3.88,22.12
					c1.29,3.02,3.31,5.76,5.82,8.09c-5.72,5.17-14.62,4.61-21.13,2.31c-13.17-4.65-23.45-17.05-25.59-30.85
					c-2.12-13.67,3.8-28.45,14.74-36.91c3.64,2.58,7.68,4.54,11.92,5.81c6.51,1.95,13.48,2.29,20.13,0.76
					c1.08-0.25,1.75-1.32,1.5-2.4c-0.25-1.08-1.32-1.75-2.4-1.5c-12.3,2.82-25.82-1.45-34.47-10.88
					c-8.46-9.24-11.76-23.13-8.4-35.39c3.34-12.19,12.93-22.42,25.04-26.7c12.09-4.28,26.14-2.38,36.67,4.95
					c0.91,0.63,2.15,0.41,2.78-0.5c0.34-0.48,0.41-1.06,0.29-1.59c0.81-0.48,1.21-1.45,0.89-2.36c-3.92-10.93-1.9-23.98,5.27-34.06
					c6.75-9.49,17.74-16.18,30.14-18.34c11.36-1.98,24.02-0.17,35.65,5.11c7.77,3.52,13.86,8.01,18.09,13.33
					c4.5,5.66,6.83,12.39,6.59,18.74c-2.31,0.13-4.61,0.54-6.83,1.24c-8.78,2.78-15.9,9.99-18.58,18.8
					c-0.32,1.06,0.27,2.17,1.33,2.5c0,0,0.01,0,0.01,0c1.05,0.32,2.17-0.28,2.49-1.33c2.3-7.57,8.42-13.76,15.96-16.15
					c7.54-2.39,16.1-0.86,22.35,4c6.24,4.86,9.84,12.78,9.37,20.68c-0.06,1.1,0.78,2.05,1.88,2.11c1.1,0.06,2.05-0.78,2.11-1.88
					c0.54-9.19-3.64-18.42-10.91-24.07c-1.71-1.33-3.58-2.44-5.54-3.33c7.4-9.74,19.04-17.03,32.19-20.1
					c12.21-2.85,26.09-2.3,40.15,1.59c12.94,3.58,23.88,9.26,32.53,16.89c9.65,8.51,16.18,19.46,18.41,30.84
					c2.34,11.96-0.29,24.38-7,33.45c-0.41,0.12-0.81,0.22-1.22,0.34c-9.45-9.07-24.59-11.24-36.19-5.12
					c-0.98,0.52-1.35,1.73-0.84,2.7c0.52,0.98,1.73,1.35,2.7,0.84c10.06-5.31,23.74-3.28,31.83,4.72c8.09,8,10.26,21.66,5.06,31.78
					c-0.51,0.98-0.12,2.19,0.86,2.69c0.11,0.06,0.23,0.1,0.34,0.14c0.91,0.27,1.9-0.13,2.35-1c5.42-10.54,4.03-23.9-3.06-33.28
					c0.16-0.08,0.31-0.18,0.45-0.3c12.96-3.38,26.65-2.01,37.93,3.88c12.41,6.47,21.59,18.66,23.96,31.79
					c2.48,13.76-2.51,28.29-12.73,37c-0.19,0.16-0.34,0.36-0.45,0.57c-9.9-5.85-21.66-8.54-33.21-7.13
					c-1.1,0.13-1.88,1.13-1.74,2.23c0.13,1.1,1.13,1.88,2.23,1.74c16.92-2.06,35.04,5.82,45.08,19.59
					C860.82,444.63,862.77,464.29,855.64,479.77z"/>
				<path fill="#FFFFFF" d="M643.58,343.24c3.53,7.64,2.22,17.48-3.2,23.92c-0.71,0.85-0.6,2.11,0.24,2.82
					c0.22,0.18,0.46,0.31,0.71,0.39c0.74,0.22,1.58,0,2.11-0.63c6.48-7.71,8-19.03,3.77-28.17c-4.23-9.14-13.84-15.32-23.91-15.37
					c-10.07-0.05-19.74,6.03-24.06,15.13c-0.47,1-0.05,2.19,0.95,2.67c1,0.48,2.19,0.05,2.67-0.95c3.61-7.6,12.01-12.88,20.43-12.84
					C631.7,330.23,640.04,335.6,643.58,343.24z"/>
				<path fill="#FFFFFF" d="M748.62,412.3c-1.09-0.19-2.12,0.54-2.31,1.63c-0.19,1.09,0.54,2.12,1.63,2.31
					c11.06,1.93,20.94,10.21,24.58,20.6c3.75,10.69,0.97,23.15-6.9,31.01c-7.97,7.96-20.65,10.49-30.85,6.16
					c-1.02-0.43-2.19,0.04-2.62,1.06c-0.43,1.02,0.04,2.19,1.06,2.62c1,0.42,2.02,0.79,3.06,1.1c11.04,3.31,23.87,0.19,32.18-8.11
					c8.94-8.92,12.09-23.05,7.85-35.17C772.12,423.62,761.26,414.5,748.62,412.3z"/>
				<g>
					<path fill="#FFFFFF" d="M732.45,447.34c-0.53-0.97-1.74-1.33-2.71-0.8c-7.63,4.16-17.28,4.47-25.17,0.82
						c-7.89-3.65-13.89-11.2-15.67-19.71c-1.63-7.83,0.35-16.34,5.18-22.72c3.41,3.14,7.53,5.5,11.97,6.83
						c2.33,0.7,4.75,1.12,7.2,1.22c8.65,0.37,19.17-4.3,21.63-13.68c0.28-1.07-0.35-2.16-1.43-2.44c-1.07-0.28-2.16,0.36-2.44,1.43
						c-1.92,7.35-10.5,10.99-17.59,10.69c-8.45-0.36-16.49-5.03-20.98-12.19c-4.49-7.16-5.2-16.43-1.84-24.19
						c0.44-1.01-0.03-2.19-1.04-2.63c-1.02-0.44-2.19,0.03-2.63,1.04c-3.87,8.95-3.06,19.64,2.12,27.9
						c0.67,1.07,1.44,2.08,2.24,3.05c-4.91,6.21-7.39,14.31-6.88,22.21l0.69,4.8c2.16,9.51,8.92,17.91,17.78,22
						c1.32,0.61,2.67,1.12,4.06,1.54c8.12,2.43,17.25,1.58,24.7-2.48C732.62,449.53,732.98,448.31,732.45,447.34z"/>
					<path fill="#FFFFFF" d="M643.67,426.16c0.29-1.47-1.09-2.74-2.52-2.3c-4.7,1.44-9.86,1.59-14.59,0.38
						c-5.84-1.5-11.24-5.14-14.83-9.98c-1.7-2.3-3.6-5.78-2.98-9.29c0.19-1.09-0.53-2.13-1.62-2.32c-1.09-0.19-2.13,0.53-2.32,1.62
						c-0.88,4.91,1.53,9.44,3.7,12.37c0.92,1.24,1.93,2.41,3.02,3.5c3.86,3.84,8.71,6.62,14.03,7.98
						c5.52,1.42,11.34,1.25,16.75-0.43C643.01,427.47,643.53,426.88,643.67,426.16L643.67,426.16z"/>
				</g>
				<path fill="#FFFFFF" d="M681.67,336.95c0.71,0.85,1.97,0.96,2.82,0.25c9.88-8.27,26.04-8.38,36.03-0.24
					c9.99,8.13,13.16,23.98,7.07,35.33c-0.52,0.97-0.16,2.19,0.82,2.71c0.12,0.07,0.25,0.12,0.37,0.15
					c0.89,0.27,1.88-0.12,2.34-0.97c7.07-13.17,3.53-30.89-8.07-40.33c-11.59-9.44-29.66-9.32-41.13,0.28
					C681.08,334.84,680.97,336.1,681.67,336.95z"/>
			</g>
		</g>
		<polygon fill="#FBABB2" points="246.38,349.02 224.22,349.02 224.22,326.86 220.16,326.86 220.16,349.02 198,349.02 198,353.08 
			220.16,353.08 220.16,375.24 224.22,375.24 224.22,353.08 246.38,353.08 		"/>
		<polygon fill="#FBABB2" points="847.53,121.96 808.8,121.96 808.8,83.23 801.71,83.23 801.71,121.96 762.98,121.96 762.98,129.06 
			801.71,129.06 801.71,167.79 808.8,167.79 808.8,129.06 847.53,129.06 		"/>
		<polygon fill="#D07C85" points="572.44,1023.61 542.4,1023.61 542.4,993.58 536.9,993.58 536.9,1023.61 506.87,1023.61 
			506.87,1029.11 536.9,1029.11 536.9,1059.15 542.4,1059.15 542.4,1029.11 572.44,1029.11 		"/>
		<polygon fill="#FBABB2" points="890.22,960.07 862.44,960.07 862.44,932.29 857.36,932.29 857.36,960.07 829.59,960.07 
			829.59,965.15 857.36,965.15 857.36,992.92 862.44,992.92 862.44,965.15 890.22,965.15 		"/>
		<polygon fill="#FBABB2" points="1059.4,677.64 1021.99,677.64 1021.99,640.23 1015.14,640.23 1015.14,677.64 977.74,677.64 
			977.74,684.48 1015.14,684.48 1015.14,721.89 1021.99,721.89 1021.99,684.48 1059.4,684.48 		"/>
	</g>
</g>
</svg>
