<?xml version="1.0" encoding="utf-8"?>
<!-- Generator: Adobe Illustrator 25.3.1, SVG Export Plug-In . SVG Version: 6.00 Build 0)  -->
<svg version="1.1" xmlns="http://www.w3.org/2000/svg" xmlns:xlink="http://www.w3.org/1999/xlink" x="0px" y="0px"
	 viewBox="0 0 500 500" enable-background="new 0 0 500 500" xml:space="preserve">
<g id="Background_Simple">
	<g>
		<g>
			<path opacity="0.7" fill="#92E3A9" d="M441.9,316.9c0,37.4-5.1,65-14.9,85.4H69.6c-10.1-20.6-15.5-48.7-15.5-87
				c0-142.7,73.7-274.9,192.1-274.9S441.9,174.2,441.9,316.9z"/>
		</g>
		<g>
			<path opacity="0.7" fill="#FFFFFF" d="M441.9,316.9c0,37.4-5.1,65-14.9,85.4H69.6c-10.1-20.6-15.5-48.7-15.5-87
				c0-142.7,73.7-274.9,192.1-274.9S441.9,174.2,441.9,316.9z"/>
		</g>
	</g>
</g>
<g id="Device">
	<g>
		<g>
			<path fill="#BFBFBF" stroke="#263238" stroke-miterlimit="10" d="M307.7,328.4H188.3c-8.9,0-16.1-7.2-16.1-16.1v-159
				c0-8.9,7.2-16.1,16.1-16.1h119.4c8.9,0,16.1,7.2,16.1,16.1v159C323.8,321.2,316.6,328.4,307.7,328.4z"/>
			<g>
				<path fill="#263238" d="M297,306.7H190c-5.9,0-10.7-4.8-10.7-10.7V155.4c0-5.9,4.8-10.7,10.7-10.7h107c5.9,0,10.7,4.8,10.7,10.7
					V296C307.7,301.9,302.9,306.7,297,306.7z"/>
				<path opacity="0.1" fill="#FFFFFF" d="M297,306.7H190c-5.9,0-10.7-4.8-10.7-10.7V155.4c0-5.9,4.8-10.7,10.7-10.7h107
					c5.9,0,10.7,4.8,10.7,10.7V296C307.7,301.9,302.9,306.7,297,306.7z"/>
				<g>
					<g>
						<g>
							<g>
								<path fill="#92E3A9" d="M212.1,168.7c-0.5-0.1-1,0.2-1.2,0.7l-0.5,2.5l-7.8-1.2c-0.5-0.1-1,0.2-1.1,0.7l-1,3.6
									c-0.2,0.5,0.1,1,0.6,1.2c0.5,0.1,1-0.2,1.2-0.7l0.7-2.8l1.7,0.3l-1.4,4.9l0,0l-2.4,8.5c-0.1,0.5,0.1,1,0.7,1.1
									c0.2,0,0.4,0,0.6-0.1c0.3-0.1,0.5-0.4,0.6-0.7l2.1-7.3l0,0v0l0.1-0.2c0.1-0.3,0.4-0.9,1.1-0.8c0,0,0,0,0,0l1.6,0.3l-2.6,3.2
									c-0.3,0.4-0.3,1,0.1,1.3c0.4,0.3,1,0.2,1.4-0.2l3.5-4.5c0.2-0.3,0.3-0.6,0.2-0.9c-0.1-0.3-0.3-0.5-0.7-0.6l-1.4-0.3l0.8-3.2
									l1.9,0.3c0.2,0,0.4,0,0.5-0.1c0.3-0.1,0.5-0.4,0.6-0.7l0.8-3.3C212.9,169.3,212.6,168.8,212.1,168.7z"/>
								<path fill="#92E3A9" d="M208.2,170.7c1-0.4,1.5-1.5,1.2-2.5c-0.3-1-1.4-1.4-2.4-1c-1,0.4-1.5,1.5-1.2,2.5
									C206.1,170.7,207.2,171.1,208.2,170.7z"/>
							</g>
							<circle fill="none" stroke="#999999" stroke-width="2" stroke-miterlimit="10" cx="206" cy="176.9" r="15.2"/>
							
								<path fill="none" stroke="#92E3A9" stroke-width="2" stroke-linecap="round" stroke-linejoin="round" stroke-miterlimit="10" d="
								M206,192.1c-8.4,0-15.2-6.8-15.2-15.2s6.8-15.2,15.2-15.2c8.4,0,15.2,6.8,15.2,15.2"/>
						</g>
						<g>
							<g>
								<g>
									<g>
										<g>
											<g>
												<path fill="#92E3A9" d="M271.3,213.7c-0.1,0-0.2,0-0.3-0.1l-2.6-2.9c-0.1-0.1-0.1-0.4,0-0.5c0.1-0.1,0.4-0.1,0.5,0
													l2.6,2.9c0.1,0.1,0.1,0.4,0,0.5C271.4,213.7,271.3,213.7,271.3,213.7z"/>
											</g>
										</g>
										<path fill="#92E3A9" d="M269.2,204.9v-0.5h-1.5v0.5c-2.9,0.4-5.2,2.9-5.1,5.9c0,3.3,2.7,6,6,6c3.3,0,6-2.7,6-6
											C274.5,207.8,272.2,205.3,269.2,204.9z M268.6,216.1c-2.9,0-5.2-2.3-5.2-5.2c0-2.9,2.3-5.2,5.2-5.2c2.9,0,5.2,2.3,5.2,5.2
											C273.8,213.7,271.5,216.1,268.6,216.1z"/>
										<g>
											<rect x="267.5" y="203.3" fill="#92E3A9" width="2" height="1"/>
										</g>
										<g opacity="0.6">
											<g>
												<g>
													<path fill="#92E3A9" d="M271.3,213.7c-0.1,0-0.2,0-0.3-0.1l-2.6-2.9c-0.1-0.1-0.1-0.4,0-0.5c0.1-0.1,0.4-0.1,0.5,0
														l2.6,2.9c0.1,0.1,0.1,0.4,0,0.5C271.4,213.7,271.3,213.7,271.3,213.7z"/>
												</g>
											</g>
											<path fill="#92E3A9" d="M269.2,204.9v-0.5h-1.5v0.5c-2.9,0.4-5.2,2.9-5.1,5.9c0,3.3,2.7,6,6,6c3.3,0,6-2.7,6-6
												C274.5,207.8,272.2,205.3,269.2,204.9z M268.6,216.1c-2.9,0-5.2-2.3-5.2-5.2c0-2.9,2.3-5.2,5.2-5.2
												c2.9,0,5.2,2.3,5.2,5.2C273.8,213.7,271.5,216.1,268.6,216.1z"/>
											<g>
												<rect x="267.5" y="203.3" fill="#92E3A9" width="2" height="1"/>
											</g>
										</g>
									</g>
								</g>
								<g>
									<g>
										<path fill="#FFFFFF" d="M194.1,274.4c-0.9,0-1.5,0.5-1.5,1.8v2h-2.7v-1.8c0-2.9,1.5-4.6,4.3-4.6c2.8,0,4.3,1.7,4.3,4.6
											c0,5.8-5.7,7.9-5.7,10.9c0,0.1,0,0.3,0,0.4h5.5v2.6h-8.3v-2.3c0-5.4,5.7-6.3,5.7-11.6C195.6,274.9,195,274.4,194.1,274.4z
											"/>
										<path fill="#FFFFFF" d="M199.5,284.4l5.2-12.4h3.1v12.4h1.4v2.6h-1.4v3.3h-2.8V287h-5.6V284.4z M205.1,284.4v-6.9
											l-2.9,6.9H205.1z"/>
										<path fill="#FFFFFF" d="M213.2,284.5v1.7c0,1.3,0.6,1.8,1.5,1.8c0.9,0,1.5-0.5,1.5-1.8v-4c0-1.3-0.6-1.8-1.5-1.8
											c-0.9,0-1.5,0.5-1.5,1.8v0.6h-2.7L211,272h7.6v2.6h-5l-0.2,4.4c0.5-0.9,1.4-1.3,2.5-1.3c2.1,0,3.2,1.5,3.2,4.2v4.1
											c0,2.9-1.5,4.6-4.3,4.6c-2.8,0-4.3-1.7-4.3-4.6v-1.5H213.2z"/>
									</g>
									<g>
										<path fill="#92E3A9" d="M225.6,280h-1.3l-0.2-1.5h-1.5l-0.2,1.5h-1.2l1.3-8h1.8L225.6,280z M222.7,277.5h1.2l-0.6-4.1
											L222.7,277.5z"/>
										<path fill="#92E3A9" d="M229.8,277v1.1c0,1.3-0.6,2-1.9,2c-1.2,0-1.9-0.7-1.9-2v-4.2c0-1.3,0.6-2,1.9-2
											c1.2,0,1.9,0.7,1.9,2v0.8h-1.2v-0.9c0-0.6-0.3-0.8-0.7-0.8c-0.4,0-0.7,0.2-0.7,0.8v4.3c0,0.6,0.3,0.8,0.7,0.8
											c0.4,0,0.7-0.2,0.7-0.8V277H229.8z"/>
										<path fill="#92E3A9" d="M230.2,272h3.9v1.1h-1.3v6.9h-1.3v-6.9h-1.3V272z"/>
										<path fill="#92E3A9" d="M234.6,272h1.3v8h-1.3V272z"/>
										<path fill="#92E3A9" d="M238.7,278.6l1-6.5h1.2l-1.2,8h-1.9l-1.2-8h1.3L238.7,278.6z"/>
										<path fill="#92E3A9" d="M242.7,275.4h1.7v1.1h-1.7v2.3h2.2v1.1h-3.4v-8h3.4v1.1h-2.2V275.4z"/>
										<path fill="#92E3A9" d="M225.1,287.5v1.1c0,1.3-0.6,2-1.9,2c-1.2,0-1.9-0.7-1.9-2v-4.2c0-1.3,0.6-2,1.9-2
											c1.2,0,1.9,0.7,1.9,2v0.8h-1.2v-0.9c0-0.6-0.3-0.8-0.7-0.8c-0.4,0-0.7,0.2-0.7,0.8v4.3c0,0.6,0.3,0.8,0.7,0.8
											c0.4,0,0.7-0.2,0.7-0.8v-1.1H225.1z"/>
										<path fill="#92E3A9" d="M230,290.5h-1.3l-0.2-1.5h-1.5l-0.2,1.5h-1.2l1.3-8h1.8L230,290.5z M227.1,288h1.2l-0.6-4.1
											L227.1,288z"/>
										<path fill="#92E3A9" d="M230.6,282.5h1.3v6.9h2.1v1.1h-3.3V282.5z"/>
									</g>
								</g>
								<g>
									<g>
										<g>
											<g>
												<g>
													<path fill="#92E3A9" d="M258.7,234.3l1.2-0.1c-1.2,1.1-2.6,2.4-4.3,3.5l-1.1,0.7c0,0,0,0,0,0l-1.1-0.8
														c-1.4-1.1-2.3-2.2-3.3-3.3l1.6,0.1l0.9-2.3l1.4,4.8l1.3-2.7l0.8,1.5l0.9-2.6l0.8,2.6L258.7,234.3z"/>
													<path fill="#92E3A9" d="M260.5,233.1h-1.9l-0.6,0.9l-1.1-2.8l-1,2.8l-0.8-1.4l-1,1.9l-1.6-4.9l-1.2,3.6h-2.1
														c-1.3-1.5-1.7-2.9-0.1-4.2c2.1-1.6,4.5-0.1,5.7,0.9c1.3-0.9,4.1-2.7,6.3-0.3C262.3,230.6,261.7,231.9,260.5,233.1z"/>
												</g>
											</g>
										</g>
									</g>
									<g>
										<g>
											<path fill="#FFFFFF" d="M189.5,224.4c2.2,0,2.7-0.9,3.2-2h1.9v16.1h-2.9v-12.3h-2.2V224.4z"/>
											<path fill="#FFFFFF" d="M202.4,224.5c-0.9,0-1.5,0.4-1.5,1.6v1.7h-2.7v-1.6c0-2.6,1.5-4.1,4.3-4.1c2.8,0,4.3,1.5,4.3,4.1
												c0,5.1-5.7,7-5.7,9.6c0,0.1,0,0.2,0,0.3h5.5v2.3h-8.3v-2c0-4.8,5.7-5.5,5.7-10.2C203.9,224.8,203.3,224.5,202.4,224.5z"
												/>
											<path fill="#FFFFFF" d="M212.8,224.5c-0.9,0-1.5,0.4-1.5,1.6v1.7h-2.7v-1.6c0-2.6,1.5-4.1,4.3-4.1s4.3,1.5,4.3,4.1
												c0,5.1-5.7,7-5.7,9.6c0,0.1,0,0.2,0,0.3h5.5v2.3h-8.3v-2c0-4.8,5.7-5.5,5.7-10.2C214.3,224.8,213.7,224.5,212.8,224.5z"
												/>
										</g>
										<g>
											<path fill="#92E3A9" d="M226.9,228.5v0.5c0,1.3-0.5,2.2-1.5,2.6c1.2,0.4,1.7,1.4,1.7,2.8v1.1c0,2-1.2,3.1-3.5,3.1H220
												v-12.9h3.5C225.9,225.5,226.9,226.5,226.9,228.5z M222.3,227.4v3.4h0.9c0.9,0,1.4-0.3,1.4-1.4v-0.7
												c0-0.9-0.4-1.3-1.2-1.3H222.3z M222.3,232.7v4h1.3c0.8,0,1.2-0.3,1.2-1.3v-1.1c0-1.2-0.4-1.6-1.5-1.6H222.3z"/>
											<path fill="#92E3A9" d="M235.4,228.7v1.7c0,2.1-1.1,3.2-3.5,3.2h-1.1v4.9h-2.3v-12.9h3.4
												C234.2,225.5,235.4,226.7,235.4,228.7z M230.8,227.4v4.4h1.1c0.7,0,1.1-0.3,1.1-1.2v-1.9c0-0.9-0.4-1.2-1.1-1.2H230.8z"
												/>
											<path fill="#92E3A9" d="M241.5,234.7l1.6-9.2h3.2v12.9h-2.2v-9.3l-1.6,9.3h-2.2l-1.7-9.2v9.2h-2v-12.9h3.2L241.5,234.7z"
												/>
										</g>
									</g>
								</g>
								<g>
									<g>
										<path fill="#FFFFFF" d="M195,251.7c0-1.7-0.6-2.1-1.5-2.1c-0.9,0-1.5,0.5-1.5,1.8v1.2h-2.7v-1c0-2.9,1.5-4.6,4.3-4.6
											c2.8,0,4.3,1.7,4.3,4.6v0.5c0,2-0.6,3.2-2,3.8c1.4,0.6,2,2,2,3.9v1.4c0,2.9-1.5,4.6-4.3,4.6c-2.8,0-4.3-1.7-4.3-4.6v-1.5
											h2.7v1.7c0,1.3,0.6,1.8,1.5,1.8c0.9,0,1.5-0.4,1.5-2.1v-1.4c0-1.7-0.6-2.3-1.9-2.3h-1v-2.6h1.1c1.1,0,1.7-0.5,1.7-1.9
											V251.7z"/>
										<path fill="#FFFFFF" d="M201.6,249.5c2.2,0,2.7-1.1,3.2-2.3h1.9v18.4h-2.9v-14h-2.2V249.5z"/>
										<path fill="#FFFFFF" d="M212,249.5c2.2,0,2.7-1.1,3.2-2.3h1.9v18.4h-2.9v-14H212V249.5z"/>
									</g>
									<g>
										<path fill="#92E3A9" d="M220.9,247h3.9v1.1h-1.3v6.9h-1.3v-6.9h-1.3V247z"/>
										<path fill="#92E3A9" d="M225.2,249c0-1.3,0.7-2,1.9-2c1.2,0,1.9,0.7,1.9,2v4.2c0,1.3-0.7,2-1.9,2c-1.2,0-1.9-0.7-1.9-2
											V249z M226.5,253.2c0,0.6,0.3,0.8,0.7,0.8c0.4,0,0.7-0.2,0.7-0.8v-4.3c0-0.6-0.3-0.8-0.7-0.8c-0.4,0-0.7,0.2-0.7,0.8
											V253.2z"/>
										<path fill="#92E3A9" d="M229.5,247h3.9v1.1h-1.3v6.9h-1.3v-6.9h-1.3V247z"/>
										<path fill="#92E3A9" d="M237.6,255.1h-1.3l-0.2-1.5h-1.5l-0.2,1.5h-1.2l1.3-8h1.8L237.6,255.1z M234.7,252.5h1.2l-0.6-4.1
											L234.7,252.5z"/>
										<path fill="#92E3A9" d="M238.1,247h1.3v6.9h2.1v1.1h-3.3V247z"/>
										<path fill="#92E3A9" d="M224.9,262.5v1.1c0,1.3-0.6,2-1.9,2c-1.2,0-1.9-0.7-1.9-2v-4.2c0-1.3,0.6-2,1.9-2
											c1.2,0,1.9,0.7,1.9,2v0.8h-1.2v-0.9c0-0.6-0.3-0.8-0.7-0.8c-0.4,0-0.7,0.2-0.7,0.8v4.3c0,0.6,0.3,0.8,0.7,0.8
											c0.4,0,0.7-0.2,0.7-0.8v-1.1H224.9z"/>
										<path fill="#92E3A9" d="M229.7,265.5h-1.3l-0.2-1.5h-1.5l-0.2,1.5h-1.2l1.3-8h1.8L229.7,265.5z M226.9,263h1.2l-0.6-4.1
											L226.9,263z"/>
										<path fill="#92E3A9" d="M230.3,257.5h1.3v6.9h2.1v1.1h-3.3V257.5z"/>
									</g>
								</g>
							</g>
							<g>
								<path fill="#FFFFFF" d="M189.1,202.8c0-2.9,1.5-4.6,4.4-4.6c2.8,0,4.4,1.7,4.4,4.6v9.6c0,2.9-1.5,4.6-4.4,4.6
									c-2.8,0-4.4-1.7-4.4-4.6V202.8z M192,212.5c0,1.3,0.6,1.8,1.5,1.8c0.9,0,1.5-0.5,1.5-1.8v-9.9c0-1.3-0.6-1.8-1.5-1.8
									c-0.9,0-1.5,0.5-1.5,1.8V212.5z"/>
								<path fill="#FFFFFF" d="M199.6,202.9c0-3.1,1.4-4.8,4.4-4.8c2.8,0,4.3,1.7,4.3,4.6v0.5h-2.7v-0.7c0-1.3-0.6-1.8-1.5-1.8
									c-1,0-1.6,0.5-1.6,2.3v3.4c0.5-1,1.4-1.6,2.7-1.6c2.1,0,3.2,1.5,3.2,4.2v3.4c0,2.9-1.5,4.6-4.4,4.6c-2.8,0-4.4-1.7-4.4-4.6
									V202.9z M202.5,209.2v3.3c0,1.3,0.6,1.8,1.5,1.8c0.9,0,1.5-0.5,1.5-1.8v-3.3c0-1.3-0.6-1.8-1.5-1.8
									C203,207.4,202.5,207.9,202.5,209.2z"/>
								<path fill="#FFFFFF" d="M212.9,213.9v2.8h-2.8v-2.8H212.9z"/>
								<path fill="#FFFFFF" d="M214.8,202.8c0-2.9,1.5-4.6,4.4-4.6c2.8,0,4.4,1.7,4.4,4.6v9.6c0,2.9-1.5,4.6-4.4,4.6
									c-2.8,0-4.4-1.7-4.4-4.6V202.8z M217.7,212.5c0,1.3,0.6,1.8,1.5,1.8c0.9,0,1.5-0.5,1.5-1.8v-9.9c0-1.3-0.6-1.8-1.5-1.8
									c-0.9,0-1.5,0.5-1.5,1.8V212.5z"/>
								<path fill="#FFFFFF" d="M233.9,198.3v2.5l-4.3,15.9h-2.9L231,201h-5.7v-2.6H233.9z"/>
								<path fill="#FFFFFF" d="M238.6,213.9v2.8h-2.8v-2.8H238.6z"/>
								<path fill="#FFFFFF" d="M242.5,200.7c2.2,0,2.7-1.1,3.2-2.3h1.9v18.4h-2.9v-14h-2.2V200.7z"/>
								<path fill="#FFFFFF" d="M255.2,216.9c-2.9,0-4.5-1.7-4.5-4.6v-1.4c0-1.8,0.5-3.1,1.8-3.8c-1.2-0.7-1.8-1.9-1.8-3.7v-0.6
									c0-2.9,1.6-4.6,4.5-4.6c2.9,0,4.5,1.7,4.5,4.6v0.6c0,1.8-0.6,3-1.8,3.7c1.3,0.7,1.8,2.1,1.8,3.8v1.4
									C259.8,215.2,258.2,216.9,255.2,216.9z M253.6,203.9c0,1.5,0.7,1.9,1.6,1.9c0.9,0,1.6-0.5,1.6-1.9v-1c0-1.7-0.7-2.1-1.6-2.1
									c-0.9,0-1.6,0.4-1.6,2.1V203.9z M255.2,214.3c0.9,0,1.6-0.4,1.6-2.1v-1.7c0-1.4-0.6-2.1-1.6-2.1c-1,0-1.6,0.6-1.6,2.1v1.7
									C253.6,213.9,254.3,214.3,255.2,214.3z"/>
							</g>
						</g>
					</g>
					<g>
						<g>
							<path fill="#FFFFFF" d="M281.9,171.5c-1.7,0-2.6-1-2.6-2.7V168c0-1,0.3-1.8,1-2.2c-0.7-0.4-1-1.1-1-2.1v-0.3
								c0-1.7,0.9-2.7,2.6-2.7c1.7,0,2.6,1,2.6,2.7v0.3c0,1.1-0.4,1.8-1,2.1c0.7,0.4,1,1.2,1,2.2v0.8
								C284.5,170.6,283.6,171.5,281.9,171.5z M280.9,164c0,0.9,0.4,1.1,0.9,1.1c0.5,0,0.9-0.3,0.9-1.1v-0.6c0-1-0.4-1.2-0.9-1.2
								c-0.5,0-0.9,0.3-0.9,1.2V164z M281.9,170c0.5,0,0.9-0.3,0.9-1.2v-1c0-0.8-0.4-1.2-0.9-1.2c-0.6,0-0.9,0.4-0.9,1.2v1
								C280.9,169.8,281.3,170,281.9,170z"/>
							<path fill="#FFFFFF" d="M287.1,164v1.6h-1.6V164H287.1z M287.1,169.8v1.6h-1.6v-1.6H287.1z"/>
							<path fill="#FFFFFF" d="M290.8,162.2c-0.5,0-0.9,0.3-0.9,1.1v1.1h-1.6v-1c0-1.7,0.9-2.7,2.5-2.7c1.6,0,2.5,1,2.5,2.7
								c0,3.4-3.3,4.6-3.3,6.4c0,0.1,0,0.2,0,0.2h3.2v1.5h-4.8v-1.3c0-3.1,3.3-3.7,3.3-6.7C291.7,162.4,291.3,162.2,290.8,162.2z"/>
							<path fill="#FFFFFF" d="M297.6,163.4c0-1-0.3-1.2-0.9-1.2c-0.5,0-0.9,0.3-0.9,1.1v0.7h-1.6v-0.6c0-1.7,0.9-2.7,2.5-2.7
								c1.6,0,2.5,1,2.5,2.7v0.3c0,1.1-0.4,1.9-1.2,2.2c0.8,0.4,1.2,1.2,1.2,2.2v0.8c0,1.7-0.9,2.7-2.5,2.7c-1.6,0-2.5-1-2.5-2.7
								V168h1.6v1c0,0.8,0.3,1.1,0.9,1.1c0.5,0,0.9-0.3,0.9-1.2V168c0-1-0.3-1.4-1.1-1.4H296v-1.5h0.7c0.6,0,1-0.3,1-1.1V163.4z"/>
						</g>
						<g>
							<path fill="#92E3A9" d="M281.7,174.3c1.6,0,2.5,0.7,2.5,1.9v0.2h-1.6v-0.3c0-0.6-0.3-0.8-0.8-0.8c-0.5,0-0.8,0.2-0.8,0.8
								c0,1.6,3.3,1.9,3.3,4.1c0,1.2-0.9,1.9-2.5,1.9c-1.6,0-2.5-0.7-2.5-1.9v-0.5h1.6v0.6c0,0.6,0.3,0.8,0.9,0.8s0.9-0.2,0.9-0.8
								c0-1.6-3.3-1.9-3.3-4.1C279.3,175,280.1,174.3,281.7,174.3z"/>
							<path fill="#92E3A9" d="M286.8,174.4v6c0,0.6,0.3,0.8,0.9,0.8c0.5,0,0.9-0.2,0.9-0.8v-6h1.6v5.9c0,1.2-0.9,1.9-2.5,1.9
								c-1.6,0-2.5-0.7-2.5-1.9v-5.9H286.8z"/>
							<path fill="#92E3A9" d="M292.7,176.5v5.6h-1.5v-7.7h2.1l1.7,4.6v-4.6h1.5v7.7h-1.7L292.7,176.5z"/>
						</g>
					</g>
				</g>
			</g>
			<g>
				<path fill="#FFFFFF" d="M240.1,299.7c0,0.9-0.7,1.6-1.6,1.6c-0.9,0-1.6-0.7-1.6-1.6c0-0.9,0.7-1.6,1.6-1.6
					C239.4,298.1,240.1,298.8,240.1,299.7z"/>
				<path fill="#FFFFFF" d="M249.6,299.7c0,0.9-0.7,1.6-1.6,1.6c-0.9,0-1.6-0.7-1.6-1.6c0-0.9,0.7-1.6,1.6-1.6
					C248.9,298.1,249.6,298.8,249.6,299.7z"/>
				<path fill="#FFFFFF" d="M259.1,299.7c0,0.9-0.7,1.6-1.6,1.6c-0.9,0-1.6-0.7-1.6-1.6c0-0.9,0.7-1.6,1.6-1.6
					C258.4,298.1,259.1,298.8,259.1,299.7z"/>
			</g>
		</g>
	</g>
</g>
<g id="Clouds">
	<g>
		<path fill="none" stroke="#263238" stroke-linecap="round" stroke-linejoin="round" stroke-miterlimit="10" d="M339.8,134.3h58.5
			c2.1,0,3.2-2.6,1.7-4c-0.7-0.7-1.9-1.3-3.5-1.6c-0.9-0.2-1.6-1-1.8-1.9c-0.7-4.1-3.4-14.1-13.5-14.3c-9-0.2-13.3,5.5-15,8.7
			c-0.6,1.1-1.8,1.6-2.9,1.2c-1.9-0.7-4.8-0.8-7.2,3c-0.6,0.9-1.7,1.4-2.7,1.1c-2.1-0.6-5.7-1-8.3,2.4c-0.5,0.6-1.3,1-2.1,0.9
			c-0.9-0.1-2.1-0.2-3.4-0.1C336.5,129.7,336.7,134.3,339.8,134.3z"/>
		<path fill="none" stroke="#263238" stroke-linecap="round" stroke-linejoin="round" stroke-miterlimit="10" d="M84.8,128.9H175
			c3.3,0,5-4,2.6-6.2c-1.1-1.1-2.9-2-5.4-2.5c-1.4-0.3-2.5-1.5-2.8-2.9c-1-6.3-5.2-21.8-20.7-22.1c-13.9-0.3-20.5,8.5-23.2,13.5
			c-0.9,1.6-2.8,2.4-4.5,1.8c-2.9-1-7.4-1.3-11.1,4.7c-0.9,1.4-2.6,2.1-4.2,1.6c-3.3-1-8.7-1.5-12.8,3.7c-0.8,1-2,1.6-3.2,1.4
			c-1.3-0.2-3.2-0.3-5.2-0.2C79.8,121.8,80.1,128.9,84.8,128.9z"/>
	</g>
</g>
<g id="Floor">
	<g>
		<path fill="#BFBFBF" d="M402.7,432.4c-22.7,21-141.5,26.9-156.5,26.9c-15.9,0-122.3-3.6-153.1-26.9c-0.1,0-0.1-0.1-0.2-0.1l106-30
			h96.9L402.7,432.4z"/>
		<g>
			
				<line fill="none" stroke="#263238" stroke-linecap="round" stroke-linejoin="round" stroke-miterlimit="10" x1="350.6" y1="437" x2="276.2" y2="402.3"/>
			
				<line fill="none" stroke="#263238" stroke-linecap="round" stroke-linejoin="round" stroke-miterlimit="10" x1="372.1" y1="447" x2="354.1" y2="438.6"/>
			
				<line fill="none" stroke="#263238" stroke-linecap="round" stroke-linejoin="round" stroke-miterlimit="10" x1="266.7" y1="415.3" x2="257.4" y2="402.3"/>
			
				<line fill="none" stroke="#263238" stroke-linecap="round" stroke-linejoin="round" stroke-miterlimit="10" x1="289.4" y1="447" x2="268.9" y2="418.4"/>
			
				<line fill="none" stroke="#263238" stroke-linecap="round" stroke-linejoin="round" stroke-miterlimit="10" x1="215.1" y1="435.2" x2="238.6" y2="402.3"/>
			
				<line fill="none" stroke="#263238" stroke-linecap="round" stroke-linejoin="round" stroke-miterlimit="10" x1="206.6" y1="447" x2="212" y2="439.5"/>
			
				<line fill="none" stroke="#263238" stroke-linecap="round" stroke-linejoin="round" stroke-miterlimit="10" x1="190" y1="416.2" x2="219.8" y2="402.3"/>
			
				<line fill="none" stroke="#263238" stroke-linecap="round" stroke-linejoin="round" stroke-miterlimit="10" x1="123.9" y1="447" x2="184.4" y2="418.8"/>
			<polyline fill="none" stroke="#263238" stroke-linecap="round" stroke-linejoin="round" stroke-miterlimit="10" points="
				42.5,446.5 92.9,432.2 198.9,402.3 			"/>
			<polyline fill="none" stroke="#263238" stroke-linecap="round" stroke-linejoin="round" stroke-miterlimit="10" points="
				454.8,402.3 427,402.3 426.6,402.3 385,402.3 380,402.3 295.8,402.3 295.6,402.3 295,402.3 276.2,402.3 257.4,402.3 238.6,402.3 
				219.8,402.3 201,402.3 198.9,402.3 69.6,402.3 69.4,402.3 41.2,402.3 			"/>
			<polyline fill="none" stroke="#263238" stroke-linecap="round" stroke-linejoin="round" stroke-miterlimit="10" points="
				295.8,402.3 402.7,432.4 458.9,448.3 			"/>
		</g>
	</g>
</g>
<g id="Trees">
	<g>
		<g>
			<g>
				<g>
					<path fill="#92E3A9" d="M419.6,383.3c0,0,17.6-1.3,26.4-18c9.5-18.1-13.7-61-25.5-64.2c-13-3.5-33.5,30.8-29.3,57.4
						C394.1,376.8,411.5,382.9,419.6,383.3z"/>
					<path opacity="0.3" fill="#FFFFFF" d="M419.6,383.3c0,0,17.6-1.3,26.4-18c9.5-18.1-13.7-61-25.5-64.2
						c-13-3.5-33.5,30.8-29.3,57.4C394.1,376.8,411.5,382.9,419.6,383.3z"/>
					<path fill="#FFFFFF" stroke="#263238" stroke-linecap="round" stroke-linejoin="round" stroke-miterlimit="10" d="M431.9,352.6
						l-11.3,12.4c0,0.4,0,0.9,0,1.3c0.1,5.5,0.2,11.2,0.3,17c0,0.4,0,0.8,0,1.1c0.1,4.5,0.3,14.1,0.3,18.6c0,1.4-1.1,2.5-2.5,2.6
						l0,0c-1.4,0-2.6-1.2-2.5-2.6l0.4-18.6l0-1.3l0.1-2.1l0.1-3.1l-14.5-15.7c1.2,0-0.9-2.2-1.1-2.4l15.7,12.4l0.6-26.9l-9.5-10.3
						c0.8,0-0.7-1.5-0.8-1.7l10.4,8.2l0-0.5l0.6-23.4l1.6,1.7c0,0,0.3,18.3,0.7,41.3l12.3-9.8C432.7,350.7,431,352.6,431.9,352.6z"
						/>
				</g>
			</g>
		</g>
		<g>
			<g>
				<path fill="#92E3A9" d="M87.6,383.2c1,0.1,2,0,3-0.1c5.1-0.9,19.9-5.3,35.9-27.6c17.4-24.2-15.6-99.2-34.1-116.5
					C74,221.8,38,316,42.1,339.9C48,373.1,72.5,382,87.6,383.2z"/>
				<path opacity="0.3" fill="#FFFFFF" d="M87.6,383.2c1,0.1,2,0,3-0.1c5.1-0.9,19.9-5.3,35.9-27.6c17.4-24.2-15.6-99.2-34.1-116.5
					C74,221.8,38,316,42.1,339.9C48,373.1,72.5,382,87.6,383.2z"/>
			</g>
			<path fill="#FFFFFF" stroke="#263238" stroke-linecap="round" stroke-linejoin="round" stroke-miterlimit="10" d="M121.8,333.9
				l-27.6,27.4l2.6,65.3c0.1,2.5-1.9,4.6-4.5,4.6l0,0c-2.5,0-4.5-2-4.5-4.5c0-13.2,0.3-54.1,0.6-100.4l-21.2-20.3
				c1.6,0-1.3-2.7-1.6-3l22.8,15.8c0.2-35.1,0.4-63.4,0.4-63.4l2.1-2.6l1.2,37.6l19.5-14.1c-0.3,0.3-3.2,3-1.6,3l-17.8,17.7
				l1.7,54.1l30.1-21.7C123.6,329.9,119.5,333.9,121.8,333.9z"/>
		</g>
	</g>
</g>
<g id="Graphics">
	<g>
		<g>
			<g>
				<g>
					<g>
						<g>
							<path fill="#FFFFFF" d="M248,388.6c-79.6,0-144.3-64.7-144.3-144.3S168.4,100.1,248,100.1c79.6,0,144.3,64.7,144.3,144.3
								S327.6,388.6,248,388.6z M248,109.1c-74.6,0-135.3,60.7-135.3,135.3c0,74.6,60.7,135.3,135.3,135.3
								c74.6,0,135.3-60.7,135.3-135.3C383.3,169.8,322.6,109.1,248,109.1z"/>
						</g>
					</g>
				</g>
				<g>
					<path fill="#92E3A9" d="M248,388.6c-79.6,0-144.3-64.7-144.3-144.3S168.4,100.1,248,100.1c79.6,0,144.3,64.7,144.3,144.3
						c0,2.5-2,4.5-4.5,4.5c-2.5,0-4.5-2-4.5-4.5c0-74.6-60.7-135.3-135.3-135.3c-74.6,0-135.3,60.7-135.3,135.3
						c0,74.6,60.7,135.3,135.3,135.3c2.5,0,4.5,2,4.5,4.5C252.5,386.6,250.5,388.6,248,388.6z"/>
				</g>
			</g>
		</g>
		<g>
			<g>
				<g>
					<g>
						<g>
							<g>
								<path fill="#92E3A9" d="M244,53.6c-6.4,0-11.5,5.2-11.5,11.5c0,4,4.7,12.3,8.1,17.8c1.9,3.1,3.5,5.3,3.5,5.3
									s1.5-2.2,3.4-5.3c3.4-5.5,8.1-13.7,8.1-17.8C255.5,58.7,250.3,53.6,244,53.6z M244,70.7c-2.9,0-5.2-2.3-5.2-5.2
									c0-2.9,2.3-5.2,5.2-5.2c2.9,0,5.2,2.3,5.2,5.2C249.2,68.4,246.9,70.7,244,70.7z"/>
							</g>
						</g>
						<g>
							<g>
								<path fill="#263238" d="M222.9,61c-5,0-9,4-9,9c0,3.2,3.7,9.7,6.3,14c1.5,2.5,2.7,4.2,2.7,4.2s1.2-1.7,2.7-4.2
									c2.7-4.3,6.3-10.8,6.3-14C232,65.1,227.9,61,222.9,61z M222.9,74.5c-2.3,0-4.1-1.8-4.1-4.1c0-2.3,1.8-4.1,4.1-4.1
									c2.3,0,4.1,1.8,4.1,4.1C227.1,72.7,225.2,74.5,222.9,74.5z"/>
							</g>
						</g>
					</g>
					<g>
						<g>
							<g>
								<path fill="#263238" d="M243.9,89C243.9,89,243.9,89,243.9,89l-4.7,0c-0.3,0-0.6-0.3-0.6-0.6c0-0.3,0.3-0.6,0.6-0.6l4.7,0
									c0.3,0,0.6,0.3,0.6,0.6C244.5,88.7,244.2,89,243.9,89z M235.7,88.9C235.7,88.9,235.7,88.9,235.7,88.9c-1.3,0-2.6,0-3.8,0
									H231c-0.3,0-0.6-0.3-0.6-0.6c0-0.3,0.3-0.6,0.6-0.6h0.9c1.2,0,2.5,0,3.8,0c0.3,0,0.6,0.3,0.6,0.6
									C236.3,88.6,236,88.9,235.7,88.9z"/>
							</g>
						</g>
						<path fill="#263238" d="M227.6,88.9C227.6,88.9,227.6,88.9,227.6,88.9c-1.3,0-2.6,0-3.8,0H223c-0.3,0-0.6-0.3-0.6-0.6
							c0-0.3,0.3-0.6,0.6-0.6h0.9c1.2,0,2.5,0,3.8,0c0.3,0,0.6,0.3,0.6,0.6C228.2,88.6,228,88.9,227.6,88.9z"/>
					</g>
				</g>
				<g>
					<g>
						<path fill="#263238" d="M264.7,56.9c-1,0-1.7,0.6-1.7,2v2.2h-3.1v-2c0-3.3,1.7-5.2,4.8-5.2c3.2,0,4.8,1.9,4.8,5.2
							c0,6.5-6.5,8.9-6.5,12.3c0,0.1,0,0.3,0,0.4h6.1v2.9h-9.4v-2.5c0-6.1,6.4-7.1,6.4-13C266.3,57.4,265.7,56.9,264.7,56.9z"/>
						<path fill="#263238" d="M277.9,59.3c0-1.9-0.6-2.4-1.7-2.4c-1,0-1.7,0.6-1.7,2v1.3h-3.1v-1.1c0-3.3,1.7-5.2,4.8-5.2
							c3.2,0,4.8,1.9,4.8,5.2v0.5c0,2.2-0.7,3.6-2.3,4.2c1.6,0.7,2.3,2.2,2.3,4.3v1.6c0,3.3-1.7,5.2-4.8,5.2c-3.2,0-4.8-1.9-4.8-5.2
							v-1.7h3.1v1.9c0,1.5,0.6,2,1.7,2c1,0,1.7-0.5,1.7-2.3v-1.6c0-1.9-0.6-2.6-2.1-2.6h-1.1v-2.9h1.3c1.2,0,1.9-0.5,1.9-2.2V59.3z"
							/>
					</g>
					<g>
						<path fill="#263238" d="M262.6,85.4l0.9-5.9h1.8v8.3H264v-6l-0.9,6h-1.2l-1-5.9v5.9h-1.1v-8.3h1.8L262.6,85.4z"/>
						<path fill="#263238" d="M266.2,79.5h1.3v8.3h-1.3V79.5z"/>
						<path fill="#263238" d="M268.5,79.5h1.3v7.1h2.2v1.2h-3.5V79.5z"/>
						<path fill="#263238" d="M273.8,83h1.8v1.2h-1.8v2.4h2.3v1.2h-3.6v-8.3h3.6v1.2h-2.3V83z"/>
						<path fill="#263238" d="M278.7,79.4c1.3,0,1.9,0.8,1.9,2.1v0.3h-1.2v-0.3c0-0.6-0.2-0.8-0.7-0.8c-0.4,0-0.7,0.2-0.7,0.8
							c0,1.7,2.6,2,2.6,4.4c0,1.3-0.7,2.1-2,2.1c-1.3,0-2-0.8-2-2.1v-0.5h1.2v0.6c0,0.6,0.3,0.8,0.7,0.8c0.4,0,0.7-0.2,0.7-0.8
							c0-1.7-2.6-2-2.6-4.4C276.8,80.1,277.4,79.4,278.7,79.4z"/>
					</g>
				</g>
			</g>
		</g>
	</g>
</g>
<g id="Character">
	<g>
		<g>
			<path fill="#FFFFFF" stroke="#263238" stroke-linecap="round" stroke-linejoin="round" stroke-miterlimit="10" d="M258.5,420.6
				c0,0-3.5,1.1-3.3,5.4c0.3,4.3-4.4,16,0.3,18.7c5.3,2.9,14.4,2.7,15.1,0.2c0.7-2.5-2.2-6.5-1.9-9.7c0.3-3.1,2.6-13.4-1.2-14.4
				C263.6,419.8,258.5,420.6,258.5,420.6z"/>
			<path fill="#999999" stroke="#263238" stroke-linecap="round" stroke-linejoin="round" stroke-miterlimit="10" d="M257.5,423.3
				c0.4,0.4,0.8,1,1,2c0.3,2.4,1.1-3.2,5-2.6c3.9,0.6,2.6,3.7,3.2,3.9c0.4,0.1,0.4-1,0.7-2.1c0.1-5.5,0.4-16,1.4-20.5
				c1.4-6.3,3.1-17.5,2.3-21.3c0,0,7.1-7.8,7.9-34.9l-20.2-0.3l-0.3,27.4c0,0-5.7,7.1-3.6,21.3C256.2,406.3,257.1,417.7,257.5,423.3
				z"/>
			<path fill="none" stroke="#263238" stroke-linecap="round" stroke-linejoin="round" stroke-miterlimit="10" d="M270.4,442.2
				c0,0-3.9-3.5-7.6-3.4"/>
		</g>
		<g>
			<path fill="#FFFFFF" stroke="#263238" stroke-linecap="round" stroke-linejoin="round" stroke-miterlimit="10" d="M285.5,387.9
				c0,0-3.1,5.1-1,12.3c2.2,7.2-1.3,15.5,3.4,18.5c4.7,3,17.5,1.6,13.8-9.3c-3.7-10.8-2.3-17.8-6.6-20.3
				C290.8,386.6,285.5,387.9,285.5,387.9z"/>
			<path fill="#999999" stroke="#263238" stroke-linecap="round" stroke-linejoin="round" stroke-miterlimit="10" d="M307.8,321.7
				l-15.7,1.2l-9.5,7.3c0,0-0.7,12.9,3.5,21.4l2.4,8.3c0,0-1.8,4-1.5,10.1c0.4,6.1,1.9,10.8,0,16c-0.9,2.4-1,4.6-0.9,6.2
				c0.2,0.3,0.4,0.6,0.6,1.2c0.8,2.6,2.2-2.7,5.7-2.3c3.5,0.4,1.8,3.1,2.5,3.1c2-6,11.5-34.8,7.6-42.3c0,0,6.4-6.9,8.1-15.4
				C312.3,327.9,307.8,321.7,307.8,321.7z"/>
		</g>
		<path fill="#263238" d="M301.7,217c0,0,5.9-7.2,0.7-11.6c0,0-3-13.4-12.2-10.2s-8.1,5.5-8.1,5.5s-10.3,0.4-9.5,5.9
			c0.8,5.6,2.8,5.1,2.8,5.1s-2.8,1.3-1.8,5.5c1,4.2,5.6,3.9,5.6,3.9L301.7,217z"/>
		<g>
			<path fill="#999999" stroke="#263238" stroke-linecap="round" stroke-linejoin="round" stroke-miterlimit="10" d="M317.6,254.4
				c2,0.9,7.4,4.8,7.4,4.8s-0.4,3.4,5.1,9.3c5.5,6,8,17.3,8,17.3c-2.8,4.9-2.2,5.5-2.4,9.2c-0.2,3.7-1.3,5.9-0.5,8.5
				c0.8,2.5,3.2,1.1,3.2,1.1c3.4,0,5.4-6.3,5.4-6.3s1.7-9.6-1.1-22.6c-2.9-13-7.8-22.2-7.8-22.2s-5.9-7-8.1-9.1
				c-2.7-2.5-11.7-9-11.7-9l-2.6,17.7C312.3,253,316.4,253.9,317.6,254.4z"/>
			<path fill="#FFFFFF" stroke="#263238" stroke-linecap="round" stroke-linejoin="round" stroke-miterlimit="10" d="M316,255
				l-0.3,1.5c1.4-2.9,2.8-5.8,3.5-8.9c0.8-3.4,0.8-7.2-0.6-10.4c-0.6-1.4-2.4-3.4-3.6-1.7c1.1,4.3,1.6,8.7,1.5,13.1
				C316.5,250.6,316.3,252.8,316,255z"/>
			<path fill="#FFFFFF" stroke="#263238" stroke-linecap="round" stroke-linejoin="round" stroke-miterlimit="10" d="M315.3,257.3
				c0.1-0.3,0.3-0.6,0.4-0.8l0,0l0.3-1.5c0.3-2.2,0.5-4.3,0.5-6.5c0.1-4.4-0.5-8.8-1.5-13.1c0,0,0,0,0,0.1c-0.8,1.2,0.7,4.8,0.9,6.1
				c0.4,2.6,0.4,5.3,0.2,8C315.9,251.6,316.2,255.4,315.3,257.3z"/>
			<path fill="none" stroke="#263238" stroke-linecap="round" stroke-linejoin="round" stroke-miterlimit="10" d="M327.3,259.3
				c0,0,3.7,1.1,5.4-3.5"/>
			<path fill="none" stroke="#263238" stroke-linecap="round" stroke-linejoin="round" stroke-miterlimit="10" d="M340.2,291.1
				c0,0-1,2-1.4,4.4c-0.4,2.4-1,4.8-3.2,3"/>
		</g>
		<path fill="#263238" stroke="#263238" stroke-linecap="round" stroke-linejoin="round" stroke-miterlimit="10" d="M261.8,317.1
			c0,0-5.1,10-5.1,32.7c0,0,7.6,3.2,14.8,0.2c7.2-3.1,9.7,0.3,9.7,0.3l1.2-7.6c0,0-0.7-16.9,13.9-15.6c14.6,1.3,12.6,14.5,12.6,14.5
			s7-18.6,1.7-26.5C305.3,307.3,261.8,317.1,261.8,317.1z"/>
		<g>
			<path fill="none" stroke="#7F7F7F" stroke-linecap="round" stroke-linejoin="round" d="M281.7,327.3c-1,2.6-1.7,6.7-1.1,12.7"/>
			<path fill="none" stroke="#7F7F7F" stroke-linecap="round" stroke-linejoin="round" d="M284.8,322.8c0,0-0.7,0.4-1.5,1.4"/>
		</g>
		<g>
			<defs>
				<path id="XMLID_1_" d="M315,235.4C314.9,235.4,314.9,235.3,315,235.4c-25-10.3-45.9,2.1-52.7,6.9c2.8,0.6,5.6,3,7.2,6.8
					c3.5,7.9,1.3,12.9-0.7,19c0.7-5.6-0.7-11.5-3.8-16.2c-1.1-1.6-2.6-3.2-4.4-3.6l3.1,24.3l-4.6,46.4c0,0,1.9,7.7,24.3,0.3
					c22.3-7.4,29.2,0.4,29.2,0.4l-2.4-21.6c-0.5-4.5-0.4-9,0.5-13.4l5.2-28.3l0,0l0.3-1.5c0.3-2.2,0.5-4.3,0.5-6.5
					C316.5,244,316,239.6,315,235.4z"/>
			</defs>
			<use xlink:href="#XMLID_1_"  overflow="visible" fill="#FFFFFF"/>
			<clipPath id="XMLID_4_">
				<use xlink:href="#XMLID_1_"  overflow="visible"/>
			</clipPath>
			<g clip-path="url(#XMLID_4_)">
				<g>
					<path fill="#92E3A9" d="M266,253.8c1.4,1.2,2.7,2.5,4.1,3.7c0.2-0.9,0.5-1.9,0.7-2.8c0.1,1.1,0.2,2.2,0.3,3.3
						c1.3-0.9,2.7-1.9,4-2.8c0,2.6-0.8,5.2-2.2,7.5c1.2-0.1,2.1,1.1,2.3,2.2c0.1,1.2-0.3,2.3-0.7,3.4c-2.4,6.3-3.5,13-3.4,19.7
						c0,0.7,0.2,1.7,1,1.8c0.5,0.1,0.9-0.3,1.2-0.6c5.1-4.7,10.3-9.4,15.4-14.2c-1.9,4.8-3.8,9.6-5.7,14.4
						c8.8-5.1,16.4-12.3,21.9-20.9c-4.1,9.7-10.8,18.3-19.2,24.6c-1.1,0.8-2.3,1.7-3,2.9c-0.7,1.2-0.8,2.9,0.2,3.9
						c1,1,2.6,0.9,3.9,0.9c5.6-0.2,11.2,1,16.3,3.3c-3.7,0.4-7.5,0.8-11,2.3c-3.5,1.4-6.6,4-7.9,7.5c5.8-0.2,11.6,0.4,17.3,1.7
						c-6.4,1.5-12.8,2.9-19.2,4.4c-4.8,1.1-9.7,2.2-14.7,2.4c-2.9,0.1-6.3-0.4-7.6-2.9c-0.7-1.4-0.6-3.1-0.5-4.7
						c0.9-10.2,2.8-20.4,5.5-30.3c1.4-5,3-10,3.6-15.2c0.7-5.2,0.3-10.6-2-15.3C266.8,253.6,266,253.8,266,253.8z"/>
					<g opacity="0.5">
						<path fill="#FFFFFF" d="M266,253.8c1.4,1.2,2.7,2.5,4.1,3.7c0.2-0.9,0.5-1.9,0.7-2.8c0.1,1.1,0.2,2.2,0.3,3.3
							c1.3-0.9,2.7-1.9,4-2.8c0,2.6-0.8,5.2-2.2,7.5c1.2-0.1,2.1,1.1,2.3,2.2c0.1,1.2-0.3,2.3-0.7,3.4c-2.4,6.3-3.5,13-3.4,19.7
							c0,0.7,0.2,1.7,1,1.8c0.5,0.1,0.9-0.3,1.2-0.6c5.1-4.7,10.3-9.4,15.4-14.2c-1.9,4.8-3.8,9.6-5.7,14.4
							c8.8-5.1,16.4-12.3,21.9-20.9c-4.1,9.7-10.8,18.3-19.2,24.6c-1.1,0.8-2.3,1.7-3,2.9c-0.7,1.2-0.8,2.9,0.2,3.9
							c1,1,2.6,0.9,3.9,0.9c5.6-0.2,11.2,1,16.3,3.3c-3.7,0.4-7.5,0.8-11,2.3c-3.5,1.4-6.6,4-7.9,7.5c5.8-0.2,11.6,0.4,17.3,1.7
							c-6.4,1.5-12.8,2.9-19.2,4.4c-4.8,1.1-9.7,2.2-14.7,2.4c-2.9,0.1-6.3-0.4-7.6-2.9c-0.7-1.4-0.6-3.1-0.5-4.7
							c0.9-10.2,2.8-20.4,5.5-30.3c1.4-5,3-10,3.6-15.2c0.7-5.2,0.3-10.6-2-15.3C266.8,253.6,266,253.8,266,253.8z"/>
					</g>
				</g>
			</g>
			
				<use xlink:href="#XMLID_1_"  overflow="visible" fill="none" stroke="#263238" stroke-linecap="round" stroke-linejoin="round" stroke-miterlimit="10"/>
		</g>
		<g>
			<path fill="none" stroke="#263238" stroke-linecap="round" stroke-linejoin="round" stroke-miterlimit="10" d="M305.3,267.8
				c-7.3,17.4-22.7,31.2-40.7,36.6"/>
			<path fill="none" stroke="#263238" stroke-linecap="round" stroke-linejoin="round" stroke-miterlimit="10" d="M303.3,303.3
				c-12.5-3.2-26.1-1.7-37.5,4.3"/>
			<path fill="none" stroke="#263238" stroke-linecap="round" stroke-linejoin="round" stroke-miterlimit="10" d="M275.8,250
				c0.7,5.8-1.4,11.9-5.4,16.2"/>
			<path fill="none" stroke="#263238" stroke-linecap="round" stroke-linejoin="round" stroke-miterlimit="10" d="M307.5,243.2
				c3.2,4.7,4.9,10.4,4.7,16"/>
		</g>
		<path fill="#999999" stroke="#263238" stroke-linecap="round" stroke-linejoin="round" stroke-miterlimit="10" d="M281.1,229.7
			c0,0-0.8,13,7.3,13.1c10.3,0.1,9.9-11.7,9.9-11.7L281.1,229.7z"/>
		<path fill="#999999" stroke="#263238" stroke-linecap="round" stroke-linejoin="round" stroke-miterlimit="10" d="M280,216.2
			c0,0-0.5,11.5,1.3,14.5c1.8,3,6.9,7.4,10.8,7.5c4,0,9-5.4,9.3-7.6c0.3-2.2,0.2-16.6,0.2-16.6s-0.4-11.3-9.1-11.4
			C284,202.6,280.1,209.4,280,216.2z"/>
		<path fill="#999999" stroke="#263238" stroke-linecap="round" stroke-linejoin="round" stroke-miterlimit="10" d="M301.7,217.3
			c0.6-0.3,1.2-0.5,1.7-0.3c1.3,0.5,1.9,2.4,1.2,4.3c-0.6,1.6-1.8,2.7-3,2.8C301.7,221.8,301.7,219.3,301.7,217.3z"/>
		<path fill="#263238" d="M288.1,217.3c0,0.7-0.4,1.3-0.8,1.2c-0.4,0-0.8-0.6-0.8-1.3c0-0.7,0.4-1.3,0.8-1.2
			C287.8,216.1,288.2,216.6,288.1,217.3z"/>
		<g>
			<g>
				<g>
					<path fill="#263238" stroke="#263238" stroke-linecap="round" stroke-linejoin="round" stroke-miterlimit="10" d="M295.3,228.3
						c0.1,1.6-0.1,2.9-0.3,4.1c0,0,0,0,0,0c0,0.1,0,0.2-0.1,0.2c-0.1,0.4-0.3,0.8-0.6,1.1c0,0,0,0,0,0c-0.6,0.7-1.4,1.1-2.2,0.9
						c-0.8-0.2-1.3-0.7-1.6-1.5c0,0,0,0,0,0l0,0c-0.2-0.5-0.3-1-0.4-1.6c0-0.1,0-0.2,0-0.3c0-0.9,0.1-1.8,0.4-2.6L295.3,228.3z"/>
				</g>
				<path fill="#FFFFFF" stroke="#263238" stroke-linecap="round" stroke-linejoin="round" stroke-miterlimit="10" d="M290.5,228.7
					l4.3,0.1c0,0,0.5-0.2,0.5-0.6c0-0.1,0-0.2-0.1-0.3c0,0,0,0,0-0.1c-0.3-0.3-0.6-0.6-1-0.8c-0.5-0.2-1.1-0.2-1.7-0.2
					c-0.1,0-0.3,0.1-0.4,0.2C291.2,227.4,290.8,228,290.5,228.7z"/>
			</g>
			<g>
				<path fill="#FFFFFF" stroke="#263238" stroke-linecap="round" stroke-linejoin="round" stroke-miterlimit="10" d="M290.1,231.5
					C290.1,231.5,290.1,231.5,290.1,231.5c0.1-0.1,0-0.2,0.2-0.2c0.1,0,1.7,1.5,2.5,1.5c2.3,0,2-1.3,2-1.3c0.2,0.2,0.3,0.4,0.3,0.7
					c0,0.5-0.3,1-0.6,1.4c0,0,0,0,0,0c-0.3,0.3-0.6,0.5-0.9,0.6c-0.7,0.2-1.6,0.1-2.2-0.4c-0.3-0.2-0.5-0.5-0.7-0.8
					C289.9,232.4,290.1,231.6,290.1,231.5L290.1,231.5z"/>
			</g>
		</g>
		<path fill="#263238" d="M297.2,217.2c0,0.7-0.4,1.3-0.8,1.2c-0.4,0-0.8-0.6-0.8-1.3c0-0.7,0.4-1.3,0.8-1.2
			C296.9,216,297.2,216.5,297.2,217.2z"/>
		<path fill="none" stroke="#263238" stroke-linecap="round" stroke-linejoin="round" stroke-miterlimit="10" d="M294.3,214.6
			c0,0,2.7-2.3,4.7-1.2"/>
		<path fill="none" stroke="#263238" stroke-linecap="round" stroke-linejoin="round" stroke-miterlimit="10" d="M289.9,214.5
			c0,0-2.6-2.4-4.7-1.3"/>
		<g>
			<path fill="#999999" stroke="#263238" stroke-linecap="round" stroke-linejoin="round" stroke-miterlimit="10" d="M270.3,261.8
				c-1.8,7.1-3.9,17.6-3.9,17.6l8.2-7c0,0,3.3-8.7,6.1-11.3c1.1-1,2.2-6.6,3.7-5.9c1.5,0.7,0.5,4.2,0.5,4.2s2.1,0.4,3.1,1
				c1,0.5,3.4,9.9,2.2,10.8c-1.2,0.8-2.5-2.4-3.2,1.3c-0.7,3.7-7.2,7-7.2,7s-11,15-15.7,17.5c-4.7,2.5-9.8,3.8-11.2-9.4
				c-1.4-13.2,1.8-25.4,1.8-25.4s-2.8-14.4,5.2-18C268,240.4,272.3,254,270.3,261.8z"/>
			
				<line fill="none" stroke="#263238" stroke-linecap="round" stroke-linejoin="round" stroke-miterlimit="10" x1="261.3" y1="284.1" x2="266.9" y2="278.8"/>
			
				<line fill="none" stroke="#263238" stroke-linecap="round" stroke-linejoin="round" stroke-miterlimit="10" x1="280.4" y1="261.7" x2="285.2" y2="259.4"/>
			<path fill="none" stroke="#263238" stroke-linecap="round" stroke-linejoin="round" stroke-miterlimit="10" d="M257.7,263.2
				c0,0,1.8,2.9,4.7,3.3"/>
		</g>
		<g>
			<defs>
				<path id="XMLID_2_" d="M254.6,257c-0.2-1.9,0.5-3.2,1-5c0.5-1.8,2-3.4,3.8-3.7c0.4-0.1,0.8,0,1.1,0c1.8,0.3,3.4,1.9,4.4,3.6
					c3.1,4.7,4.5,10.6,3.8,16.2c2-6.1,4.2-11.1,0.7-19c-1.7-3.8-4.5-6.2-7.2-6.8c-3.3-0.7-6.5,1.2-7.7,6.4
					C253.9,251.6,253.7,254.2,254.6,257z"/>
			</defs>
			<use xlink:href="#XMLID_2_"  overflow="visible" fill="#FFFFFF"/>
			<clipPath id="XMLID_5_">
				<use xlink:href="#XMLID_2_"  overflow="visible"/>
			</clipPath>
			<g clip-path="url(#XMLID_5_)">
				<g>
					<path fill="#92E3A9" d="M266,253.8c1.4,1.2,2.7,2.5,4.1,3.7c0.2-0.9,0.5-1.9,0.7-2.8c0.1,1.1,0.2,2.2,0.3,3.3
						c1.3-0.9,2.7-1.9,4-2.8c0,2.6-0.8,5.2-2.2,7.5c1.2-0.1,2.1,1.1,2.3,2.2c0.1,1.2-0.3,2.3-0.7,3.4c-2.4,6.3-3.5,13-3.4,19.7
						c0,0.7,0.2,1.7,1,1.8c0.5,0.1,0.9-0.3,1.2-0.6c5.1-4.7,10.3-9.4,15.4-14.2c-1.9,4.8-3.8,9.6-5.7,14.4
						c8.8-5.1,16.4-12.3,21.9-20.9c-4.1,9.7-10.8,18.3-19.2,24.6c-1.1,0.8-2.3,1.7-3,2.9c-0.7,1.2-0.8,2.9,0.2,3.9
						c1,1,2.6,0.9,3.9,0.9c5.6-0.2,11.2,1,16.3,3.3c-3.7,0.4-7.5,0.8-11,2.3c-3.5,1.4-6.6,4-7.9,7.5c5.8-0.2,11.6,0.4,17.3,1.7
						c-6.4,1.5-12.8,2.9-19.2,4.4c-4.8,1.1-9.7,2.2-14.7,2.4c-2.9,0.1-6.3-0.4-7.6-2.9c-0.7-1.4-0.6-3.1-0.5-4.7
						c0.9-10.2,2.8-20.4,5.5-30.3c1.4-5,3-10,3.6-15.2c0.7-5.2,0.3-10.6-2-15.3C266.8,253.6,266,253.8,266,253.8z"/>
					<g opacity="0.5">
						<path fill="#FFFFFF" d="M266,253.8c1.4,1.2,2.7,2.5,4.1,3.7c0.2-0.9,0.5-1.9,0.7-2.8c0.1,1.1,0.2,2.2,0.3,3.3
							c1.3-0.9,2.7-1.9,4-2.8c0,2.6-0.8,5.2-2.2,7.5c1.2-0.1,2.1,1.1,2.3,2.2c0.1,1.2-0.3,2.3-0.7,3.4c-2.4,6.3-3.5,13-3.4,19.7
							c0,0.7,0.2,1.7,1,1.8c0.5,0.1,0.9-0.3,1.2-0.6c5.1-4.7,10.3-9.4,15.4-14.2c-1.9,4.8-3.8,9.6-5.7,14.4
							c8.8-5.1,16.4-12.3,21.9-20.9c-4.1,9.7-10.8,18.3-19.2,24.6c-1.1,0.8-2.3,1.7-3,2.9c-0.7,1.2-0.8,2.9,0.2,3.9
							c1,1,2.6,0.9,3.9,0.9c5.6-0.2,11.2,1,16.3,3.3c-3.7,0.4-7.5,0.8-11,2.3c-3.5,1.4-6.6,4-7.9,7.5c5.8-0.2,11.6,0.4,17.3,1.7
							c-6.4,1.5-12.8,2.9-19.2,4.4c-4.8,1.1-9.7,2.2-14.7,2.4c-2.9,0.1-6.3-0.4-7.6-2.9c-0.7-1.4-0.6-3.1-0.5-4.7
							c0.9-10.2,2.8-20.4,5.5-30.3c1.4-5,3-10,3.6-15.2c0.7-5.2,0.3-10.6-2-15.3C266.8,253.6,266,253.8,266,253.8z"/>
					</g>
				</g>
			</g>
			
				<use xlink:href="#XMLID_2_"  overflow="visible" fill="none" stroke="#263238" stroke-linecap="round" stroke-linejoin="round" stroke-miterlimit="10"/>
		</g>
		<g>
			<path fill="#263238" stroke="#263238" stroke-linecap="round" stroke-linejoin="round" stroke-miterlimit="10" d="M279.4,279.9
				c0.4,0.3,0.2,0.9-0.1,1.3c-0.5,0.7-1.1,1.4-1.7,2.1c-0.6,0.7-1,1-1.5,0.9c-0.5-0.1-2.2-1.1-4.6-4.6c-0.8-1.1-1.6-4.3-0.4-5.5
				c1.1-1.1,4.6-3.4,3.7-2.4C273,273.5,274,276.4,279.4,279.9z"/>
			<path fill="#FFFFFF" stroke="#263238" stroke-linecap="round" stroke-linejoin="round" stroke-miterlimit="10" d="M271.9,280.1
				L271.9,280.1c-2.1-2.5-2.4-3.7-2.4-3.7c-0.6-1,0.1-1.6,0.7-2.3l1.3-1.2c1-0.8,1.6-0.9,1.9,0l0.2,0.5c0.6,1.3,1,1.7,1.9,2.7
				l0.4,0.4c0.4,0.6,0.4,1.1-0.2,1.7l-2.3,2.2C273,280.8,272.3,280.6,271.9,280.1z"/>
			<path fill="#FFFFFF" stroke="#263238" stroke-linecap="round" stroke-linejoin="round" stroke-miterlimit="10" d="M270.9,279
				l-0.7,0.3l-0.9-1.3l0.6-0.5C269.9,277.4,270.4,278.2,270.9,279z"/>
		</g>
		
			<path fill="none" stroke="#263238" stroke-width="0.75" stroke-linecap="round" stroke-linejoin="round" stroke-miterlimit="10" d="
			M294,214.7c0,0-0.2,5.6,1.1,7.9c0.7,1.3-0.9,2.3-1.6,2.5c-0.7,0.2-3.5-0.9-3.2-2.3"/>
		<polygon fill="#263238" points="301.7,214.1 298.1,206.7 294,207.4 286.7,206.1 283.6,209.2 281.9,209.9 280,217.2 278,211.6 
			278.9,205.4 286.8,200.6 293.5,198.6 300.1,203.6 302.4,209 303.3,211.6 		"/>
		<g>
			<path fill="#263238" d="M280.5,225.8c0.3-1.7,1.2-3.2,2.5-4.3c-0.9-1-1.1-2.4-1.1-3.7c0-1.3,0.2-2.7,0-4
				c-0.1-0.3-0.2-0.7-0.4-0.9c-0.5-0.4-1.4,0-1.6,0.6c-0.4,1.2,0.1,3.9,0.1,5.2C279.9,221.1,280.1,223.5,280.5,225.8z"/>
			<path fill="#263238" d="M284.1,223.9c0.1,1.9,0.5,2.3,2.2,3.3c1.6,1,3.8,1.1,5.5,0.4c0.5-0.2,1-0.5,1.6-0.5
				c0.6,0,1.2,0.5,1.8,0.7c1.3,0.4,2.6-0.4,3.3-1.6c0.7-1.1,0.8-1.7,0.9-3c-0.7,1.7-3.1,1.5-4.5,0.3c0.7,0.5-2.2,1.3-2.5,1.3
				c-1-0.1-1.6-0.6-2.7-0.5C287.3,224.4,285.9,226.1,284.1,223.9z"/>
		</g>
		<path fill="#999999" stroke="#263238" stroke-linecap="round" stroke-linejoin="round" stroke-miterlimit="10" d="M277.6,216.4
			c0.8-0.3,1.7,0.1,2.4,0.8c0,1.3-0.1,3.7,0,6.1c-0.1,0-0.1,0.1-0.2,0.1c-1.3,0.4-2.9-0.8-3.5-2.8
			C275.7,218.7,276.3,216.8,277.6,216.4z"/>
		<path fill="#263238" d="M281.3,230.7c1.8,3,6.9,7.4,10.8,7.5c1.8,0,3.9-1.1,5.6-2.6c-0.5,1.8-1.5,3.9-3.3,5.3
			c-0.8,0.3-1.6,0.5-2.3,0.5c-3.9,0-8.9-4.3-10.8-7.4c-0.2-1.6-0.2-3-0.2-3.8C281.2,230.5,281.2,230.6,281.3,230.7z"/>
		<path fill="none" stroke="#263238" stroke-linecap="round" stroke-linejoin="round" stroke-miterlimit="10" d="M236.6,419.3
			c-1.8,0.1-2.9,2.2-2.6,4c0.3,1.8,1.5,3.2,2.8,4.4c0.8,0.8,1.8,1.5,2.9,1.7c1.1,0.2,2.5-0.3,2.8-1.4c1.1,0.9,2.8,1,4,0.3
			c1.2-0.8,1.9-2.3,1.5-3.7c2.3-1,3-4.4,1.4-6.3c-1.6-1.9-5.1-1.6-6.4,0.5C245.2,415.4,235.8,414.6,236.6,419.3z"/>
		<path fill="#FFFFFF" stroke="#263238" stroke-linecap="round" stroke-linejoin="round" stroke-miterlimit="10" d="M321.7,214.5
			c-1.4-1.4-4.4-1.1-6,0c-1.7,1.1-2.4,3.3-1.8,5.2c-0.7-0.1-1.5,0.3-1.8,0.9c-0.3,0.7-0.1,1.5,0.5,2c-1.2,0.3-2.1,1.3-2.3,2.5
			s0.3,2.5,1.3,3.2c-0.8,0.3-1.7,0.6-2.5,0.9c0.8,0.8,2,1,3,0.5c0,0.6,0.4,1.2,0.9,1.4s1.2,0.1,1.6-0.4c0.6,0.8,2.2,0.3,2.2-0.8
			c1,1.6,3.3,2.2,5,1.4c1.7-0.8,2.6-3,2-4.8c1.5-0.7,2.3-1.3,2.2-3.6c-0.1-2.2-3-3.5-2.9-3.6C323.8,217.9,323,215.8,321.7,214.5z"/>
		<path fill="none" stroke="#263238" stroke-linecap="round" stroke-linejoin="round" stroke-miterlimit="10" d="M283.1,263.2
			c1.7-1.4,3.8-2.1,6.1,0"/>
		<path fill="none" stroke="#263238" stroke-linecap="round" stroke-linejoin="round" stroke-miterlimit="10" d="M284,266.1
			c1.5-1.3,3.7-2,5.8,0.1"/>
		<path fill="none" stroke="#263238" stroke-linecap="round" stroke-linejoin="round" stroke-miterlimit="10" d="M284.9,268.9
			c1.4-1.1,4.3-1.8,5.5,0.1"/>
	</g>
	<path fill="none" stroke="#263238" stroke-linecap="round" stroke-linejoin="round" stroke-miterlimit="10" d="M339.9,294.5
		c-0.4,0.4-0.9,0.7-1.3,1.1"/>
	<path fill="none" stroke="#263238" stroke-linecap="round" stroke-linejoin="round" stroke-miterlimit="10" d="M335.2,302.1
		c1.9-0.1,4.1-0.8,5-2.5c0.9-1.7,0.8-1.3,1.2-2.4"/>
	<path fill="none" stroke="#263238" stroke-linecap="round" stroke-linejoin="round" stroke-miterlimit="10" d="M335.3,303.9
		c3.1-0.4,5.8-1.8,6.9-4.7"/>
	<g>
		<g>
			<path fill="none" stroke="#263238" stroke-linecap="round" stroke-linejoin="round" stroke-miterlimit="10" d="M288.3,345.7
				c1.1,0.7,1.6,2.1,1.8,3.4c0.2,1.3,0.2,2.7,0.7,3.9c0.5,1.2,1.6,2.4,2.9,2.3"/>
			<path fill="none" stroke="#263238" stroke-linecap="round" stroke-linejoin="round" stroke-miterlimit="10" d="M260.9,375.4
				c-0.9,1.2-1.1,2.9-0.6,4.3c0.6,1.4,1.9,2.5,3.4,2.8"/>
			<path fill="none" stroke="#263238" stroke-linecap="round" stroke-linejoin="round" stroke-miterlimit="10" d="M260.6,383.7
				c-0.3,1.1-0.1,2.3,0.6,3.1"/>
		</g>
		<path fill="none" stroke="#263238" stroke-linecap="round" stroke-linejoin="round" stroke-miterlimit="10" d="M302.5,350.9
			c0,0-1.7,4.2-4.2,4.9"/>
		<path fill="none" stroke="#263238" stroke-linecap="round" stroke-linejoin="round" stroke-miterlimit="10" d="M270.5,378.3
			c0,0-0.8,7.6-5.1,9.4"/>
	</g>
</g>
</svg>
