<?xml version="1.0" encoding="utf-8"?>
<!-- Generator: Adobe Illustrator 25.3.1, SVG Export Plug-In . SVG Version: 6.00 Build 0)  -->
<svg version="1.1" id="Layer_1" xmlns="http://www.w3.org/2000/svg" xmlns:xlink="http://www.w3.org/1999/xlink" x="0px" y="0px"
	 viewBox="0 0 1200 1200" enable-background="new 0 0 1200 1200" xml:space="preserve">
<g id="BG">
	<rect y="0" display="none" fill="#FFFFFF" width="1200" height="1200"/>
</g>
<g id="Design">
	<g>
		<g>
			<path fill="#515A6A" d="M600,1018.9c-4.9,0-10-0.1-14.9-0.3c-2-0.1-3.6-1.8-3.5-3.8c0.1-2,1.8-3.6,3.8-3.5
				c9.6,0.3,19.2,0.3,28.8,0c2-0.1,3.7,1.5,3.8,3.5s-1.5,3.7-3.5,3.8C609.6,1018.8,604.8,1018.9,600,1018.9z M643.2,1016.7
				c-1.8,0-3.4-1.4-3.6-3.3c-0.2-2,1.2-3.8,3.3-4c9.5-1,19.1-2.3,28.5-4c2-0.3,3.9,1,4.2,3s-1,3.9-3,4.2c-9.5,1.7-19.3,3-29,4
				C643.4,1016.7,643.3,1016.7,643.2,1016.7z M556.3,1016.7c-0.1,0-0.3,0-0.4,0c-9.7-1-19.4-2.4-29-4c-2-0.3-3.3-2.2-3-4.2
				c0.3-2,2.2-3.3,4.2-3c9.4,1.7,19,3,28.5,4c2,0.2,3.5,2,3.3,4C559.8,1015.3,558.2,1016.7,556.3,1016.7z M700.3,1006.8
				c-1.6,0-3.1-1.1-3.5-2.8c-0.5-2,0.7-3.9,2.7-4.4c9.3-2.3,18.6-5,27.6-7.9c1.9-0.6,4,0.4,4.6,2.3c0.6,1.9-0.4,4-2.3,4.6
				c-9.2,3-18.7,5.7-28.1,8C700.9,1006.7,700.6,1006.8,700.3,1006.8z M499.2,1006.6c-0.3,0-0.6,0-0.9-0.1
				c-9.4-2.3-18.9-5.1-28.1-8.1c-1.9-0.6-3-2.7-2.4-4.6s2.7-3,4.6-2.3c9.1,3,18.4,5.6,27.6,7.9c2,0.5,3.1,2.5,2.7,4.4
				C502.4,1005.5,500.9,1006.6,499.2,1006.6z M755.5,988.9c-1.5,0-2.8-0.9-3.4-2.3c-0.8-1.9,0.2-4,2-4.8c8.9-3.6,17.7-7.5,26.3-11.7
				c1.8-0.9,4-0.1,4.9,1.7c0.9,1.8,0.1,4-1.7,4.9c-8.7,4.3-17.8,8.3-26.8,11.9C756.4,988.8,755.9,988.9,755.5,988.9z M444.1,988.7
				c-0.5,0-0.9-0.1-1.4-0.3c-9-3.6-18-7.7-26.7-11.9c-1.8-0.9-2.6-3.1-1.7-4.9s3.1-2.6,4.9-1.7c8.6,4.2,17.4,8.1,26.2,11.7
				c1.9,0.8,2.8,2.9,2,4.8C446.9,987.8,445.5,988.7,444.1,988.7z M807.6,963.4c-1.3,0-2.5-0.7-3.2-1.8c-1-1.8-0.4-4,1.3-5
				c8.3-4.8,16.5-9.9,24.4-15.2c1.7-1.1,4-0.7,5.1,1c1.1,1.7,0.7,4-1,5.1c-8.1,5.4-16.4,10.7-24.8,15.5
				C808.9,963.3,808.2,963.4,807.6,963.4z M392.1,963.3c-0.6,0-1.2-0.2-1.8-0.5c-8.4-4.9-16.7-10.1-24.8-15.5
				c-1.7-1.1-2.1-3.4-1-5.1c1.1-1.7,3.4-2.1,5.1-1c7.9,5.3,16.1,10.5,24.4,15.2c1.8,1,2.3,3.2,1.3,5
				C394.6,962.6,393.3,963.3,392.1,963.3z M855.7,931c-1.1,0-2.2-0.5-2.9-1.4c-1.2-1.6-1-3.9,0.6-5.1c7.5-5.9,14.9-12.1,22-18.5
				c1.5-1.3,3.8-1.2,5.2,0.3s1.2,3.8-0.3,5.2c-7.2,6.5-14.8,12.8-22.4,18.8C857.3,930.7,856.5,931,855.7,931z M344.1,930.8
				c-0.8,0-1.6-0.2-2.2-0.8c-7.6-6-15.2-12.3-22.4-18.8c-1.5-1.3-1.6-3.7-0.3-5.2s3.7-1.6,5.2-0.3c7.1,6.4,14.5,12.6,22,18.5
				c1.6,1.2,1.9,3.5,0.6,5.1C346.2,930.3,345.2,930.8,344.1,930.8z M898.8,892.2c-0.9,0-1.8-0.3-2.5-1c-1.5-1.4-1.5-3.7-0.1-5.2
				c6.6-6.9,13.1-14,19.3-21.3c1.3-1.5,3.6-1.7,5.2-0.5c1.5,1.3,1.8,3.6,0.5,5.2c-6.2,7.4-12.8,14.7-19.6,21.7
				C900.7,891.8,899.8,892.2,898.8,892.2z M301,892c-1,0-1.9-0.4-2.6-1.1c-6.8-7-13.3-14.3-19.6-21.7c-1.3-1.5-1.1-3.8,0.5-5.2
				c1.5-1.3,3.9-1.1,5.1,0.5c6.1,7.3,12.6,14.5,19.2,21.4c1.4,1.5,1.4,3.8-0.1,5.2C302.8,891.7,301.9,892,301,892z M936.1,847.8
				c-0.8,0-1.5-0.2-2.2-0.7c-1.6-1.2-2-3.5-0.8-5.1c5.6-7.7,11-15.7,16.1-23.8c1.1-1.7,3.3-2.2,5-1.2c1.7,1.1,2.2,3.3,1.2,5
				c-5.2,8.2-10.7,16.4-16.4,24.2C938.4,847.3,937.2,847.8,936.1,847.8z M263.7,847.6c-1.1,0-2.2-0.5-3-1.5
				c-5.7-7.9-11.2-16-16.4-24.3c-1.1-1.7-0.6-4,1.2-5s4-0.5,5,1.2c5.1,8.1,10.5,16.1,16.1,23.8c1.2,1.6,0.8,3.9-0.8,5.1
				C265.2,847.4,264.5,847.6,263.7,847.6z M966.9,798.8c-0.6,0-1.2-0.1-1.7-0.4c-1.8-1-2.5-3.2-1.5-5c4.5-8.4,8.7-17.1,12.6-25.8
				c0.8-1.8,3-2.7,4.8-1.8s2.7,3,1.8,4.8c-4,8.9-8.3,17.7-12.9,26.2C969.5,798,968.2,798.8,966.9,798.8z M232.9,798.4
				c-1.3,0-2.6-0.7-3.2-1.9c-4.6-8.6-8.9-17.4-12.9-26.3c-0.8-1.8,0-4,1.9-4.8c1.8-0.8,4,0,4.8,1.8c3.9,8.7,8.1,17.4,12.6,25.8
				c0.9,1.8,0.3,4-1.5,5C234.1,798.3,233.5,798.4,232.9,798.4z M990.5,745.9c-0.4,0-0.8-0.1-1.2-0.2c-1.9-0.7-2.9-2.8-2.2-4.7
				c3.3-9,6.3-18.2,8.9-27.3c0.6-1.9,2.6-3.1,4.5-2.5s3.1,2.6,2.5,4.5c-2.7,9.3-5.7,18.7-9.1,27.8C993.4,745,992,745.9,990.5,745.9z
				 M209.3,745.4c-1.5,0-2.9-0.9-3.4-2.4c-3.3-9.1-6.4-18.5-9-27.8c-0.6-1.9,0.6-4,2.5-4.5c1.9-0.5,4,0.6,4.5,2.5
				c2.6,9.2,5.6,18.4,8.9,27.3c0.7,1.9-0.3,4-2.2,4.7C210.1,745.4,209.7,745.4,209.3,745.4z M1006.5,690.2c-0.2,0-0.5,0-0.8-0.1
				c-2-0.4-3.2-2.4-2.8-4.3c2-9.3,3.7-18.8,5-28.3c0.3-2,2.1-3.4,4.1-3.1c2,0.3,3.4,2.1,3.1,4.1c-1.3,9.6-3.1,19.3-5.1,28.8
				C1009.8,689,1008.2,690.2,1006.5,690.2z M193.4,689.7c-1.7,0-3.2-1.2-3.6-2.9c-2-9.5-3.7-19.2-5-28.8c-0.3-2,1.1-3.8,3.1-4.1
				s3.9,1.1,4.1,3.1c1.3,9.5,3,19,5,28.3c0.4,2-0.9,3.9-2.8,4.3C193.9,689.7,193.6,689.7,193.4,689.7z M1014.6,632.8
				c-0.1,0-0.2,0-0.3,0c-2-0.1-3.5-1.9-3.4-3.9c0.7-9.5,1-19.2,1-28.7c0-2,1.6-3.7,3.7-3.7l0,0c2,0,3.7,1.6,3.7,3.7
				c0,9.7-0.4,19.6-1,29.2C1018.1,631.3,1016.5,632.8,1014.6,632.8z M185.4,632.3c-1.9,0-3.5-1.5-3.6-3.4c-0.7-9.7-1-19.5-1-29.2v-1
				c0-2,1.8-3.8,3.7-3.7c2,0,3.6,1.7,3.6,3.7v1c0,9.6,0.3,19.2,1,28.7c0.1,2-1.4,3.8-3.4,3.9C185.5,632.3,185.4,632.3,185.4,632.3z
				 M1014.7,574.8c-1.9,0-3.5-1.5-3.6-3.4c-0.7-9.5-1.6-19.2-2.9-28.6c-0.3-2,1.1-3.8,3.1-4.1c2-0.3,3.8,1.1,4.1,3.1
				c1.3,9.6,2.3,19.4,3,29.1c0.1,2-1.4,3.8-3.4,3.9C1014.8,574.8,1014.8,574.8,1014.7,574.8z M185.4,573.3c-0.1,0-0.2,0-0.3,0
				c-2-0.1-3.5-1.9-3.4-3.9c0.7-9.7,1.7-19.5,3.1-29.1c0.3-2,2.1-3.4,4.1-3.1c2,0.3,3.4,2.1,3.1,4.1c-1.3,9.4-2.4,19-3,28.6
				C188.9,571.9,187.3,573.3,185.4,573.3z M1006.7,517.4c-1.7,0-3.2-1.2-3.6-2.9c-2-9.3-4.3-18.7-6.9-27.9c-0.5-1.9,0.6-4,2.5-4.5
				c1.9-0.5,4,0.6,4.5,2.5c2.7,9.3,5,18.9,7,28.4c0.4,2-0.8,3.9-2.8,4.3C1007.2,517.4,1007,517.4,1006.7,517.4z M193.6,516
				c-0.2,0-0.5,0-0.8-0.1c-2-0.4-3.2-2.4-2.8-4.3c2-9.5,4.4-19,7.1-28.4c0.6-1.9,2.6-3.1,4.5-2.5c1.9,0.6,3.1,2.6,2.5,4.5
				c-2.6,9.2-5,18.5-7,27.9C196.8,514.8,195.3,516,193.6,516z M990.9,461.6c-1.5,0-2.9-0.9-3.4-2.4c-3.2-9-6.9-18-10.8-26.7
				c-0.8-1.9,0-4,1.9-4.8c1.8-0.8,4,0,4.8,1.9c4,8.9,7.6,18,11,27.2c0.7,1.9-0.3,4-2.2,4.7C991.7,461.6,991.3,461.6,990.9,461.6z
				 M209.6,460.3c-0.4,0-0.8-0.1-1.3-0.2c-1.9-0.7-2.9-2.8-2.2-4.7c3.3-9.1,7-18.2,11-27.1c0.8-1.8,3-2.7,4.8-1.8
				c1.8,0.8,2.7,3,1.8,4.8c-3.9,8.7-7.5,17.6-10.8,26.6C212.5,459.4,211.1,460.3,209.6,460.3z M967.3,408.6c-1.3,0-2.6-0.7-3.2-1.9
				c-4.5-8.4-9.3-16.8-14.4-24.9c-1.1-1.7-0.5-4,1.2-5c1.7-1.1,4-0.5,5,1.2c5.2,8.2,10.1,16.8,14.6,25.4c1,1.8,0.3,4-1.5,4.9
				C968.5,408.5,967.9,408.6,967.3,408.6z M233.3,407.4c-0.6,0-1.2-0.1-1.7-0.4c-1.8-1-2.4-3.2-1.5-5c4.6-8.5,9.5-17,14.7-25.3
				c1.1-1.7,3.3-2.2,5-1.1c1.7,1.1,2.2,3.3,1.1,5c-5.1,8.1-9.9,16.4-14.4,24.8C235.9,406.7,234.6,407.4,233.3,407.4z M936.6,359.4
				c-1.1,0-2.2-0.5-3-1.5c-5.6-7.7-11.6-15.4-17.7-22.7c-1.3-1.5-1.1-3.9,0.5-5.1c1.5-1.3,3.8-1.1,5.2,0.5
				c6.2,7.5,12.3,15.2,18,23.1c1.2,1.6,0.8,3.9-0.8,5.1C938.1,359.2,937.3,359.4,936.6,359.4z M264.2,358.4c-0.8,0-1.5-0.2-2.1-0.7
				c-1.6-1.2-2-3.5-0.8-5.1c5.7-7.8,11.8-15.6,18.1-23c1.3-1.5,3.6-1.7,5.1-0.4s1.7,3.6,0.4,5.1c-6.1,7.3-12.1,14.9-17.8,22.6
				C266.4,357.9,265.3,358.4,264.2,358.4z M899.3,315c-1,0-1.9-0.4-2.6-1.1c-6.6-6.9-13.6-13.6-20.7-20c-1.5-1.4-1.6-3.7-0.3-5.2
				c1.4-1.5,3.7-1.6,5.2-0.3c7.2,6.5,14.3,13.4,21,20.4c1.4,1.5,1.4,3.8-0.1,5.2C901.2,314.6,900.2,315,899.3,315z M301.5,314.1
				c-0.9,0-1.8-0.3-2.5-1c-1.5-1.4-1.5-3.7-0.1-5.2c6.8-7,13.9-13.8,21.1-20.3c1.5-1.4,3.8-1.2,5.2,0.3c1.4,1.5,1.2,3.8-0.3,5.2
				c-7.1,6.4-14.1,13.1-20.7,19.9C303.4,313.7,302.5,314.1,301.5,314.1z M856.3,276.1c-0.8,0-1.6-0.2-2.2-0.8
				c-7.5-5.9-15.3-11.6-23.2-16.9c-1.7-1.1-2.1-3.4-1-5.1s3.4-2.1,5.1-1c8,5.5,16,11.2,23.6,17.2c1.6,1.2,1.9,3.5,0.6,5.1
				C858.5,275.6,857.4,276.1,856.3,276.1z M344.7,275.3c-1.1,0-2.2-0.5-2.9-1.4c-1.2-1.6-1-3.9,0.6-5.1c7.7-6,15.6-11.8,23.7-17.2
				c1.7-1.1,4-0.7,5.1,1c1.1,1.7,0.7,3.9-1,5.1c-7.9,5.3-15.8,11-23.3,16.9C346.2,275.1,345.5,275.3,344.7,275.3z M808.3,243.6
				c-0.6,0-1.2-0.2-1.8-0.5c-8.2-4.8-16.8-9.3-25.3-13.5c-1.8-0.9-2.6-3.1-1.7-4.9s3.1-2.6,4.9-1.7c8.7,4.3,17.4,8.9,25.8,13.8
				c1.8,1,2.3,3.2,1.3,5C810.8,242.9,809.6,243.6,808.3,243.6z M392.8,242.9c-1.3,0-2.5-0.7-3.2-1.8c-1-1.8-0.4-4,1.3-5
				c8.4-4.9,17.1-9.5,25.9-13.7c1.8-0.9,4-0.1,4.9,1.7c0.9,1.8,0.1,4-1.7,4.9c-8.6,4.2-17.1,8.7-25.4,13.5
				C394,242.8,393.4,242.9,392.8,242.9z M756.3,218.1c-0.5,0-0.9-0.1-1.4-0.3c-8.8-3.6-17.9-6.9-27-9.9c-1.9-0.6-3-2.7-2.3-4.6
				c0.6-1.9,2.7-3,4.6-2.3c9.2,3,18.5,6.4,27.5,10.1c1.9,0.8,2.8,2.9,2,4.8C759.2,217.2,757.8,218.1,756.3,218.1z M445,217.6
				c-1.5,0-2.8-0.9-3.4-2.3c-0.8-1.9,0.1-4,2-4.8c9-3.6,18.3-7,27.5-10c1.9-0.6,4,0.4,4.6,2.4c0.6,1.9-0.4,4-2.4,4.6
				c-9.1,2.9-18.2,6.2-27.1,9.8C445.9,217.5,445.4,217.6,445,217.6z M701.2,200.1c-0.3,0-0.6,0-0.9-0.1c-9.2-2.3-18.7-4.3-28.1-6
				c-2-0.4-3.3-2.2-3-4.2c0.3-2,2.2-3.3,4.2-3c9.6,1.7,19.2,3.8,28.6,6.1c2,0.5,3.2,2.5,2.7,4.4C704.4,199,702.9,200.1,701.2,200.1z
				 M500.2,199.7c-1.6,0-3.1-1.1-3.5-2.8c-0.5-2,0.7-3.9,2.7-4.4c9.4-2.3,19.1-4.3,28.6-6c2-0.3,3.9,1,4.2,3c0.3,2-1,3.9-3,4.2
				c-9.4,1.6-18.9,3.6-28.1,5.9C500.8,199.7,500.5,199.7,500.2,199.7z M644.2,190c-0.1,0-0.3,0-0.4,0c-9.5-1-19.1-1.7-28.7-2
				c-2-0.1-3.6-1.8-3.5-3.8c0.1-2,1.8-3.6,3.8-3.5c9.7,0.4,19.5,1,29.2,2.1c2,0.2,3.5,2,3.2,4C647.6,188.6,646,190,644.2,190z
				 M557.3,189.8c-1.8,0-3.4-1.4-3.6-3.3c-0.2-2,1.3-3.8,3.3-4c9.7-1,19.5-1.6,29.2-2c2-0.1,3.7,1.5,3.8,3.5c0.1,2-1.5,3.7-3.5,3.8
				c-9.5,0.3-19.2,1-28.7,1.9C557.5,189.8,557.4,189.8,557.3,189.8z"/>
		</g>
		<rect x="344.2" y="936.5" width="511.6" height="173.6"/>
		<g>
			<circle fill="#BBDDDE" cx="600" cy="184.7" r="82.1"/>
			<path fill="#FFFFFF" d="M614.4,231.1v-32h32c2.8,0,5.1-2.3,5.1-5.1v-18.5c0-2.8-2.3-5.1-5.1-5.1h-32v-32c0-2.8-2.3-5.1-5.1-5.1
				h-18.5c-2.8,0-5.1,2.3-5.1,5.1v32h-32c-2.8,0-5.1,2.3-5.1,5.1V194c0,2.8,2.3,5.1,5.1,5.1h32v32c0,2.8,2.3,5.1,5.1,5.1h18.5
				C612.1,236.2,614.4,233.9,614.4,231.1z"/>
		</g>
		<g>
			
				<ellipse transform="matrix(0.7071 -0.7071 0.7071 0.7071 -126.8954 893.6473)" fill="#BBDDDE" cx="1015.3" cy="600" rx="82.1" ry="82.1"/>
		</g>
		<g>
			<circle fill="#BBDDDE" cx="184.7" cy="600" r="82.1"/>
		</g>
		<path fill="#FFFFFF" d="M232.6,572c-6.6-8-16.2-12.6-26.5-12.6c0,0,0,0,0,0c-7.8,0-15.3,2.7-21.4,7.5c-7-5.7-15.8-8.4-24.8-7.5
			c-11.8,1.2-22.1,8.6-27.6,19.7c-5.5,10.9-5.6,24-0.5,34.8c5.5,11.7,15.6,16.9,25.7,20.9l1.4,0.5c8,3.1,15.6,6.1,18.9,13
			c1.2,2.6,3.9,4.2,6.6,4.2c0.1,0,0.3,0,0.4,0c0.1,0,0.3,0,0.4,0c2.7,0,5.4-1.5,6.6-4.2c3.2-6.8,10.6-9.7,18.5-12.8
			c1.1-0.4,2.1-0.8,3.1-1.2c8.7-3.5,20.9-9.9,25.9-24.1C243.7,597.4,241.1,582.4,232.6,572z"/>
		<g>
			<g>
				<circle fill="#BBDDDE" cx="990.3" cy="180.6" r="82.1"/>
			</g>
			<path fill="#FFFFFF" d="M1048.3,180.6c0-22.6-26-41-58-41c-32,0-58,18.4-58,41s26,41,58,41c7.1,0,13.8-0.9,20-2.6l-0.8,11.9
				l13.5-16.5C1038.3,207,1048.3,194.6,1048.3,180.6z"/>
			<g>
				<circle fill="#BBDDDE" cx="963.6" cy="180.6" r="5.8"/>
				<path fill="#BBDDDE" d="M990.3,174.8c-3.2,0-5.8,2.6-5.8,5.8c0,3.2,2.6,5.8,5.8,5.8s5.8-2.6,5.8-5.8
					C996.1,177.4,993.5,174.8,990.3,174.8z"/>
				<circle fill="#BBDDDE" cx="1017.1" cy="180.6" r="5.8"/>
			</g>
		</g>
		<g>
			<path fill="#FFFFFF" d="M1015.3,575.1c-13.8,0-25,11.2-25,24.9s11.2,24.9,25,24.9s24.9-11.2,24.9-24.9
				C1040.2,586.2,1029,575.1,1015.3,575.1z M1015.3,619.3c-10.6,0-19.3-8.7-19.3-19.3c0-10.6,8.7-19.3,19.3-19.3
				c10.6,0,19.3,8.7,19.3,19.3C1034.6,610.6,1025.9,619.3,1015.3,619.3z"/>
			<path fill="#FFFFFF" d="M1067.6,608.2v-16.5h-11.2c-1.1-5.5-3.2-10.5-6.2-15l8-8l-11.7-11.7l-8,8c-4.5-3-9.5-5.1-15-6.2v-11.2
				H1007v11.2c-5.5,1.1-10.5,3.2-15,6.2l-8-8l-11.7,11.7l8,8c-3,4.5-5.1,9.5-6.2,15h-11.2v16.5h11.2c1.1,5.4,3.2,10.5,6.2,15l-8,8
				l11.7,11.7l8-8c4.5,3,9.5,5.1,15,6.2v11.2h16.5v-11.2c5.4-1.1,10.5-3.2,15-6.2l8,8l11.7-11.7l-8-8c3-4.5,5.1-9.5,6.2-15H1067.6z
				 M1045.9,600c0,16.9-13.7,30.6-30.6,30.6c-16.9,0-30.6-13.7-30.6-30.6c0-16.9,13.7-30.6,30.6-30.6S1045.9,583.1,1045.9,600z"/>
		</g>
		<g>
			<path fill="#FFFFFF" d="M456.9,931.9h9.9l1.6,60.3h-7.1l-1.2-50.8l-17.3,45.7h-6.6l-16-45.2l-1.2,50.3h-7.1l1.6-60.3h9.8
				l16.3,46.2L456.9,931.9z"/>
			<path fill="#FFFFFF" d="M501.5,931.9h32.1v5.8h-24.8v21h23v5.8h-23v22h26.4v5.8h-33.7L501.5,931.9L501.5,931.9z"/>
			<path fill="#FFFFFF" d="M601,931.9h7.3v60.3h-7.9l-28.7-48.1v48.1h-7.3v-60.3h7.9L601,980V931.9z"/>
			<path fill="#FFFFFF" d="M634.1,937.7v-5.8h39.7v5.8h-16.2v54.5h-7.3v-54.5H634.1z"/>
			<path fill="#FFFFFF" d="M709,931.9h9.7l19.7,60.3h-7.2l-5.9-18.2h-23l-5.9,18.2h-7.2L709,931.9z M713.9,938.3l-9.7,29.9h19.2
				L713.9,938.3z"/>
			<path fill="#FFFFFF" d="M765.1,992.2v-60.3h7.3v54.5h22.5v5.8L765.1,992.2L765.1,992.2z"/>
			<path fill="#FFFFFF" d="M455.6,1021.9h7.3v60.3h-7.3v-27.3h-27.9v27.3h-7.3v-60.3h7.3v27.3h27.9V1021.9z"/>
			<path fill="#FFFFFF" d="M496.9,1021.9h32v5.8h-24.8v21h23v5.8h-23v22h26.4v5.8h-33.7V1021.9z"/>
			<path fill="#FFFFFF" d="M572,1021.9h9.7l19.7,60.3h-7.2l-5.9-18.2h-23l-5.9,18.2h-7.2L572,1021.9z M576.8,1028.3l-9.7,29.9h19.2
				L576.8,1028.3z"/>
			<path fill="#FFFFFF" d="M628,1082.2v-60.3h7.3v54.5h22.5v5.8H628z"/>
			<path fill="#FFFFFF" d="M671.7,1027.7v-5.8h39.7v5.8h-16.2v54.5h-7.3v-54.5H671.7z"/>
			<path fill="#FFFFFF" d="M772.3,1021.9h7.3v60.3h-7.3v-27.3h-27.9v27.3h-7.3v-60.3h7.3v27.3h27.9V1021.9z"/>
		</g>
		<g>
			<path fill="#E8EBEF" d="M385.1,616.6c-0.4,22.3,9.8,42.8,27.3,55c4.4,3,17.4,11.2,31.4,11.2c2,0,4-0.2,5.9-0.5
				c-1.6,11.9,1.5,25,8.8,37c12.1,19.8,28.8,33.9,45.9,38.5c8,2.2,16.1,3.2,23.7,3.2c13.9,0,26.6-3.5,36.2-10.3
				c8.5-6,15.9-21,15.4-31c0,0,0,0,0,0v-31.7c0.1-0.5,0.1-1.1,0-1.7V536.4v0v-131c0-0.1,0-0.1,0-0.2c0-12-7.3-23.9-18.9-30.6
				c-12.6-7.2-26.7-7.2-36.4-5.8c-16,2.2-29.8,9.1-39,19.5c-9.6,10.8-13.7,25.4-11.1,38.3c-19.2-3.1-39.5,3.1-54.7,17.1
				c-16.3,15-23.4,36.3-18.9,57c2.5,11.6,9.3,21.3,18.4,26.8c-3.2,4.7-5.4,10.5-6.4,16.7c-1.1,6.7-0.6,13.3,1.2,19.3
				C396.2,574.9,385.5,594.7,385.1,616.6z"/>
		</g>
		<g>
			<path fill="#BBDDDE" d="M785.8,595.8c1.8-6,2.3-12.7,1.2-19.3c-1-6.3-3.2-12-6.4-16.7c9.1-5.4,15.9-15.2,18.4-26.8
				c4.5-20.6-2.6-42-18.9-57c-15.2-14-35.5-20.2-54.7-17.1c2.6-12.9-1.5-27.5-11.1-38.3c-9.2-10.4-23.1-17.3-39-19.5
				c-9.7-1.3-23.8-1.4-36.4,5.8c-11.6,6.7-18.9,18.6-18.9,30.6c0,0.1,0,0.1,0,0.2v131v0v149.9c-0.1,0.5-0.1,1.1,0,1.7v31.7
				c0,0,0,0,0,0c-0.5,10,6.9,25,15.4,31c9.6,6.8,22.3,10.3,36.2,10.3c7.7,0,15.7-1.1,23.7-3.2c17-4.6,33.7-18.6,45.8-38.5
				c7.3-11.9,10.4-25,8.8-37c2,0.4,4,0.5,5.9,0.5c14,0,27.1-8.2,31.4-11.2c17.5-12.2,27.7-32.8,27.3-55
				C814,627.2,803.3,607.3,785.8,595.8z"/>
		</g>
		<g>
			<path fill="#515A6A" d="M595.3,705.4c0.1-0.6,0.1-1.2,0-1.8V553.8v0v-131c0-0.1,0-0.1,0-0.2c0-12.1-7.4-24.2-19.1-30.9
				c-12.7-7.3-26.9-7.2-36.6-5.9c-16,2.2-30,9.2-39.3,19.6c-9.6,10.7-13.7,25.2-11.3,38.1c-19.1-2.9-39.4,3.3-54.5,17.2
				c-16.4,15.1-23.5,36.6-19,57.3c2.5,11.6,9.2,21.3,18.3,26.8c-3.1,4.7-5.3,10.3-6.3,16.5c-1,6.6-0.6,13.2,1.1,19.2
				c-17.4,11.6-28.1,31.5-28.5,53.4c-0.4,22.4,9.8,43.1,27.4,55.3c4.4,3.1,17.5,11.3,31.6,11.3c1.8,0,3.7-0.1,5.5-0.5
				c-1.5,11.9,1.6,24.9,8.9,36.7c12.2,19.9,29,34,46.1,38.6c8.1,2.2,16.1,3.2,23.8,3.2c13.9,0,26.7-3.5,36.4-10.3
				c8.6-6,16.1-21.2,15.5-31.3c0,0,0,0,0,0L595.3,705.4L595.3,705.4z M575.1,761.9c-13.1,9.2-33,11.4-53.5,5.9
				c-15.1-4.1-30.2-16.9-41.3-35c-6.4-10.4-9.1-21.8-7.7-31.9c1.5-11.2,8.5-21,17.8-25c0,0,0.1,0,0.1-0.1c2.3,1.8,4.9,3.3,7.6,4.5
				c4.5,1.9,9.3,2.8,14.2,2.8c7.4,0,14.7-2.1,20.8-6.2c1.8-1.2,2.3-3.8,1.1-5.6c-1.2-1.8-3.8-2.3-5.6-1.1
				c-7.8,5.3-18.6,6.4-27.3,2.7c-8.7-3.7-15.4-12.2-17-21.5c-1.6-9.4,1.9-19.5,8.9-26c1.6-1.5,1.8-4,0.2-5.7s-4-1.8-5.7-0.2
				c-9,8.2-13.4,21.2-11.4,33.2c1.1,6.3,4,12.3,8.1,17.2c-8.1,4.4-14.5,12.3-17.7,21.6c-11.1,3.6-25.1-2-34.6-8.7
				c-15.4-10.7-24.3-28.9-24-48.6c0.4-18.8,9.2-35.8,23.7-46c4.1,7.3,10.6,12.8,18.2,15.3c2.8,0.9,5.8,1.3,8.7,1.3
				c6.2,0,12.3-2,17-5.9c1.7-1.4,2-4,0.5-5.7c-1.4-1.7-4-2-5.7-0.5c-4.7,3.9-11.8,5.1-18,3.1c-6-1.9-11.4-6.8-14.4-12.9
				c-2.8-5.8-3.8-13-2.6-20.2c1.3-8.1,5.1-15.2,10.6-19.5c5.9-4.6,13.9-5.8,20-3c2,1,4.4,0.1,5.4-1.9s0.1-4.4-1.9-5.3
				c-8.7-4.1-20.1-2.5-28.4,3.9c-0.7,0.5-1.3,1.1-2,1.7c-7.8-4.2-13.6-12.3-15.7-22.2c-4-18.2,2.1-36.3,16.6-49.7
				c13.9-12.8,32.7-18.2,50-14.8c-4.4,7.7-4.6,17.6-0.1,25.4c0.8,1.3,2.1,2,3.5,2c0.7,0,1.4-0.2,2-0.6c1.9-1.1,2.5-3.6,1.4-5.5
				c-3.8-6.5-2.5-15.6,2.9-20.9c5.4-5.2,14.6-6.1,21-2c1.9,1.2,4.4,0.7,5.6-1.2c1.2-1.9,0.7-4.4-1.2-5.6c-8.3-5.4-19.6-5-27.7,0.4
				c-2.8-10.9,0.6-23.7,9-33.2c8-9,20.2-15,34.4-17c8.5-1.2,20.8-1.3,31.5,4.9c9.5,5.5,15.5,15.5,15.1,25c0,0.1,0,0.3,0,0.5v54.6
				c-8.8,1.8-17.6,1.2-25-2c-8.5-3.6-15.1-10.9-17.3-19c-2.3-8.5,0.5-18.1,6.8-23.3c1.7-1.4,2-4,0.5-5.7c-1.4-1.7-4-2-5.7-0.5
				c-8.8,7.3-12.6,20-9.4,31.6c2.9,10.5,11.1,19.6,21.9,24.3c5.7,2.4,12,3.6,18.6,3.6c3.2,0,6.4-0.3,9.6-0.9V553
				c-4.2,9.4-15.9,16.5-26,15.7c-10-0.8-19.2-8.7-21.8-18.3c4.1-4.1,7.2-9,9-14.6c4.4-13.4,0.4-28.9-9.8-38.6
				c-1.6-1.5-4.2-1.5-5.7,0.2c-1.5,1.6-1.5,4.2,0.2,5.7c7.9,7.5,11.1,19.9,7.7,30.3c-3.4,10.3-13.3,18.5-24.1,19.9
				c-10.8,1.4-22.4-4.1-28.3-13.3c-1.2-1.9-3.7-2.4-5.5-1.2s-2.4,3.7-1.2,5.5c6.8,10.6,19.1,17.2,31.6,17.2c1.5,0,3-0.1,4.4-0.3
				c5.3-0.7,10.5-2.6,15-5.4c4.5,11.4,15.5,20,27.9,21c0.8,0.1,1.5,0.1,2.3,0.1c8.7,0,17.8-4,24.4-10.3v128.2
				c-9.8-7.3-23.5-9.7-35-5.1c-14.7,5.9-24.3,22.8-21.9,38.5c0.3,2,2,3.4,4,3.4c0.2,0,0.4,0,0.6,0c2.2-0.3,3.7-2.4,3.3-4.6
				c-1.9-12.1,5.5-25.2,16.9-29.8c11-4.4,24.7-0.5,32,8.8v31.3c0,0,0,0.1,0,0.1c0,0,0,0.1,0,0.1C587.7,744.1,582.1,757,575.1,761.9z
				"/>
			<path fill="#515A6A" d="M546.6,643.7c10.9,0,21.7-6.2,27-15.8c5.7-10.3,4.7-24-2.5-33.4c-1.3-1.8-3.9-2.1-5.6-0.7
				c-1.8,1.3-2.1,3.9-0.7,5.6c5.3,6.9,6,17,1.8,24.6s-13.2,12.3-21.8,11.5c-8.6-0.8-16.6-7.1-19.3-15.4c-0.7-2.1-3-3.3-5.1-2.6
				c-2.1,0.7-3.3,3-2.6,5.1c3.7,11.2,14.5,19.8,26.2,20.9C544.8,643.6,545.7,643.7,546.6,643.7z"/>
			<path fill="#515A6A" d="M771.5,580.6c1.8-6,2.2-12.6,1.1-19.2c-1-6.2-3.2-11.8-6.3-16.5c9.1-5.5,15.8-15.2,18.3-26.8
				c4.5-20.8-2.6-42.2-19-57.3c-15.1-13.9-35.4-20.2-54.5-17.2c2.4-12.9-1.8-27.4-11.3-38.1c-9.3-10.4-23.2-17.4-39.3-19.6
				c-9.7-1.4-24-1.4-36.6,5.9c-11.7,6.8-19.1,18.8-19.1,30.9c0,0.1,0,0.1,0,0.2v131v0v149.9c-0.1,0.6-0.1,1.2,0,1.8v31.7
				c0,0,0,0,0,0c-0.5,10.1,7,25.3,15.5,31.3c9.7,6.8,22.4,10.3,36.4,10.3c7.7,0,15.8-1.1,23.8-3.2c17.1-4.6,33.9-18.7,46.1-38.6
				c7.2-11.8,10.4-24.8,8.9-36.7c1.8,0.3,3.7,0.5,5.5,0.5c14.1,0,27.2-8.2,31.6-11.3c17.6-12.2,27.8-32.9,27.4-55.3
				C799.5,612.1,788.9,592.2,771.5,580.6z M767.9,682.8c-9.5,6.7-23.5,12.3-34.6,8.7c-3.3-9.3-9.7-17.2-17.7-21.6
				c4.1-4.9,7-10.9,8.1-17.2c2-12-2.4-25-11.4-33.2c-1.6-1.5-4.2-1.4-5.7,0.2s-1.4,4.2,0.2,5.7c7,6.4,10.5,16.6,8.9,26
				s-8.3,17.8-17,21.5c-8.7,3.7-19.5,2.7-27.3-2.7c-1.8-1.2-4.3-0.8-5.6,1.1s-0.8,4.3,1.1,5.6c6,4.1,13.4,6.2,20.8,6.2
				c4.9,0,9.7-0.9,14.2-2.8c2.7-1.2,5.2-2.7,7.6-4.5c0,0,0.1,0,0.1,0.1c9.3,4,16.3,13.8,17.8,25c1.4,10.2-1.3,21.5-7.7,31.9
				c-11.1,18.2-26.2,31-41.3,35c-20.4,5.5-40.4,3.3-53.5-5.9c-7-4.9-12.6-17.8-12.2-24.5c0,0,0-0.1,0-0.1c0,0,0-0.1,0-0.1v-31.3
				c7.2-9.3,21-13.2,32-8.8c11.4,4.6,18.8,17.7,16.9,29.8c-0.3,2.2,1.2,4.2,3.3,4.6c0.2,0,0.4,0,0.6,0c1.9,0,3.7-1.4,4-3.4
				c2.5-15.7-7.1-32.6-21.9-38.5c-11.4-4.6-25.2-2.2-35,5.1V566.5c6.6,6.3,15.7,10.3,24.4,10.3c0.8,0,1.5,0,2.3-0.1
				c12.3-1,23.4-9.6,27.9-21c4.5,2.8,9.6,4.8,15,5.4c1.5,0.2,3,0.3,4.4,0.3c12.5,0,24.8-6.6,31.6-17.2c1.2-1.9,0.6-4.4-1.2-5.5
				s-4.4-0.6-5.5,1.2c-5.8,9.2-17.5,14.6-28.3,13.3c-10.8-1.4-20.7-9.5-24.1-19.9c-3.4-10.3-0.2-22.8,7.7-30.3
				c1.6-1.5,1.7-4.1,0.2-5.7s-4.1-1.7-5.7-0.2c-10.2,9.7-14.2,25.2-9.8,38.6c1.8,5.5,5,10.5,9,14.6c-2.6,9.7-11.8,17.5-21.8,18.4
				c-10.1,0.9-21.8-6.3-26-15.7v-66.2c3.2,0.6,6.4,0.9,9.6,0.9c6.6,0,12.9-1.2,18.6-3.6c10.9-4.6,19.1-13.7,21.9-24.3
				c3.2-11.6-0.6-24.3-9.4-31.6c-1.7-1.4-4.2-1.2-5.7,0.5c-1.4,1.7-1.2,4.2,0.5,5.7c6.3,5.2,9.1,14.8,6.8,23.3
				c-2.2,8.1-8.9,15.4-17.3,19c-7.3,3.1-16.1,3.8-25,2v-54.6c0-0.1,0-0.3,0-0.5c-0.5-9.5,5.6-19.6,15.1-25c10.7-6.2,23-6,31.5-4.9
				c14.2,2,26.4,8,34.4,17c8.4,9.4,11.8,22.2,9,33.2c-8.1-5.5-19.4-5.8-27.7-0.4c-1.9,1.2-2.4,3.7-1.2,5.6s3.7,2.4,5.6,1.2
				c6.3-4.1,15.5-3.2,21,2s6.7,14.4,2.9,20.9c-1.1,1.9-0.5,4.4,1.4,5.5c0.6,0.4,1.3,0.6,2,0.6c1.4,0,2.7-0.7,3.5-2
				c4.5-7.7,4.3-17.7-0.1-25.4c17.4-3.4,36.1,2,50,14.8c14.5,13.4,20.6,31.5,16.6,49.7c-2.2,9.9-8,18-15.7,22.2
				c-0.6-0.6-1.3-1.2-2-1.7c-8.2-6.5-19.6-8-28.4-3.9c-2,1-2.9,3.3-1.9,5.3c0.9,2,3.3,2.9,5.3,1.9c6-2.8,14.1-1.6,20,3
				c5.4,4.3,9.3,11.4,10.6,19.5c1.1,7.2,0.2,14.4-2.6,20.2c-3,6.2-8.4,11-14.4,12.9c-6.3,2-13.3,0.8-18-3.1
				c-1.7-1.4-4.2-1.2-5.7,0.5s-1.2,4.2,0.5,5.7c4.7,3.9,10.8,5.9,17,5.9c2.9,0,5.8-0.4,8.7-1.3c7.5-2.4,14-7.9,18.2-15.3
				c14.5,10.3,23.3,27.3,23.7,46C792.3,653.9,783.3,672.1,767.9,682.8z"/>
			<path fill="#515A6A" d="M679.6,617.6c-2.1-0.7-4.4,0.5-5.1,2.6c-2.7,8.2-10.7,14.6-19.3,15.4c-8.6,0.8-17.6-3.9-21.8-11.5
				c-4.2-7.6-3.4-17.7,1.8-24.6c1.3-1.8,1-4.3-0.7-5.6c-1.8-1.3-4.3-1-5.6,0.7c-7.2,9.3-8.2,23.1-2.5,33.4
				c5.3,9.5,16.1,15.8,27,15.8c0.9,0,1.7,0,2.6-0.1c11.7-1.1,22.5-9.7,26.2-20.9C682.9,620.6,681.8,618.3,679.6,617.6z"/>
		</g>
		<g>
			
				<ellipse transform="matrix(0.7071 -0.7071 0.7071 0.7071 -624.7178 437.3345)" fill="#BBDDDE" cx="215.6" cy="972.8" rx="82.1" ry="82.1"/>
		</g>
		<ellipse fill="#FFFFFF" cx="215.5" cy="955.1" rx="38.4" ry="38.4"/>
		<path fill="#FFFFFF" d="M232.9,995.7h-34.6c-1.5,0-2.8,1.2-2.8,2.8c0,1.5,1.2,2.8,2.8,2.8h34.6c1.5,0,2.8-1.2,2.8-2.8
			C235.6,997,234.4,995.7,232.9,995.7z"/>
		<path fill="#FFFFFF" d="M232.9,1003.1h-34.6c-1.5,0-2.8,1.2-2.8,2.8s1.2,2.8,2.8,2.8h34.6c1.5,0,2.8-1.2,2.8-2.8
			S234.4,1003.1,232.9,1003.1z"/>
		<path fill="#FFFFFF" d="M200.7,1017.5c0,6.3,5.1,11.3,11.3,11.3h7.1c6.3,0,11.3-5.1,11.3-11.3v-6.1h-29.7L200.7,1017.5
			L200.7,1017.5z"/>
	</g>
</g>
</svg>
