<?xml version="1.0" encoding="utf-8"?>
<!-- Generator: Adobe Illustrator 25.3.1, SVG Export Plug-In . SVG Version: 6.00 Build 0)  -->
<svg version="1.1" id="Слой_2" xmlns="http://www.w3.org/2000/svg" xmlns:xlink="http://www.w3.org/1999/xlink" x="0px" y="0px"
	 viewBox="0 0 3200 2000" enable-background="new 0 0 3200 2000" xml:space="preserve">
<rect display="none" fill="#FFFFFF" width="3200" height="2000"/>
<g>
	<g>
		<path fill="#FCECDB" d="M2626.2,1817.4c0,0,51.5-562-475.6-562c-569.4,0-237-327.8-613.5-422.5
			c-332.2-83.6-544.5,278.4-406.2,505.9c99.5,163.7-306.7,254.5-258.1,482.1L2626.2,1817.4z"/>
		<path fill="#FCECDB" d="M2627.6,982.3c0,80.4-58.3,131.1-135.6,161.8c-17.6,7-36.3,13-55.4,18c-40.9,10.7-84.2,17.2-125.3,20.6
			c-24.4,2-48.1,2.9-70.1,2.9c-47.3,0-88.2-8.5-123.3-23.5c-125.8-53.6-176.6-190.3-176.6-316.3c0-161.1,145.9-208.3,300-225.6
			C2552.9,585.3,2627.6,821.2,2627.6,982.3z"/>
		<path fill="#FCECDB" d="M1713,734.5c-15.8-0.9-32.4-3-49.7-6.4c-43.1-8.4-84.8-10.9-124.1-10.8c-162.5,0.2-285.3,42.8-305.8-120.6
			c-20.9-166.7,180.7-369.2,328.1-423.1c173.1-63.3,327.2,125.1,363.6,289.4C1958.2,613.4,1883,744.1,1713,734.5z"/>
		<path fill="#FCECDB" d="M1047.5,1351.5c0,116.8-103.6,180-230,193.8c-0.8,0.1-1.7,0.2-2.5,0.3c-7.8,0.8-15.7,1.4-23.7,1.9l0,0
			c-9.3,0.5-18.6,0.8-28,0.8c-0.6,0-1.1,0-1.7,0c-16.8-0.1-33-1.1-48.5-3c-180.3-21.9-273.5-161.2-273.5-283.6
			c0-133.2,175-227.9,323.6-195.9C909.4,1097.2,1047.5,1218.3,1047.5,1351.5z"/>
		<path fill="#FCECDB" d="M1179.3,725c0,157.6-141.3,242-312.4,259.1c-21.9,2.2-44.2,3.3-66.9,3.3c-4.3,0-8.5-0.1-12.7-0.1
			c-0.2,0-0.4,0-0.6,0c-6-0.1-11.9-0.4-17.7-0.7c-24.2-1.3-47.3-4.1-69.3-8.3c-19.2-3.7-37.7-8.4-55.3-14c-5-1.6-9.9-3.3-14.8-5
			C457,897.1,368.2,743,368.2,605c0-177.8,233.5-304.1,431.9-261.3C995.1,385.7,1179.3,547.2,1179.3,725z"/>
		<g>
			<path fill="#2C3A64" d="M1618.3,1004.9c-2.7-4.8-33.3-55.9-115.4-17.8c0,0,42.1-15.3,57.8-1.4c0,0-37.9-7.9-56.4,10.2
				c-18.5,18.1-11.9,63.2-5.6,75.9c6.3,12.7,39.2,47.4,54.9,43.8c6-1.4,11.9-4.8,16.9-8.5c-0.8,7.7-1.2,15.9-1,24.8
				c1.2,82.4,67.1,130.2,90.8,109.2c15.2-13.4,35.2,13.9,35.2,13.9l100.3-223.4C1795.6,1031.7,1668,934.1,1618.3,1004.9z"/>
			<path fill="#FFB27D" d="M1852,1469.1c-21,14.6-47.4,26.6-80.4,34.2c-124,28.7-171.5-76.2-189.4-148.1c16.9-9.7,32.8-11.8,42-12.9
				c9-1.1,18.4-1.8,26.2-2.1c13.9-10.7,34.7-54.3,39.3-122.1l5.8,1.6l97.7,26.7c0,0-4.5,31.1-6.7,60.4c-1.7,23-2,44.9,2.4,50.3
				c7.6,1.7,12.2,2.7,12.2,2.7s0,0,0,0.1C1802.5,1362.1,1830.8,1408.7,1852,1469.1z"/>
			<path fill="#ED985F" d="M1793.2,1246.4c0,0-4.5,31-6.7,60.4c-55.4-5.5-81.1-58.3-91.1-87.2L1793.2,1246.4z"/>
			<path fill="#FFB27D" d="M1823.4,1257.1c0,0-127.8,31.4-146.2-48.5c-18.3-79.9-47.2-129.7,33.6-153.1
				c80.8-23.4,103.7,3.4,116.4,28.6S1856.2,1246.9,1823.4,1257.1z"/>
			<path fill="#2C3A64" d="M1813.3,1040.6c-25.3-19.5-39.1-10.8-45.9-1.7c-78.9-22.5-111.1,44.8-111.1,44.8
				c4.5,59.3-29.3,101.6-29.3,101.6s26.7,9.1,77.4-17.1c15.5-8,27.5-23.1,36.8-40.1c-13.5,41.6-37.1,74.7-37.1,74.7
				c57.6-44.5,63-139.9,63.4-150c9.4,5.2,28.4,17,36.5,30.9c11,18.9,23.5,60.1,35.4,55.9C1839.4,1139.6,1851.3,1069.8,1813.3,1040.6
				z"/>
			<path fill="#F99746" d="M1852,1370.1c-17.9-9.5-40.8-16.5-65.8-21.7c0,0-12.9,33.2-52.1,32.4c-37.3-0.7-74.2-41.9-77.8-46
				c-42.7-1.4-74.1,0-74.1,0s-90,140.8-78.8,173.4c7.3,21.5,13.1,42.7,17.6,63.4c20.9,96.1,14.3,179.7,9,218.9
				c-2.1,15.1-3.9,23.6-3.9,23.6l283.4,6.6c0,0,23.5-83.6,40.9-154.9c0.5-2.1,1-4.3,1.6-6.4c11.8,24.3,45.3,60.9,60.4,63.8
				c0.9,0.2,5.2,0.3,11.3,0.3c22.7,0.2,66.6,0.5,66.6,0.5C1998.6,1656.7,1888.9,1386.1,1852,1370.1z"/>
			<path fill="#ED7D2B" d="M1529.9,1790.4c5.3-39.2,12-122.8-9-218.9c0.1-1.1,0.1-1.7,0.1-1.7s77.5,74.1,90.9,151.5
				C1621.2,1774.2,1565.3,1788,1529.9,1790.4z"/>
			<path fill="#FFB27D" d="M1749.7,1721.3c-1.6-5.1-27.3-31.3-41.3-34.5c-13.9-3.2-59.9,7.4-59.9,7.4l0,0
				c-28.5-3.8-93.6-14-169.9-36.1c-13.4-3.9-27.2-8.2-41.2-12.8l116.1-104.7l102.7-205.7c0,0-87.1-6.9-109.1,6.3
				c-79.3,47.3-226.3,323.2-223.5,380.3c0,0,37.2,2.1,105.2,2.9c52.2,0.7,122.7,0.6,208.3-1.6c0,0,9.4-0.1,19.3-1.4h93.3V1721.3z"/>
			<path fill="#F99746" d="M1553.6,1540.5l-102.4,105.9c10.1,3.8,20.6,9.3,27.5,11.6c0,0-9.4,40.3-49.8,66.2
				c-68-0.9-105.2-2.9-105.2-2.9c-2.8-57.1,144.2-333,223.5-380.3c22-13.1,109.1-6.3,109.1-6.3L1553.6,1540.5z"/>
			<path fill="#ED7D2B" d="M1990.2,1723.9c-6.1-0.1-77-0.6-77.9-0.8c-15.2-2.9-48.6-39.4-60.4-63.8c-0.5,2.1,3.8-23,7.7-33.2
				c8.6-22,20-40.6,20-40.6C1920.3,1579.4,1990.3,1685.2,1990.2,1723.9z"/>
			<path fill="#FFB27D" d="M1987.8,1660c-9-68.4-28.3-186.8-66.2-323.1h-0.2c-2.2-8.6-19.8-75.8-27.2-83.1
				c-7.9-7.9-49.3-24.3-56.4-26.1c0,0-1.2,4.8,3.1,8.5c1.3,1.1,3.7,2.8,6.5,4.7l-9.8,5.3c0,0,3.7,3.2,9.2,2.4
				c2.6-0.4,6.2-1.4,9.2-2.3c2,1.2,4,2.4,5.9,3.5c3.1,2.9,6.7,6.6,7.1,7.9c0.4,1.6,1.7,8.4,2.5,12.8c-1.5-1.3-2.8-2.7-3.7-4
				c-3.9-6.1-12.1-5.4-12.1-5.4s11.2,14.1,12.3,23.3c1.6,14,9.4,21.3,9.4,21.3l0,0c2.9,3.4,6.9,6.4,10.3,13.5
				c2.5,5.2,3.5,15.1,4.2,20.8l0,0c1.7,20.6,7.5,96.5,5.9,152.5c-2.1,75.2-9.2,142.7-0.8,184.6c2.2,10.8,5.4,20,10,27.1
				c18.4,28.3,83.3,20,83.3,20S1993,1699.4,1987.8,1660z"/>
			<path fill="#F99746" d="M1990.2,1723.9c0,0-64.8,8.3-83.3-20c-4.6-7.1-7.9-16.2-10-27.1c13.9,3.5,51.9,9.4,90.9-16.8
				C1993,1699.4,1990.2,1723.9,1990.2,1723.9z"/>
		</g>
		<g>
			<path fill="#FFB27D" d="M811.3,612.1c-9.4-0.9-18.3-1.5-26.6-1.7c-7.3-0.2-13.7-4.9-16.3-11.7c-4.2-11.3-7.9-26.1-9.7-43.9
				l-3.3,1L700,573c0,0,3.2,17.6,5,34.4c0.2,2.1,0.4,4.1,0.6,6.1c0.2,2.6-1.4,5-4,5.8c-26.5,7.8-37.4,17.9-37.4,17.9
				s7.4,96.5,43.5,206.9c3.5,10.6-49.5,74.3-49.5,74.3c12.9,41.3,188.9-17.8,188.9-17.8s-12-36.6,3.7-125.9
				C869,670.5,811.3,612.1,811.3,612.1z"/>
			<path fill="#FFB27D" d="M811.3,612.1c0,0,55.4,6.7,86.8,164.5c0,0,8.5,45.7-8.5,51.2C872.4,833.2,784.2,730.6,811.3,612.1z"/>
			<path fill="#233862" d="M724.9,519.7c0,0,35.6,12.7,16.1,52.4c0,0,29.1-0.4,35.2-9.6c0,0-0.6,3.7-1.6,5.7c0,0,27.3-7.3,35.8-19.1
				c8.6-11.8-40.7-147.6-110.9-109.3c0,0-64.9,14.6-36.6,86.2c28.3,71.6,4.4,78.9,4.4,78.9s7.7,1.2,10.9,0.3c0,0,4.2-3.2,4.3-6.1
				c0,0,0.3,4.4-0.5,6c0,0,26.6-5.5,36.5-19.2C728.4,572.2,733.2,533.7,724.9,519.7z"/>
			<path fill="#ED985F" d="M700,573c0,0,3.9,24.7,5.7,41.4c28.9-23.3,32.5-44.1,37.6-60.9L700,573z"/>
			<path fill="#233862" d="M742.4,555.2c0,0,13.8-27.9,15.4-50.7c1.1-16.3,10.6-83.9-48-69.1c0,0-41,12.9-56.1,25.6
				c-12,10.1-28.6,30.9-2.3,80.4l7.3,16.9L742.4,555.2z"/>
			<path fill="#FFB27D" d="M691.2,597.6c0,0,72.3-20.8,58.6-65.6c-13.6-44.8-13.5-77.7-60.2-66.3c-46.7,11.4-50.4,31.2-49.5,47.2
				C641,529,672.1,601.8,691.2,597.6z"/>
			<path fill="#233862" d="M662.7,477.4c0,0-11.1,16.2-11.2,28.7c-0.1,12.5,5.5,36.5-1.6,37.8c0,0-25.7-31.2-15.3-56.5
				C645.8,460.6,662.7,477.4,662.7,477.4z"/>
			<path fill="#F8A871" d="M872.8,774.7c0,0,0.2-57.5-10.4-64.4C851.7,703.4,848.3,776.1,872.8,774.7z"/>
			<path fill="#2B478B" d="M691.4,622.7c0,0,47,65.3,90,61.8c0,0,16.7-47.9,2-74.3c0,0,11,0.4,14.8,0.6c3.2,0.2,13.1,1.2,13.1,1.2
				l40.8,69.7c9.5,16.2,13.3,35.1,10.8,53.7L847.1,854c0,0-42.6,27.9-139.4-10.1l-27.2-93.8L691.4,622.7z"/>
			<path fill="#FFB27D" d="M851.7,703.4c0,0.1-0.1,0.8-0.5,1.8c-0.1,0.2-0.2,0.5-0.3,0.8c-0.2,0.6-0.5,1.3-0.8,2
				c0,0.1-0.1,0.2-0.1,0.2c-8.4,22.1-48,111.9-87.8,136.5c-2,1.8-4.2,3.3-6.7,4.4c-0.3,0.1-0.6,0.2-0.8,0.3
				c-0.3,0.1-0.6,0.2-0.9,0.3c-0.1,0.1-0.3,0.1-0.4,0.1c-2,0.7-4.1,1-6.4,1c-0.5,0-1.1,0-1.7-0.1c-20.6-1.5-108.9-129.3-110.5-168.2
				c-1.1-24.8,29.4-45.6,29.4-45.6c31.1,16.3,61.2,67.7,82.3,112.1c4.4,9.2,8.4,18.1,11.9,26.3c40.2-38.1,72.1-82.9,72.1-82.9
				L851.7,703.4z"/>
			<path fill="#F99746" d="M851,913.3c-2.3-8.1-3.9-12.7-3.9-12.7s-119.8,6.4-150-33.6l0,0l0,0c-0.4,0.3-5.7,5.4-13.5,13.9l-0.1,0.1
				c-9.8,10.7-23.4,26.9-36,46.4c-6.4,9.9-12.6,20.5-17.8,31.8c4.9,1.8,9.8,3.4,14.8,5c17.6,5.6,36,10.4,55.3,14
				c22,4.2,45.2,7,69.3,8.3c5.8,0.3,26.7,0.8,31,0.8c22.6,0,45-1.1,66.9-3.3C862,953.6,855.2,927.8,851,913.3z"/>
			<path fill="#ED985F" d="M758.4,775.6c-19.8,27.6-57.1-26-58.4-28l9.6-8.1c0,0,21.5,2.7,36.9,9.8
				C750.9,758.5,754.9,767.4,758.4,775.6z"/>
			<path fill="#FFE8DC" d="M673.7,574.9c0,0,7.8-7.5,25-8.8c0,0-0.3,7.4-10,10.9C679,580.5,673.7,574.9,673.7,574.9z"/>
			<path fill="#233862" d="M698.5,440.8l-40.7,37.3c0,0,30.8,50.7,74.3,56.7c0,0-22.4-10.2-41.2-27.9c11.8,8.2,24.8,14.4,36.7,13.9
				c9.7,0.5,24,39.6-3.1,49.4c0,0,36.1,3.8,48.8-9.6c0,0-0.6,3.8-1.6,5.7c0,0,27.3-7.3,35.8-19.1
				C816.1,535.4,768.6,402.5,698.5,440.8z"/>
			<path fill="#2B478B" d="M691.4,622.7c0,0-49,16.8-59.7,37.4c-10.8,20.6,7.7,73.8,29.9,100.6c0,0,54.9-0.6,80.7-40.5
				C742.2,720.2,701.4,631.6,691.4,622.7z"/>
			<path fill="#2B478B" d="M811.3,612.1c0,0,32.8,2.1,54.2,48.6c0,0,1.2,32.2-24,32.9C816.2,694.5,811.3,612.1,811.3,612.1z"/>
			<path fill="#FFB27D" d="M858.4,761.5c-23-6.3-44.7-12.6-64.3-18.4c-55.7-16.5-94.1-29.2-94.1-29.2l-0.1,0.2l0.1-0.2
				c0,0-13.5-12.8-14.3-18.9c-0.7-5.5-15-8.4-24.6-11.2c-1.3-0.4-2.5,0.9-1.9,2.2c1.1,2.3,4.9,6,8.8,7.3c6.8,2.2-6.9,6.7-17.6,0.8
				c-6.6-3.6-18.1-15.7-21.7-11.2c-3.6,4.4,0.5,27.5,9.6,37.2c6.1,6.5,36.3,6.6,47.3,12.8l0,0c87.9,40.7,151.4,114.2,203.8,95
				C889.5,827.8,900.9,773.2,858.4,761.5z"/>
			<path fill="#F8A871" d="M794.1,743.1l-19.7,18.3c0,0-77.3-39.7-74.7-47c0.1-0.2,0.2-0.4,0.4-0.5
				C700.1,713.9,738.4,726.7,794.1,743.1z"/>
			<path fill="#FFB27D" d="M830.6,692.6c0,0,6.5-17.4,4.6-23.3c-1.9-5.6,12-13.6,19.3-20.5c0.3-0.3,0.9-0.1,0.9,0.4
				c0.1,1.8-0.2,5.6-3.9,9.3c-5.1,5,1.9,6.1,6.6,0.2c4.7-5.9-5.2-17.9,0-15.5s21.6,16.3,19.8,25c-1.7,8.7-19,24.7-26.2,35.1
				L830.6,692.6z"/>
			<path fill="#ED7D2B" d="M683.5,881c0,0,58.7,56.9,167.4,32.3l-5.8-21.1c0,0-93.4,25.6-144.1-31.4L683.5,881z"/>
			<path fill="#F99746" d="M882.4,537.1c0,0,26.9-21.5,42.3-3.2C940.1,552.2,872,578,872,578s-29.9-54.7-13.4-59.4
				C875.1,514,882.4,537.1,882.4,537.1z"/>
			<path fill="#F99746" d="M593.3,413.8c0,0,3.6-19.9,17.5-17.8s-6.3,39.9-6.3,39.9s-34.4-12.6-28.9-21.1
				C581.1,406.4,593.3,413.8,593.3,413.8z"/>
			<path fill="#F99746" d="M598.8,594c0,0-5-22.4,10.5-26.2s10.9,44.5,10.9,44.5s-41.5,1.9-39.5-9.4
				C582.8,591.6,598.8,594,598.8,594z"/>
			<path fill="#ED985F" d="M851.7,703.4c0,0.1-0.1,0.8-0.5,1.8c-0.1,0.2-0.2,0.5-0.3,0.8c-0.2,0.6-0.5,1.3-0.8,2
				c0,0.1-0.1,0.2-0.1,0.2c-8.9,23.5-52.5,123.1-94.5,140.9c-0.3,0.1-0.6,0.2-0.8,0.3c-0.3,0.1-0.6,0.2-0.9,0.3
				c-0.1,0.1-0.3,0.1-0.4,0.1c-2,0.7-4.1,1-6.4,1C732,838.4,851.7,703.4,851.7,703.4z"/>
		</g>
		<g>
			<path fill="#FFB27D" d="M804.2,1527.1c-5.8-10.5-9.9-19.7-8.6-25.5l0,0c0.2-0.9,0.4-2.7,0.8-5.1c1.2-9.1,3.2-27.1,6.7-43
				c0.4-2.1,0.9-4.2,1.4-6.2l0,0c0.3-1.3,0.7-2.5,1-3.8c0.9-3.3,1.5-6.5,1.7-9.6c1.7-20.6-10.2-37.8-22.3-47.8
				c-1.6-1.3-3.2-2.5-4.8-3.6c-4.6-3.1-8.9-5-12.3-5.5c-3.1-2.8-7.3-13.8-10.7-24.2c-1.3-3.9-2.4-7.7-3.4-10.9
				c0-0.1-0.1-0.2-0.1-0.3c-1.1-3.6-1.9-6.4-2.2-7.8l0,0c-0.2-0.6-0.3-1-0.3-1l-0.9,0.6l-3.7,2.3l0,0l-9,5.7l-14,8.9v0.1
				c0.4,1.4,0.7,2.9,1,4.4c0.1,0.8,0.2,1.6,0.4,2.5c0.3,2.4,0.5,4.9,0.6,7.4l0,0c0.1,1.8,0.1,3.7,0.1,5.5c0,3.9-3.3,7-7.2,6.9
				c-0.1,0-0.2,0-0.2,0l0,0c-7.8-0.3-16.4-0.5-20.9,0c-8.5,0.9-17.7,2.2-27.9,3.1c-0.1,0-0.2,0-0.2,0c-11.5,1-24.2,1.5-38.7,0.4
				l1.8-85.7c0,0,8.8-8.7,9.4-13.4c0.5-4.7,0.9-24.6-2.9-26.7c-1.7-0.9-2.1,14.4-3.3,15.2c-3.8,2.5-18.4,3.7-16.9,18.7l0,0
				c-5,17.5-29.4,104.8-19.2,110.3l0,0l0,0l0,0c2.8,2,5.9,3.9,9,5.6c0.7,0.4,1.3,0.7,2,1.1c0.4,0.2,0.8,0.4,1.2,0.6
				c1.1,0.6,2.3,1.1,3.4,1.7c0.7,0.3,1.3,0.6,2,0.9c0.9,0.4,1.8,0.8,2.8,1.2c0.6,0.2,1.2,0.5,1.7,0.7c1.3,0.5,2.7,1,4.1,1.5
				c0.4,0.1,0.8,0.3,1.1,0.4c0.1,0.1,0.3,0.1,0.4,0.2c0.4,0.2,0.9,0.3,1.3,0.5l0,0c0.8,0.3,1.6,0.5,2.4,0.8c0.8,0.3,1.6,0.5,2.4,0.8
				c1.6,0.5,3.2,1,4.8,1.4c0.6,0.2,1.2,0.3,1.8,0.5c0.3,0.1,0.7,0.2,1,0.3c0.8,0.2,1.5,0.4,2.3,0.6c1.7,0.4,3.5,0.9,5.2,1.3
				c0.6,0.1,1.2,0.3,1.8,0.4c0.1,0,0.1,0,0.2,0c0.8,0.2,1.5,0.3,2.3,0.5s1.6,0.3,2.4,0.5c1.9,0.4,3.9,0.8,5.8,1.1
				c1.7,0.3,3.4,0.6,5,0.8c1,0.2,2,0.3,3,0.5c0.9,0.1,1.9,0.3,2.8,0.4c0.9,0.1,1.8,0.2,2.6,0.3c1.3,0.2,2.6,0.3,3.8,0.5l0,0
				c0.6,0.1,1.1,0.1,1.7,0.2c0.7,0.1,1.5,0.2,2.2,0.2c0.5,0,1,0.1,1.5,0.2c-0.4,1.1-0.8,2.2-1.1,3.2s-0.6,2.1-0.8,3.2c0,0,0,0,0,0.1
				c-0.5,2.8-0.7,5.7-0.4,8.5c2.8,26.2,23.7,59.7,29.9,81.6c0.8,2.8,1.4,5.4,1.6,7.7c0.5,4.5,0.5,10.2,0.2,16.4
				c15.5,1.9,31.7,2.9,48.5,3c0.5,0,1.1,0,1.7,0c9.4,0,18.8-0.2,28-0.8l0,0c8-0.4,15.9-1.1,23.7-1.9
				C811.2,1539.2,807.4,1532.9,804.2,1527.1z"/>
			<path fill="#233862" d="M737.5,1310.2c0,0,21.6,7.7,9.7,31.8c0,0,17.6-0.3,21.3-5.8c0,0-0.4,2.3-1,3.4c0,0,16.5-4.4,21.7-11.6
				s-24.7-89.5-67.2-66.3c0,0-39.3,8.8-22.2,52.2c17.2,43.4,2.7,47.8,2.7,47.8s4.6,0.8,6.6,0.2c0,0,2.5-2,2.6-3.7
				c0,0,0.2,2.6-0.3,3.7c0,0,16.1-3.3,22.1-11.6C739.7,1342.1,742.6,1318.7,737.5,1310.2z"/>
			<path fill="#ED985F" d="M722.5,1342.6c0,0,2.3,15,3.4,25.1c20.3-6.5,22.2-24.8,25.3-34.9L722.5,1342.6z"/>
			<path fill="#233862" d="M748.1,1331.7c0,0,8.4-16.9,9.3-30.8c0.7-9.9,6.4-50.9-29.1-41.9c0,0-24.9,7.8-34,15.5
				c-7.3,6.1-17.4,18.7-1.4,48.7l4.4,10.2L748.1,1331.7z"/>
			<path fill="#FFB27D" d="M717.1,1357.4c0,0,43.8-12.6,35.5-39.8c-8.3-27.2-8.2-47.1-36.5-40.2s-30.6,18.9-30,28.6
				C686.7,1315.9,705.5,1360,717.1,1357.4z"/>
			<path fill="#233862" d="M707.6,1280c0,0-14.5,14.4-14.5,22c-0.1,7.6,3.3,22.1-1,22.9c0,0-15.6-18.9-9.2-34.2
				C689.6,1274.4,707.6,1280,707.6,1280z"/>
			<path fill="#233862" d="M722.1,1261.8c0,0-0.4,0.1-1.2,0.3c1.3,3-22.4,24-22.4,24s18.7,30.8,45.1,34.4c0,0-13.6-6.2-25-16.9
				c7.1,4.9,15,8.7,22.2,8.4c5.9,0.3,14.6,24-1.9,30c0,0,21.9,2.3,29.6-5.8c0,0-0.4,2.3-1,3.4c0,0,16.5-4.4,21.7-11.6
				C794.5,1320.9,764.6,1238.6,722.1,1261.8z"/>
			<path fill="#ED985F" d="M695.1,1425.4c-25.4-1.7-60.8-6.7-86.7-20.9c-5.2-3.2-8.5-5.3-9-5.6l0,0l0,0c0.5,0.2,3.2,1.3,7.4,2.7
				c16.5,5.5,56.5,16.6,81.5,4.1C706,1396.9,702.1,1411,695.1,1425.4z"/>
			<path fill="#ED985F" d="M815,1545.5c-7.8,0.8-15.7,1.4-23.7,1.9l0,0c-9.3,0.5-18.6,0.8-28,0.8c-0.6,0-1.1,0-1.7,0
				c-5.9-11.9-10.2-23.1-12.8-30.6c-2-5.8-3-9.3-3-9.3c14.8-7.5,29.6-11.1,43.6-11.8c2.3-0.1,4.7-0.1,7-0.1
				c-0.3,2.4-0.6,4.2-0.8,5.1l0,0c-1.2,5.9,2.8,15,8.6,25.5C807.4,1532.9,811.2,1539.2,815,1545.5z"/>
			<path fill="#2B478B" d="M809.1,1410.1c-12.2-21.6-41.3-33.1-41.3-33.1c-9.1,28.9-48,44.9-48,44.9c-11.2-18.1-1.6-44.9-1.6-44.9
				l0,0c0,0-14.8-3.8-29.8-0.5c-15,3.2-19.3,3.6-19.3,3.6s-2.5,38,13.5,47.8c-0.7,1.9-1.2,3.7-1.5,5.4
				c-4.2,21.7,21.2,87.5,21.2,87.5c55,3,93.2-19.2,93.2-19.2s13.6-36.8,16.4-65.2C813,1425.6,812.5,1416,809.1,1410.1z"/>
			<g>
				<polygon fill="#F99746" points="661,1272.9 661,1272.9 706,1143.3 734.5,1179.1 781.7,1088.2 781.7,1088.2 736.5,1225.8 
					706.4,1189 				"/>
			</g>
			<g>
				<polygon fill="#F99746" points="573.8,1323.2 573.8,1323.2 522.7,1251.9 551.9,1250.3 521.8,1192.1 521.8,1192.1 577,1266.5 
					546.7,1268.6 				"/>
			</g>
			<g>
				<polygon fill="#F99746" points="827,1340.7 827,1340.7 881,1271.7 890.8,1299.2 938.2,1254.1 938.2,1254.1 882.3,1327.9 
					871.8,1299.4 				"/>
			</g>
			<path fill="#2C3A64" d="M811.9,1436.3c-2.8,28.4-16.4,65.2-16.4,65.2c-20.7-6.6-0.4-68.5-0.4-68.5
				C804.1,1432.8,807.1,1433,811.9,1436.3z"/>
			<path fill="#FFB27D" d="M867.2,1485.4L867.2,1485.4L867.2,1485.4c-25.8-67.9-67.9-104.8-67.9-104.8c-22.9-4.8-29.6,10.4-35,32.5
				c-1.4,5.8,47.8,46.8,68.3,69.4l0,0l-28.4,44.7l-12.9,20.3c8-0.4,15.9-1.1,23.7-1.9c0.9-0.1,1.7-0.2,2.5-0.3
				C841,1521.1,871,1488.7,867.2,1485.4z"/>
			<path fill="#2B478B" d="M767.9,1377c0,0,20.1-2.6,30.8,3.7c10.7,6.3,34.5,34.8,34.5,34.8s-15.3,37-43.3,33.8
				c0,0-43.1-43.3-32.7-53.7C767.5,1385.1,767.9,1377,767.9,1377z"/>
		</g>
		<path fill="#2B478B" d="M1587.7,419.9c0,0-52.1,7.5-67.7,25.4s-24.5,59.1-8.9,83C1526.7,552.3,1587.7,419.9,1587.7,419.9z"/>
		<path fill="#ED985F" d="M1659.4,352.4c0,0-7,29.7,20.5,87.2l-76.9,78.8l-6-73.1c0,0,10-40.9,6.3-66.8L1659.4,352.4z"/>
		<path fill="#233862" d="M1630.1,309.4c0,0,40.9,14.3,18.8,60.1c0,0,33.4-0.7,40.3-11.3c0,0-0.7,4.3-1.9,6.5c0,0,31.3-8.5,41-22.2
			s-47.8-169.2-128.1-124.7c0,0-74.4,17.2-41.4,99.2s5.6,90.6,5.6,90.6s8.8,1.4,12.5,0.2c0,0,4.7-3.7,4.9-7c0,0,0.4,5-0.5,6.9
			c0,0,30.5-6.4,41.8-22.2C1634.5,369.7,1639.8,325.5,1630.1,309.4z"/>
		<path fill="#DB8952" d="M1603,363.8c0,0,0.7,28.7,0.3,48c39.7-7.2,47.7-41.2,56-59.4L1603,363.8z"/>
		<path fill="#233862" d="M1645.9,352.4c0,0,18.8-30.4,23.1-56.3c3.1-18.5,21.3-94.8-47.3-84.2c0,0-48.3,10.2-66.9,23.1
			c-14.8,10.2-36.1,32.2-11.4,91.6l6.5,20.1L1645.9,352.4z"/>
		<path fill="#ED985F" d="M1598.1,401.2c0,0,81.1-29.8,61.8-80c-19.3-50.2-21.8-87.8-74.4-71c-52.6,16.9-55.2,39.9-52.8,58.2
			C1534.9,326.8,1576.5,407.6,1598.1,401.2z"/>
		<path fill="#233862" d="M1558.5,261.3c0,0-12.7,18.7-12.7,33.1s6.5,41.8-1.6,43.4c0,0-29.8-35.6-17.9-64.8
			C1538.9,242.1,1558.5,261.3,1558.5,261.3z"/>
		<path fill="#FFB27D" d="M1713,734.5c-15.8-0.9-32.4-3-49.7-6.4c-43.1-8.4-84.8-10.9-124.1-10.8c0.2-2.1,0.3-4.2,0.3-6.1
			c0.3-19.1-8.4-47.2-17.6-77.4H1714c-6.4,22.6-10.9,41.6-12.6,46.5C1697.4,691.7,1703.6,711.5,1713,734.5z"/>
		<path fill="#2B478B" d="M1701.4,680.3c0,0-0.6,0.3-1.8,0.8c-11.3,4.7-75.8,29.2-168.7,11.9c0,0-33-124.9-19.8-164.6
			c13.1-39.5,74.6-100,75.5-100.9c-0.6,1.1-24.2,48.5-7.9,84.7c0,0,69.6-38.6,93.7-90.7c0,0,53.9,42.6,74.2,84.3
			c1,2,1.9,4.1,2.7,6.1C1766.9,555.3,1701.4,680.3,1701.4,680.3z"/>
		<path fill="#2C3A64" d="M1701.4,680.3c0,0-0.6,0.3-1.8,0.8c-25.1-34-2.7-139.7-2.7-139.7s26.3-31,49.7-35.6c1,2,1.9,4.1,2.7,6.1
			C1766.9,555.3,1701.4,680.3,1701.4,680.3z"/>
		<path fill="#FFB27D" d="M1578,396.2c0,0-0.1,6-0.4,16l0,0c0,0.9-0.1,1.8-0.1,2.8c-1.7,50.6-8.6,187.2-34.7,204
			c-2.1,1.4-4.4,2-6.8,1.6c-0.4-0.1-0.8-0.1-1.1-0.2c-3.3-0.5-6.4-1.3-9.4-2.4c-0.2-0.1-0.4-0.1-0.6-0.2l0,0
			c-24.3-9-38.3-35.7-30.7-61.6l61.2-165.3c1.1-4.2,1.8-12.5-5.4-23c-5-7.4-5.1-20.6-6.7-29.4s-0.2-11.5,2.1-7.7
			c2.3,3.8,5.9,16.3,7.5,15.5s-4.1-41.4,4-41.1s21.3,45.6,21,59.4C1577.5,378.5,1578,396.2,1578,396.2z"/>
		<path fill="#ED985F" d="M1577.5,415c-1.7,50.6-8.6,187.2-34.7,204c-2.1,1.4-4.4,2-6.8,1.6c-0.4-0.1-0.8-0.1-1.1-0.2
			c-3.3-0.5-6.4-1.3-9.4-2.4c-0.2-0.1-0.4-0.1-0.6-0.2l0,0C1498.9,592.1,1568.9,434.2,1577.5,415z"/>
		<path fill="#FFB27D" d="M1702.4,434.8c-8.7-1.1-46.1,56.1-78.9,100.8l0,0l-16.1-149.1l-0.9-1.5h0.1c0,0,2.8-24.6,9-31.9
			c6.3-7.2,4-20.9,4.9-29.8c1-8.9-1.2-11.5-3.6-7.6s-5.5,16.7-7.7,15.9c-2.2-0.8,0-41.6-10.3-40.9s-21.6,46.7-19.5,60.5
			c1.7,11.7,3.1,26.2,3.5,30.4c-11.4,63.4-36.7,218.7-13.8,238.1c1.4,1.2,3.1,2.3,4,2.3c77.2,0.8,142.8-69.5,172.3-106.9
			c10.7-13.6,16.6-22.9,16.6-22.9C1766.3,448,1745.2,440.4,1702.4,434.8z"/>
		<path fill="#ED985F" d="M1745.5,514.9c-29.4,37.5-95.1,107.8-172.3,106.9c1,0,1.9-0.1,2.9-0.2c14.7-1.8,33.9-13.7,53.6-29.4
			c43.8-35,89.4-88.6,89.4-88.6L1745.5,514.9z"/>
		<path fill="#2B478B" d="M1672.4,421.4c0,0,69.6,4.1,83.7,26c16.1,25.1,16.5,49.7,2.6,96c0,0-86.3-17.2-83.3-80.4L1672.4,421.4z"/>
		<g>
			<path fill="#699DEE" d="M1526,370.8c-3.6,2.9-4.4,8.1-1.6,9.7c3,1.7,4.6-2.2,5.5-7c0.8-4,4-7.1,4-7.1S1529.5,367.9,1526,370.8z"
				/>
			<path fill="#699DEE" d="M1474.9,403.9c2.8,2,4.8-1.7,6.1-6.5c1.1-4,4.6-6.7,4.6-6.7s-4.6,1-8.3,3.6
				C1473.6,397,1472.3,402.1,1474.9,403.9z"/>
			<path fill="#699DEE" d="M1503.4,430.8c-2.6,3.8-1.8,9,1.3,9.8c3.4,0.8,3.8-3.4,3.3-8.3c-0.4-4.1,1.8-7.9,1.8-7.9
				S1505.9,427,1503.4,430.8z"/>
			<path fill="#699DEE" d="M1465.8,440.9c-2.8,3.7-2.3,8.9,0.8,9.8c3.3,1,4-3.2,3.7-8.1c-0.2-4.1,2.2-7.8,2.2-7.8
				S1468.6,437.3,1465.8,440.9z"/>
		</g>
		<g>
			<path fill="#699DEE" d="M1686.8,383.8c-4-2.6-8.8-3.5-8.8-3.5s3.7,2.7,5,6.8c1.6,4.9,3.7,8.7,6.6,6.6
				C1692.3,391.7,1690.9,386.4,1686.8,383.8z"/>
			<path fill="#699DEE" d="M1740,402.2c-4.2-2.2-9-2.7-9-2.7s4,2.4,5.6,6.3c2,4.7,4.4,8.4,7.1,6
				C1746.1,409.6,1744.2,404.5,1740,402.2z"/>
			<path fill="#699DEE" d="M1710.1,437.2c0,0,2.8,3.7,2.8,8c0.1,5.1,1,9.4,4.4,8.2c3.1-1.1,3.3-6.6,0.2-10.3
				C1714.5,439.5,1710.1,437.2,1710.1,437.2z"/>
			<path fill="#699DEE" d="M1757.5,448.9c-3.2-3.4-7.7-5.5-7.7-5.5s3,3.5,3.3,7.8c0.3,5.1,1.5,9.3,4.8,7.9
				C1761,457.9,1760.8,452.4,1757.5,448.9z"/>
		</g>
		<path fill="#233862" d="M1600.4,217.9c0,0-33.1,23.2-49,40.3c0,0,1.6,1.9,4.5,5.1c0,0.7,0.1,1,0.1,1s35.8,58.1,85.8,64.6
			c0,0-25.7-11.6-47.5-31.7c13.6,9.3,28.6,16.4,42.2,15.7c11.2,0.5,27.9,45.3-3.2,56.8c0,0,41.5,4.1,56-11.4c0,0-0.7,4.3-1.8,6.5
			c0,0,31.3-8.5,41-22.2C1738.2,329,1680.6,173.4,1600.4,217.9z"/>
		<g>
			<path fill="#FFB27D" d="M2252.4,1017.1c-4.1,1.6-18.3,27.6-33.5,54.5l8.9-109.5c0,0,5.9-12.1,5.9-17.6s7.3-49,3.6-50.3
				s-22.9,19.4-24.8,28.7c-1.1,5.6,1.4,32,1.4,32l0,0c-4.1,9.7-54,128.1-60.8,181.4c-2,15.4-0.3,25.4,7.2,25.8
				c1.9,0.1,3.8,0.1,5.7,0c7.6-0.4,15.3-2.4,22.2-4.7c0.1,0,0.1-0.1,0.2-0.1c7.4-2.3,14.4-5.6,21-9.4c0.2-0.1,0.3-0.2,0.5-0.3
				c1.9-1.1,3-1.7,3-1.7v-0.1c21.7-13.4,39.2-33.2,51.5-50.1c13.2-18,20.4-32.8,20.4-32.8
				C2296.8,1020.3,2266.1,1011.9,2252.4,1017.1z"/>
			<path fill="#233862" d="M2292.7,921.6c0,0,33.3,5.9,22,44c0,0,25.6-4.7,29.7-13.7c0,0,0,3.4-0.6,5.3c0,0,23-10.5,28.8-22.2
				s-57.9-124.4-114.2-80.1c0,0-55.2,22.5-19.5,81.6s15.6,69.1,15.6,69.1s7,0,9.7-1.4c0,0,3.2-3.5,2.9-6c0,0,0.9,3.8,0.5,5.4
				c0,0,22.7-8.8,29.4-22.4C2303.6,967.5,2302.1,932.7,2292.7,921.6z"/>
			<path fill="#FFB27D" d="M2363.2,993.8c2,16.6,1.8,42.6-17.4,47.6c-12,3.1-20.7,8.1-27.6,11.5c-9.5,4.6-15.7,6.2-23.1-4.4
				c-12.8-18.4-7.9-44.1-7.9-44.1l2.5-0.8c-5.9-11.6-11.5-23.8-13.7-31.7l43.2-22.3l4.1-2.1c0,0,4,4.8,10.8,11.4
				c8.9,8.6,22.7,20.1,38.8,27.5L2363.2,993.8z"/>
			<path fill="#ED985F" d="M2326,1047.2l-7.8,5.7c-9.5,4.6-15.7,6.2-23.1-4.4c-12.8-18.4-7.9-44.1-7.9-44.1l2.5-0.8
				c-5.9-11.6-11.5-23.8-13.7-31.7l43.2-22.3c2.4,2.6,7.2,7.6,13.7,13.6C2337.1,983,2341,1018.2,2326,1047.2z"/>
			<path fill="#233862" d="M2313.4,950.4c0,0,8-26.7,6.1-47.1c-1.4-14.6-3.1-75.8-52.7-54c0,0-34.3,17.5-45.8,30.9
				c-9.1,10.7-20.7,31.6,9.9,71.4l8.9,13.8L2313.4,950.4z"/>
			<path fill="#FFB27D" d="M2292.8,984.2c-9.7,7.1-18.3,11.2-18.3,11.2c-16.3,6.6-54.5-53.2-57.7-67.2c-3.2-14.1-2.8-32.1,36.8-49.1
				c27.9-12,38.5-1.1,48.9,19.5c4.4,8.6,8.7,19,14.2,30.1C2328.3,952.2,2309,972.4,2292.8,984.2z"/>
			<path fill="#ED985F" d="M2295.7,982c3.3-28.5-36.2-76-36.2-76s23.3-4.1,42.9-7.4c4.4,8.6,8.7,19,14.2,30.1
				C2328.3,952.2,2311.9,970.2,2295.7,982z"/>
			<path fill="#233862" d="M2231.5,893.4c0,0-7.4,16-5.7,27.1c1.8,11.1,10.2,31.4,4.2,33.6c0,0-27.4-23.7-21.9-47.7
				C2214,881.1,2231.5,893.4,2231.5,893.4z"/>
			<path fill="#233862" d="M2225.6,891.9c0,0,1.5,1.3,4.1,3.4c0.1,0.5,0.2,0.8,0.2,0.8s34.8,40.3,74.1,39.1c0,0-21.3-5.7-40.6-18.5
				c11.6,5.5,24,9.1,34.5,6.8c8.7-1,27.1,31.4,4.6,44.1c0,0,32.5-2,41.7-15.8c0,0,0,3.4-0.6,5.3c0,0,23-10.5,28.8-22.2
				C2378.4,923.2,2284.3,823,2225.6,891.9z"/>
			<path fill="#ED985F" d="M2264.3,1095.8c-12.3,16.9-29.8,36.7-51.5,50.1v0.1c0,0-1.1,0.7-3,1.7c-0.2,0.1-0.3,0.2-0.5,0.3
				c-6.7,3.8-13.7,7.1-21,9.4c-0.1,0-0.1,0-0.2,0.1c-6.9,2.3-14.6,4.2-22.2,4.7c6.4-1.2,12.6-3.6,18.5-7c11-6.2,21-15.4,29.6-25.3
				c19.4-22.1,31.6-47.2,32.3-47.3L2264.3,1095.8z"/>
			<path fill="#2B478B" d="M2445.8,1011.8L2445.8,1011.8c-1.8-3.5-3.6-6.8-5.4-9.9c-7.9-13.5-16-23.4-24-27.9l0,0l0,0
				c-4.4-2.4-12.3-2.7-22.3-1.4l0,0c-9.5,1.2-21,3.8-33.3,7.2l0,0h0.1c0,0-7.7,27.6-19.8,46.3c-3.4,5.4-7.3,10-11.4,13
				c-3,2.3-6.2,3.6-9.5,3.7c-8.4,0.3-15.6-1.8-21.1-5.7c-8.3-5.9-12.6-15.9-10.8-27.7v-0.1l1.4-5.8l0,0l0,0l0,0v-0.1l0,0l0,0l0,0
				c-1.1,0.3-39.6,10.4-46.8,20.8c-7.4,10.6-18.2,35.1-18.2,35.1s16.8,45.7,43.9,52.2v0.1c1.3,13.4,12,32.1,25.8,50.4
				c5.3,7,11,14,16.8,20.6c41.1-3.3,84.4-9.8,125.3-20.6c19.2-5,37.8-11,55.4-18C2480.2,1097.2,2463.6,1046.1,2445.8,1011.8z"/>
			<path fill="#FFB27D" d="M2400.5,975c-5.7,2.3-28,47.2-48.9,85l-42.1-136c0,0-0.2-24.5-4-30.3s-17.7-18.3-22.9-16.8
				s1.7,13,2.9,19.9c1.2,6.8,1.7,10.1,1.2,10.4c-0.6,0.3-4.3-11.7-6-11.2c-1.7,0.6,1.2,15.4,2.4,18.3c1.1,2.7,9.6,7.8,10.8,13.1
				c0.8,35.3,6.9,245.1,36.8,235.4c0.2-0.1,0.4-0.2,0.7-0.3c1.9-0.9,3.7-1.8,5.5-2.8c0,0,0,0,0.1,0h0.1
				c64.2-34,89.4-93.1,97.6-118.4c2.4-7.5,3.4-12,3.4-12C2451.2,978.5,2416.1,968.7,2400.5,975z"/>
			<g>
				<path fill="#F99746" d="M2283.5,775.4c-2.5-2.6-5.7-3.9-9.5-3.9s-7.1,1.3-9.7,3.9c-2.7,2.6-4,5.8-4,9.6c0,3.7,1.4,6.9,4.1,9.5
					c2.7,2.7,5.9,4,9.6,4c3.8,0,7-1.3,9.5-3.9c2.5-2.6,3.8-5.8,3.8-9.6S2286,778,2283.5,775.4z M2306.4,665.1
					c-8.3-7-18.6-10.5-30.9-10.5c-7.9,0-15.4,1.8-22.5,5.4c-7.1,3.6-12.7,8.7-16.6,15.4c-2.4,4.1-3.6,8.1-3.6,12.2
					c0,3.2,1,5.8,3,7.9c2,2.1,4.5,3.1,7.5,3.1c3.6,0,6.7-1.8,9.3-5.5l7.6-10.3c3.7-3.7,8.6-5.5,14.7-5.5c5.2,0,9.6,1.4,13.1,4.3
					c3.5,2.9,5.3,6.9,5.3,12.1c0,6-1.8,10.6-5.5,13.9c-2.7,2.4-7.2,4.6-13.7,6.7c-4.8,1.5-8,3.1-9.6,4.7c-1.6,1.6-2.4,4-2.4,7.1
					v19.1c0,3.8,1,7,3,9.5s4.9,3.8,8.6,3.8c6,0,9.7-2.9,11.2-8.8c0.5-2,0.8-7.2,0.8-15.6c10.4-2,18.7-6.5,24.7-13.4
					s9.1-15.7,9.1-26.2C2319.3,682.4,2315,672.6,2306.4,665.1z"/>
			</g>
			<g>
				<path fill="#F99746" d="M2357.7,784.8c-1-2.5-2.8-4.3-5.4-5.4c-2.6-1.1-5.2-1.1-7.7-0.1s-4.4,2.8-5.4,5.4c-1,2.5-1,5,0.1,7.6
					s2.9,4.4,5.4,5.4c2.6,1.1,5.1,1.1,7.6,0.1c2.5-1.1,4.2-2.9,5.3-5.5C2358.7,789.8,2358.7,787.2,2357.7,784.8z M2404.5,716.4
					c-3.6-7.1-9.6-12.4-18-15.8c-5.4-2.2-11-3.1-16.8-2.7c-5.9,0.4-11.1,2.4-15.6,5.7c-2.8,2.1-4.8,4.5-5.9,7.3
					c-0.9,2.2-1,4.2-0.2,6.2s2.2,3.4,4.2,4.3c2.4,1,5,0.6,7.9-1.1l8.1-4.8c3.5-1.4,7.4-1.3,11.5,0.4c3.5,1.5,6.1,3.7,7.6,6.6
					c1.6,2.9,1.6,6.2,0.1,9.7c-1.7,4.1-4.3,6.7-7.7,7.9c-2.5,0.9-6.2,1.1-11.2,0.6c-3.7-0.3-6.3-0.2-7.9,0.4c-1.5,0.6-2.7,2-3.6,4.2
					l-5.4,12.9c-1.1,2.6-1.3,5-0.6,7.3s2.2,4,4.7,5c4.1,1.7,7.4,0.8,10.1-2.8c0.9-1.2,2.6-4.7,4.9-10.4c7.6,1.6,14.5,0.9,20.6-2.1
					s10.6-8.1,13.6-15.2C2408.4,731.8,2408.2,723.9,2404.5,716.4z"/>
			</g>
			<g>
				<path fill="#F99746" d="M2212.1,805.7c-1.7-2.2-3.9-3.5-6.6-3.9c-2.6-0.4-5.1,0.3-7.3,2s-3.5,3.9-3.9,6.7
					c-0.4,2.7,0.3,5.2,2,7.4c1.7,2.1,3.9,3.4,6.7,3.7s5.3-0.3,7.4-2c2.2-1.7,3.5-3.9,3.8-6.6
					C2214.5,810.4,2213.8,807.9,2212.1,805.7z M2190,738.6c-5.4-7-12.3-10.8-20.7-11.3c-7.9-0.4-15.5,2.2-22.7,7.8
					c-4.6,3.5-8.1,8-10.6,13.3s-3.4,10.8-2.8,16.4c0.4,3.5,1.6,6.4,3.4,8.7c1.4,1.8,3.2,2.9,5.3,3.3c2.1,0.3,4-0.2,5.8-1.6
					c2.1-1.6,3.1-4.1,3-7.4l-0.2-9.4c0.5-3.8,2.5-7.1,6.1-9.8c3-2.3,6.2-3.5,9.5-3.4s6.1,1.7,8.5,4.7c2.7,3.5,3.7,7,3,10.6
					c-0.5,2.6-2.1,6-5,10c-2.1,3.1-3.3,5.4-3.5,7s0.4,3.4,1.8,5.2l8.6,11.1c1.7,2.2,3.7,3.6,6.1,4.2c2.3,0.6,4.6,0,6.7-1.6
					c3.5-2.7,4.4-6.1,2.6-10.2c-0.6-1.4-2.8-4.6-6.6-9.4c5.2-5.9,7.9-12.2,8.3-18.9C2196.9,751.2,2194.8,744.7,2190,738.6z"/>
			</g>
			<path fill="#ED985F" d="M2434.4,1041.3c-8.2,25.3-33.5,84.4-97.6,118.4c34.8-19.5,66.1-116.9,66.1-116.9L2434.4,1041.3z"/>
			<path fill="#2B478B" d="M2391.6,973.3c0,0,36.1-12,49.2,17.6c13.2,29.6-1.3,79.2-1.3,79.2s-63.3-3.5-73.1-49.6L2391.6,973.3z"/>
		</g>
		<path fill="#F99746" d="M2436.5,1162.2c-40.9,10.7-84.2,17.2-125.3,20.6c-24.4,2-48.1,2.9-70.1,2.9c-47.3,0-88.2-8.5-123.3-23.5
			h43.8c0.7,0,1.3,0,2,0H2436.5z"/>
		<g>
			<g>
				<path fill="#82B378" d="M2477.3,1688.7c0,0-52.7-61.5-3.3-100.6c0,0,36.1-21.9,65.6-20.1c0,0-41.8,70-28.2,77
					c13.5,7,40.9-81.4,40.9-81.4s82.2-8,108.7,4.7c0,0-70.3,57.5-55.5,61c14.8,3.4,90.7-53,90.7-53s76.5,13,72.5,59.7
					c-4.1,46.7-30.5,61.1-42,59.9c-11.6-1.2-79.4-27.1-80.9-17.6s39.3,40.5,67.9,42c0,0-54,59.5-89.8,42.3
					c-35.9-17.2-38.9-44.4-61.3-54.6c-22.4-10.2-41.4-10.2-32.2,0.2c9.2,10.4,49.7,20.5,62.5,43.2c12.8,22.6,24.3,37.9-12.9,32.3
					c-37.1-5.6-97.4-32.7-100.1-63.8S2477.3,1688.7,2477.3,1688.7z"/>
				<g>
					<path fill="#82B378" d="M2731.1,1637.2c0,0-207.9-8-253.8,51.4c0,0-10.2,30.4-41.4,58.1l-4.9,13.3c0,0,36-38,48.9-40.3
						C2479.9,1719.8,2459.8,1646.1,2731.1,1637.2z"/>
					<path fill="#82B378" d="M2444.6,1746.5c-1.8,2-4.5,4.6-8.3,8.2c-0.1,0.1-0.1,0.1-0.2,0.2c-1.2,1.2-2.5,2.4-3.6,3.7
						c-7.4,8.2-13.8,19.4-19,30.8c-1,2.3-2,4.5-3,6.8h-12.2c1-2.3,2.1-4.6,3.2-6.8c14.2-27.6,34.3-42.5,34.3-42.5l0,0
						C2436.7,1746.3,2454.6,1735.4,2444.6,1746.5z"/>
				</g>
			</g>
			<g>
				<path fill="#A8D29F" d="M2331.7,1609.9c0,0,83.9-47,44.7-110.7c0,0-31.3-39.1-64.9-49.2c0,0,17.9,95.1,0,97.3
					c-17.9,2.2-12.3-107.4-12.3-107.4s-88.4-42.5-123-39.1c0,0,54.8,92.8,36.9,90.6c-17.9-2.2-79.4-96.2-79.4-96.2
					s-90.6-16.8-105.1,36.9s8.9,80.5,22.4,83.9c13.4,3.4,99.5,2.2,97.3,13.4s-60.4,29.1-92.8,19c0,0,35.8,88.4,82.8,83.9
					s61.5-33.6,90.6-35.8c29.1-2.2,50.3,5.6,35.8,13.4s-63.7,2.6-87.2,22.5c-23.5,20-42.5,32.3,1.1,41.2
					c43.6,8.9,121.9,3.4,137.6-30.2S2331.7,1609.9,2331.7,1609.9z"/>
				<g>
					<path fill="#82B378" d="M2070,1448.9c0,0,234.9,76,261.7,161c0,0-1.1,38,22.4,81.6v16.8c0,0-24.6-57-38-64.9
						C2316.1,1643.5,2368.6,1569.7,2070,1448.9z"/>
					<path fill="#82B378" d="M2374.9,1789.3c-0.3,2.2-0.6,4.5-1,6.8h-12.2c0.1-2.1,0.3-4.4,0.4-6.8c1.1-22.7,0.9-58.4-8.8-82.9
						c0-0.1-0.1-0.2-0.1-0.3c-0.8-2.1-1.7-4.1-2.7-5.9c0-0.1-0.1-0.1-0.1-0.1c-2.8-5.4-4.6-9.4-5.8-12.3l0,0
						c-6.7-16.5,8.8,2.9,9.5,3.8l0,0C2354.1,1691.6,2381.9,1733.8,2374.9,1789.3z"/>
				</g>
			</g>
			<g>
				<path fill="#A8D29F" d="M2432.8,1514c0,0-110.6-61.9-59-145.9c0,0,41.3-51.6,85.5-64.9c0,0-23.6,125.3,0,128.3
					c23.6,2.9,16.2-141.5,16.2-141.5s116.5-56,162.2-51.6c0,0-72.2,122.4-48.6,119.4c23.6-2.9,104.7-126.8,104.7-126.8
					s119.4-22.1,138.6,48.6c19.2,70.8-11.8,106.1-29.5,110.6c-17.7,4.4-131.2,2.9-128.3,17.7c2.9,14.7,79.6,38.3,122.4,25.1
					c0,0-47.2,116.5-109.1,110.6c-61.9-5.9-81.1-44.2-119.4-47.2c-38.3-2.9-66.3,7.4-47.2,17.7c19.2,10.3,84,3.4,115,29.7
					s56,42.5-1.5,54.3s-160.7,4.4-181.3-39.8S2432.8,1514,2432.8,1514z"/>
				<g>
					<path fill="#82B378" d="M2777.7,1301.7c0,0-309.6,100.2-345,212.3c0,0,1.5,50.1-29.5,107.6v22.1c0,0,32.4-75.2,50.1-85.5
						C2453.4,1558.2,2384.1,1460.9,2777.7,1301.7z"/>
					<path fill="#82B378" d="M2403.3,1621.6c0,0-47.7,72.5-20.5,160.8l12.3-3.3c0,0-11.9-97.2,13.1-146.1
						C2433.1,1584.1,2403.3,1621.6,2403.3,1621.6z"/>
				</g>
			</g>
		</g>
		<g>
			<path fill="#2C3A64" d="M2236.2,1723.1H1116.5c-52.5,0-95,42.5-95,95l0,0h1309.7l0,0C2331.2,1765.6,2288.7,1723.1,2236.2,1723.1z
				"/>
			<path fill="#2B478B" d="M2373.4,1723.1H1253.6c-52.5,0-95,42.5-95,95l0,0h1309.7l0,0C2468.4,1765.6,2425.8,1723.1,2373.4,1723.1z
				"/>
		</g>
		<path fill="#2E3552" d="M2914.6,1816.9v1c0,1.6-1.3,2.9-2.9,2.9H365.1c-1.6,0-2.9-1.3-2.9-2.9v-1c0-1.6,1.3-2.9,2.9-2.9h2546.6
			C2913.3,1814,2914.6,1815.3,2914.6,1816.9z"/>
	</g>
</g>
</svg>
